<svg width="312" height="958" viewBox="0 0 312 958" fill="none" xmlns="http://www.w3.org/2000/svg">
<g opacity="0.8">
<path d="M97.8248 229.733L93.4449 39.7756V16.3944C93.4449 14.8082 94.1975 13.3161 95.4731 12.3733L106.86 3.95795C108.58 2.68626 110.664 2 112.803 2H201.81C205.888 2 209.557 4.476 211.083 8.25743L214.656 17.1102V31.1412V39.7756L220.498 229.733L245.068 245.922C261.132 258.874 269.894 266.429 283.037 281.539C294.568 294.795 306.89 303.125 309.324 322.553C301.535 514.309 287.675 922.213 287.675 929.12C287.675 937.755 274.275 947.469 229.26 952.865C184.549 958.225 58.0265 952.902 30.6486 944.231C10.2021 937.755 10.2021 903.217 10.2021 892.424C10.2021 881.631 -0.275638 647.423 2.64512 584.823C5.56588 522.224 -4.40172 333.346 10.2021 298.808C21.8851 271.178 73.4852 241.245 97.8248 229.733Z" fill="#A31212" stroke="#711010" stroke-width="4"/>
<path d="M155.806 264.135L149.949 256.586C147.02 254.429 143.506 251.194 135.306 251.194C125.055 251.194 87.4447 283.491 78.1979 295.407C72.3407 302.956 56.2334 332.072 56.2334 348.248V923.019L91.3766 929.489C91.8647 736.461 89.3546 343.992 98.6981 322.367C108.948 298.643 163.127 264.135 155.806 264.135Z" fill="white"/>
</g>
</svg>
