<svg width="804" height="424" viewBox="0 0 804 424" fill="none" xmlns="http://www.w3.org/2000/svg">
<path d="M218.292 309.643L70.7746 361.272L52.5117 367.316C51.2522 367.733 49.8785 367.632 48.6933 367.036L41.8991 363.617C39.5312 362.426 37.7332 360.343 36.9004 357.826L21.6057 311.613C20.2166 307.416 21.7486 302.805 25.3731 300.273L29.8997 297.111L40.8578 293.485L47.6012 291.253L194.839 238.779L202.786 220.402C209.83 207.774 214.055 200.76 223.343 189.262C231.491 179.175 235.641 169.903 250.349 163.476C401.597 118.411 722.816 20.9847 728.211 19.1992C734.955 16.9675 745.103 22.1975 757.923 46.8062C770.657 71.2486 790.689 145.712 789.151 163.769C788.002 177.254 761.029 186.181 752.6 188.97C744.17 191.76 563.259 258.35 513.811 272.843C464.363 287.336 318.757 341.914 288.991 342.405C265.179 342.798 231.936 320.727 218.292 309.643Z" fill="#FFFCFC" stroke="#FFFCFC" stroke-width="4"/>
<path d="M234.075 267.257L229.299 272.592C228.175 274.841 226.32 277.707 227.888 282.444C229.847 288.365 262.261 301.744 273.336 304.005C280.351 305.438 306.17 307.216 318.803 303.036L767.693 154.472L766.028 132.498C615.181 182.109 309.147 285.002 290.471 285.195C269.983 285.406 232.675 263.028 234.075 267.257Z" fill="#8B0404"/>
<path d="M472.426 103.937C562.8 68.7993 564.049 95.8749 575.532 125.409C587.015 154.942 604.383 175.75 514.009 210.888C476.08 225.636 444.289 234.04 430.411 231.288C411.224 227.482 417.567 206.556 410.903 189.417C404.24 172.279 383.908 157.228 395.486 141.461C403.859 130.057 434.496 118.685 472.426 103.937Z" fill="white"/>
<path d="M475.558 110.526C496.945 102.21 512.935 97.5745 525.046 95.6828C537.167 93.7896 545.216 94.6749 550.859 97.1916C556.442 99.6816 559.943 103.892 562.726 109.287C564.679 113.072 566.203 117.263 567.844 121.777C568.596 123.845 569.373 125.982 570.227 128.178C571.081 130.375 571.951 132.475 572.794 134.508C574.633 138.945 576.341 143.064 577.458 147.175C579.049 153.033 579.312 158.502 576.877 164.109C574.416 169.777 569.079 175.867 558.863 182.659C548.655 189.445 533.733 196.828 512.346 205.143C494.389 212.125 477.935 217.615 464.368 221.058C450.696 224.528 440.27 225.832 434.196 224.717C430.064 223.959 427.51 222.334 425.795 220.226C424.035 218.062 423.006 215.205 422.293 211.714C421.799 209.292 421.483 206.734 421.146 204.006C420.992 202.752 420.833 201.463 420.65 200.135C420.081 196.006 419.295 191.653 417.677 187.491C416.062 183.338 413.619 179.378 411.131 175.629C410.437 174.585 409.744 173.562 409.061 172.554C407.251 169.882 405.513 167.318 404.04 164.749C402.021 161.229 400.652 157.946 400.368 154.777C400.091 151.693 400.829 148.577 403.314 145.292C405.1 142.932 408.176 140.421 412.518 137.743C416.832 135.082 422.259 132.338 428.61 129.465C439.817 124.394 453.738 118.993 469.237 112.98C471.316 112.173 473.424 111.355 475.558 110.526Z" stroke="black" stroke-width="4"/>
<path d="M539.744 155.595L537.315 149.347C537.062 148.696 536.752 148.292 536.385 148.135C536 147.935 535.498 147.955 534.877 148.196L502.225 160.892L505.363 168.963L502.969 169.894L501.577 166.314C500.666 163.971 499.289 162.333 497.447 161.401C495.587 160.426 493.681 160.118 491.728 160.478L490.919 158.395L532.549 142.209C533.17 141.967 533.563 141.665 533.727 141.301C533.875 140.894 533.823 140.365 533.57 139.714L531.14 133.466L533.268 132.638L541.872 154.767L539.744 155.595Z" fill="black"/>
<path d="M550.329 114.643C551.58 117.86 551.873 120.801 551.207 123.467C550.497 126.15 548.707 128.05 545.836 129.166C544.27 129.775 542.78 129.869 541.364 129.447C539.904 129.042 538.909 128.156 538.377 126.789C537.924 125.623 537.92 124.583 538.366 123.669C538.753 122.731 539.533 122.034 540.708 121.578C541.621 121.223 542.527 121.171 543.427 121.423C544.267 121.652 544.843 122.169 545.156 122.973C545.703 124.381 546.347 124.94 547.086 124.653C549.826 123.587 550.212 120.521 548.241 115.454C547.1 112.519 545.192 110.83 542.517 110.389C539.826 109.908 536.958 110.259 533.913 111.443C530.433 112.796 528.097 114.514 526.904 116.598C525.696 118.642 525.482 120.669 526.264 122.68C526.499 123.283 526.738 123.769 526.981 124.137C527.209 124.465 527.541 124.869 527.977 125.347C528.972 126.488 529.61 127.42 529.891 128.144C530.126 128.747 530.184 129.35 530.068 129.951C529.935 130.511 529.564 130.91 528.955 131.147C528.346 131.384 527.804 131.34 527.327 131.016C526.851 130.692 526.487 130.208 526.237 129.565C525.971 128.881 525.713 127.894 525.461 126.603C525.279 125.748 524.914 124.617 524.367 123.209C523.616 121.279 522.111 120.175 519.849 119.897C517.529 119.595 515.151 119.918 512.715 120.865C509.887 121.965 507.773 123.481 506.372 125.415C504.97 127.348 504.715 129.461 505.606 131.753C506.529 134.126 507.599 135.654 508.816 136.338C510.018 136.982 511.141 137.101 512.185 136.695C512.576 136.543 512.935 136.242 513.26 135.791C513.542 135.357 513.72 134.848 513.793 134.264C513.883 132.563 515.499 133.178 516.978 132.603C517.891 132.248 518.746 131.268 519.573 131.594C520.358 131.937 520.138 131.844 520.544 132.889C520.998 134.056 520.875 135.284 520.175 136.575C519.416 137.842 518.248 137.77 516.943 138.277C513.899 139.461 511.27 140.268 508.789 138.779C506.292 137.25 504.449 134.958 503.261 131.902C501.838 128.242 501.762 124.892 503.033 121.852C504.246 118.788 506.57 116.588 510.007 115.252C511.833 114.542 513.621 114.31 515.369 114.556C517.058 114.779 518.594 115.316 519.976 116.167C521.3 116.995 522.348 117.953 523.122 119.041L523.644 118.838C523.389 117.409 523.48 115.777 523.918 113.94C524.312 112.12 525.14 110.386 526.402 108.738C527.664 107.09 529.361 105.852 531.492 105.023C534.145 103.992 536.731 103.75 539.248 104.299C541.721 104.865 543.939 106.063 545.902 107.892C547.806 109.698 549.282 111.948 550.329 114.643Z" fill="black"/>
<path d="M525.431 188.922C523.37 189.723 521.185 190.15 518.877 190.202C516.568 190.255 513.756 189.457 510.441 187.808L503.875 184.566C501.775 183.491 499.681 182.876 497.594 182.722C495.493 182.532 493.3 182.882 491.015 183.771C488.092 184.907 486.102 186.445 485.045 188.385C483.951 190.34 483.879 192.541 484.831 194.988C485.266 196.107 485.968 197.082 486.938 197.912C487.894 198.707 488.969 199.255 490.164 199.555C491.308 199.835 492.367 199.785 493.341 199.406C494.241 199.057 494.84 198.602 495.14 198.043C495.403 197.498 495.461 196.872 495.316 196.164C495.068 194.972 495.161 193.99 495.594 193.218C495.976 192.426 496.598 191.862 497.459 191.527C498.171 191.25 498.866 191.262 499.543 191.562C500.207 191.827 500.702 192.379 501.028 193.218C501.585 194.651 501.448 196.073 500.616 197.483C499.747 198.908 498.319 200.006 496.333 200.778C494.423 201.521 492.529 201.754 490.653 201.478C488.764 201.166 487.082 200.391 485.609 199.153C484.122 197.88 482.998 196.265 482.236 194.307C481.367 192.069 481.035 189.884 481.241 187.752C481.447 185.619 482.196 183.718 483.487 182.049C484.779 180.38 486.568 179.101 488.853 178.212C491.139 177.324 493.492 177.274 495.912 178.063C498.333 178.853 500.955 180.107 503.78 181.826L510.049 185.304C511.707 186.35 513.198 187.078 514.522 187.489C515.795 187.879 516.956 187.87 518.005 187.462C518.905 187.113 519.143 186.396 518.722 185.312L514.869 175.401C514.325 174.003 513.626 173.148 512.771 172.836C511.866 172.504 510.773 172.466 509.493 172.723L505.952 173.435L505.504 172.282L517.479 168.471L525.431 188.922Z" fill="black"/>
<path d="M444.325 148.373C444.638 149.176 444.546 149.842 444.049 150.37C443.534 150.889 442.859 151.327 442.025 151.683L441.568 151.861L441.366 151.341C442.1 151.056 442.699 150.751 443.163 150.427C443.613 150.109 443.749 149.721 443.572 149.264C443.453 148.959 443.224 148.801 442.885 148.79C442.54 148.764 441.99 148.867 441.235 149.097C440.127 149.447 439.26 149.657 438.633 149.725C437.987 149.785 437.355 149.656 436.737 149.339C436.1 149.012 435.424 148.382 434.71 147.448L434.606 147.488C434.57 148.379 433.655 149.245 431.862 150.086C430.822 150.57 430.122 151.065 429.761 151.573C429.395 152.066 429.316 152.582 429.527 153.123C429.688 153.538 429.935 153.681 430.267 153.552C430.378 153.509 430.46 153.453 430.513 153.385C430.553 153.322 430.592 153.218 430.632 153.075C430.69 152.814 430.778 152.588 430.895 152.399C431.005 152.149 431.206 151.967 431.497 151.854C431.801 151.736 432.098 151.74 432.387 151.867C432.694 152.002 432.924 152.264 433.074 152.652C433.193 152.957 433.195 153.291 433.081 153.654C432.902 154.218 432.445 154.642 431.711 154.928C431.074 155.175 430.489 155.188 429.956 154.965C429.417 154.728 429.016 154.27 428.752 153.591C428.429 152.76 428.489 152.011 428.931 151.345C429.354 150.67 430.175 150.033 431.392 149.432C432.44 148.929 433.18 148.433 433.613 147.946C434.045 147.459 434.116 146.842 433.825 146.094L433.429 145.076L427.965 147.2C427.591 147.346 427.477 147.606 427.623 147.979L428.204 149.475L427.539 149.734L425.197 143.709L425.862 143.45L426.443 144.946C426.519 145.14 426.624 145.267 426.758 145.326C426.874 145.377 427.028 145.365 427.222 145.289L432.686 143.165L432.29 142.147C432 141.399 431.53 140.991 430.882 140.924C430.234 140.857 429.354 140.992 428.242 141.329C426.938 141.709 425.905 141.799 425.143 141.601C424.361 141.395 423.809 140.877 423.485 140.046C423.222 139.367 423.211 138.765 423.453 138.24C423.69 137.702 424.127 137.309 424.764 137.061C425.499 136.776 426.122 136.78 426.635 137.075C426.965 137.266 427.189 137.514 427.307 137.818C427.458 138.206 427.465 138.554 427.33 138.862C427.203 139.15 426.987 139.354 426.682 139.472C426.392 139.585 426.121 139.587 425.871 139.477C425.656 139.417 425.439 139.31 425.22 139.156C425.094 139.077 424.995 139.028 424.924 139.008C424.838 138.993 424.74 139.008 424.629 139.051C424.297 139.18 424.211 139.452 424.373 139.868C424.583 140.408 424.992 140.743 425.601 140.873C426.204 140.989 427.052 140.875 428.146 140.529C430.036 139.938 431.296 139.958 431.925 140.591L432.028 140.551C431.924 139.379 431.999 138.465 432.254 137.808C432.489 137.143 432.868 136.621 433.391 136.242C433.894 135.855 434.672 135.417 435.726 134.928C436.438 134.587 436.916 134.298 437.158 134.06C437.395 133.808 437.454 133.53 437.336 133.226C437.158 132.768 436.796 132.575 436.249 132.644C435.688 132.718 435.04 132.898 434.306 133.184L434.104 132.664L434.561 132.487C435.417 132.186 436.213 132.06 436.949 132.108C437.666 132.148 438.181 132.57 438.493 133.373C438.784 134.121 438.855 134.755 438.707 135.275C438.539 135.787 438.201 136.229 437.692 136.603C437.184 136.976 436.459 137.369 435.52 137.782C434.664 138.163 434.013 138.519 433.568 138.852C433.11 139.189 432.816 139.583 432.687 140.031C432.554 140.466 432.608 140.995 432.85 141.618L433.351 142.906L439.563 140.491C439.937 140.346 440.051 140.086 439.906 139.712L439.324 138.216L439.989 137.958L442.331 143.983L441.666 144.241L441.085 142.745C440.94 142.371 440.68 142.257 440.306 142.402L434.094 144.818L434.595 146.106C434.837 146.729 435.157 147.163 435.555 147.406C435.947 147.637 436.427 147.721 436.993 147.66C437.546 147.605 438.266 147.429 439.155 147.131C440.127 146.801 440.926 146.602 441.553 146.533C442.18 146.465 442.731 146.569 443.206 146.847C443.661 147.117 444.035 147.625 444.325 148.373Z" fill="black"/>
<path d="M450.445 166.817L450.146 166.048C449.828 165.231 449.091 164.832 447.934 164.851L433.587 165.288L433.385 164.768L444.845 155.123C445.138 154.85 445.316 154.589 445.379 154.341C445.428 154.099 445.393 153.826 445.275 153.521L444.823 152.357L445.487 152.099L447.991 158.539L447.327 158.798L446.794 157.427C446.713 157.219 446.597 157.065 446.446 156.964C446.281 156.868 446.13 156.848 445.991 156.901C445.811 156.971 445.67 157.058 445.567 157.162L443.183 159.213L445.073 164.074L446.659 164.032C447.289 164.01 447.728 163.951 447.977 163.854C448.282 163.736 448.522 163.555 448.699 163.311C448.861 163.072 448.869 162.766 448.724 162.392L448.231 161.125L448.896 160.866L451.109 166.559L450.445 166.817ZM444.32 164.104L442.607 159.7L437.111 164.324L444.32 164.104Z" fill="black"/>
<path d="M456.681 182.858L456.099 181.362C455.954 180.988 455.694 180.874 455.32 181.019L442.98 185.817C442.786 185.893 442.666 185.995 442.621 186.124C442.556 186.245 442.562 186.402 442.637 186.596L443.219 188.092L442.554 188.351L437.029 174.14L437.693 173.882L438.275 175.378C438.35 175.572 438.455 175.698 438.59 175.757C438.705 175.808 438.86 175.796 439.054 175.72L451.395 170.922C451.769 170.777 451.883 170.517 451.737 170.143L451.156 168.648L451.821 168.389L454.163 174.414L453.498 174.672L452.917 173.177C452.771 172.803 452.512 172.688 452.138 172.834L439.797 177.632C439.603 177.707 439.484 177.809 439.438 177.939C439.374 178.06 439.379 178.217 439.454 178.411L441.458 183.563C441.533 183.757 441.638 183.884 441.773 183.943C441.888 183.994 442.043 183.981 442.237 183.906L454.577 179.108C454.951 178.962 455.065 178.703 454.92 178.329L454.338 176.833L455.003 176.574L457.346 182.599L456.681 182.858Z" fill="black"/>
<path d="M462.166 193.89C462.484 194.707 462.522 195.481 462.28 196.213C462.033 196.931 461.55 197.43 460.829 197.71C460.262 197.931 459.718 197.967 459.198 197.818C458.664 197.675 458.289 197.326 458.073 196.772C457.917 196.371 457.902 196.002 458.026 195.667C458.132 195.323 458.385 195.073 458.787 194.917C459.078 194.804 459.366 194.787 459.652 194.867C459.925 194.953 460.167 195.145 460.38 195.445C460.456 195.559 460.525 195.636 460.588 195.675C460.632 195.706 460.7 195.735 460.79 195.764C460.909 195.782 461.03 195.766 461.155 195.718C461.432 195.61 461.589 195.398 461.625 195.081C461.661 194.764 461.615 194.439 461.485 194.107C461.265 193.539 460.879 193.162 460.329 192.978C459.76 192.785 459.031 192.693 458.142 192.704L457.599 192.724L449.573 201.728C449.297 202.042 449.131 202.314 449.076 202.543C449.003 202.763 449.022 203.018 449.135 203.309L449.62 204.555L448.955 204.814L446.386 198.207L447.051 197.949L447.552 199.237C447.638 199.459 447.736 199.628 447.845 199.745C447.954 199.862 448.064 199.899 448.175 199.856C448.466 199.743 448.667 199.624 448.779 199.501L455 192.682L447.984 192.66C447.683 192.665 447.36 192.695 447.015 192.749C446.65 192.796 446.384 192.851 446.218 192.916C445.941 193.023 445.745 193.195 445.63 193.431C445.5 193.673 445.511 193.988 445.662 194.376L446.098 195.497L445.433 195.756L443.252 190.147L443.917 189.888L444.289 190.844C444.445 191.245 444.698 191.506 445.047 191.625C445.396 191.744 445.851 191.807 446.411 191.812L457.521 191.845C458.617 191.834 459.577 191.947 460.403 192.184C461.228 192.421 461.816 192.989 462.166 193.89Z" fill="black"/>
<path d="M465.283 202.275C465.557 202.981 465.608 203.583 465.435 204.081C465.262 204.579 464.957 204.985 464.521 205.298C464.071 205.616 463.484 205.932 462.761 206.245C461.472 206.826 460.516 207.381 459.892 207.91C459.25 208.431 459.063 209.038 459.333 209.73L460.221 212.016L466.433 209.6C466.807 209.455 466.921 209.195 466.776 208.821L466.194 207.326L466.859 207.067L469.201 213.092L468.537 213.35L467.955 211.855C467.81 211.481 467.55 211.366 467.176 211.512L454.836 216.31C454.642 216.385 454.522 216.488 454.477 216.617C454.412 216.738 454.417 216.895 454.493 217.089L455.074 218.585L454.409 218.843L452.067 212.818L452.732 212.56L453.313 214.056C453.389 214.25 453.494 214.376 453.628 214.435C453.744 214.486 453.898 214.474 454.092 214.399L459.556 212.274L458.862 210.488C458.56 209.712 458.066 209.282 457.38 209.198C456.68 209.12 455.658 209.302 454.315 209.744C453.385 210.058 452.653 210.183 452.118 210.12C451.669 210.072 451.278 209.928 450.946 209.691C450.596 209.444 450.353 209.148 450.218 208.802C449.976 208.179 449.934 207.621 450.094 207.128C450.34 206.49 450.802 206.04 451.481 205.776C451.98 205.582 452.445 205.528 452.878 205.615C453.139 205.673 453.375 205.789 453.586 205.962C453.792 206.121 453.94 206.318 454.032 206.554C454.177 206.928 454.186 207.259 454.059 207.548C453.924 207.855 453.704 208.068 453.399 208.187C453.136 208.289 452.902 208.324 452.699 208.292C452.489 208.246 452.275 208.146 452.056 207.992C451.702 207.779 451.435 207.707 451.255 207.777C451.102 207.836 451.025 207.946 451.024 208.106C451.009 208.271 451.028 208.423 451.082 208.562C451.286 209.088 451.664 209.364 452.216 209.388C452.762 209.399 453.589 209.229 454.696 208.878C455.563 208.605 456.315 208.448 456.953 208.408C457.591 208.367 458.127 208.557 458.562 208.978L458.666 208.937C458.731 207.876 458.874 207.055 459.095 206.475C459.316 205.894 459.685 205.408 460.202 205.016C460.705 204.629 461.49 204.188 462.558 203.693C463.179 203.404 463.624 203.135 463.894 202.887C464.145 202.63 464.201 202.321 464.061 201.961C463.899 201.545 463.494 201.344 462.845 201.357C462.183 201.376 461.554 201.501 460.958 201.732L460.756 201.213C461.573 200.895 462.444 200.756 463.368 200.795C464.278 200.84 464.917 201.333 465.283 202.275Z" fill="black"/>
</svg>
