<svg width="456" height="934" viewBox="0 0 456 934" fill="none" xmlns="http://www.w3.org/2000/svg">
<path d="M50.0579 19.5698C76.2012 14.943 120.722 7.9509 124.132 7.9509C128.922 7.9509 146.729 8.31976 155.817 7.9509C197.45 6.5984 280.948 5 282.925 5C284.678 5 311.705 5.65217 333.715 6.41357C352.481 7.06272 372.005 8.2441 390.138 13.115C395.173 14.4675 402.91 19.2627 405.244 20.4922C406.699 21.2588 408.688 22.7901 409.051 24.5497C409.059 24.5859 409.066 24.6222 409.072 24.6586L411.876 39.6731L432.14 114.552C440.177 144.782 450.406 186.749 450.772 218.027C451.014 238.607 450.673 258.012 450.561 260.622C449.434 286.951 432.14 319.5 423.666 336.976C416.644 351.457 382.87 396.157 370.244 406.691C351.556 422.282 327.799 430.406 305.769 439.889C299.137 441.733 283.54 452.676 275.189 460.545C272.979 462.628 265.242 472.717 262.294 478.25C261.113 480.468 257.703 492.827 254.747 505.622C251.487 519.725 250.486 534.206 250.45 548.681L250.136 674.116C251.636 709.549 250.917 743.303 255.302 777.14C258.824 804.318 276.731 821.049 304.104 822.391C307.265 822.546 310.215 822.672 312.769 822.768C342.978 822.768 385.718 832.922 397.876 841.211C410.034 849.5 410.034 857.39 410.034 872.195C410.034 887 392.94 902 379.455 907.606C365.969 913.212 320.928 921.056 313.137 921.992C297.678 923.926 282.649 927.723 267.084 929H173.871C157.537 927.893 125.015 926.787 123.765 926.787C119.142 926.787 114.266 926.548 109.33 925.915C82.7409 922.509 49.8649 904.235 53.5997 877.69C54.9607 868.017 58.7603 858.708 63.3424 854.121C73.869 843.582 94.3382 838.736 107.922 834.202C120.347 830.056 133.679 827.9 146.607 826.087L159.94 824.486C159.94 824.764 162.483 824.625 166.028 824.601C175.658 824.536 198.062 821.459 202.977 813.177C206.94 806.5 208.135 800.882 209.977 794.734C214.789 768.504 216.294 743.593 216.977 716.904C215.504 655.427 212.556 532.399 212.556 532.104C212.556 515.08 205.602 485.673 193.029 473.086C184.126 464.172 156.252 451.195 145.502 445.79C105.461 425.662 65.555 398.526 41.6458 360.621C40.1516 358.252 38.891 356.223 37.9208 354.681C35.9931 351.077 34.1785 347.481 32.4394 343.871C19.6265 317.279 12.5813 288.197 8.10922 259.019C6.0513 245.593 4.55434 232.249 5.13027 217.834L25.0254 103.855L43.4464 24.9186C42.8754 21.4904 46.6357 20.1755 50.0579 19.5698Z" fill="#7E0808"/>
<path d="M43.4464 24.9186C44.1837 29.3449 49.3418 30.0826 55.6046 33.4024C57.9076 34.6232 69.9733 40.7796 72.1839 41.8862C73.5281 42.5591 91.2194 45.9437 100.553 47.0503L140.712 50.0012H188.976H236.872H290.294L341.874 45.206L373.927 41.5174C377.243 41.5174 395.296 36.7222 397.875 35.2467C399.18 34.5002 404.875 30.4515 407.454 27.8695C408.897 26.7584 409.271 25.6124 409.051 24.5497M43.4464 24.9186V24.9186C42.8754 21.4904 46.6357 20.1755 50.0579 19.5698C76.2012 14.943 120.722 7.9509 124.132 7.9509C128.922 7.9509 146.729 8.31976 155.817 7.9509C197.45 6.5984 280.948 5 282.925 5C284.678 5 311.705 5.65217 333.715 6.41357C352.481 7.06272 372.005 8.2441 390.138 13.115V13.115C395.173 14.4675 402.91 19.2627 405.244 20.4922C406.699 21.2588 408.688 22.7901 409.051 24.5497M43.4464 24.9186L25.0254 103.855L5.13027 217.834C4.55434 232.249 6.0513 245.593 8.10922 259.019C12.5813 288.197 19.6265 317.279 32.4394 343.872C34.1785 347.481 35.9931 351.077 37.9208 354.681C38.891 356.223 40.1516 358.252 41.6458 360.621C65.555 398.526 105.461 425.662 145.502 445.79V445.79C156.252 451.195 184.126 464.172 193.029 473.086C205.602 485.673 212.556 515.08 212.556 532.104C212.556 532.399 215.504 655.427 216.977 716.904C216.294 743.593 214.789 768.504 209.977 794.734C208.135 800.882 206.94 806.5 202.977 813.177V813.177C198.062 821.459 175.658 824.536 166.028 824.601C162.483 824.625 159.94 824.764 159.94 824.486M165.029 823.874L146.607 826.087C133.679 827.9 120.347 830.056 107.922 834.202C94.3382 838.736 73.869 843.582 63.3424 854.121C58.7603 858.708 54.9607 868.017 53.5997 877.69C49.8649 904.235 82.7409 922.509 109.33 925.915C114.266 926.548 119.142 926.787 123.765 926.787C125.015 926.787 157.537 927.893 173.871 929H267.084C282.649 927.723 297.678 923.926 313.137 921.992C320.928 921.056 365.969 913.212 379.455 907.606C392.94 902 410.034 887 410.034 872.195C410.034 857.39 410.034 849.5 397.876 841.211C385.718 832.922 342.978 822.768 312.769 822.768C310.215 822.672 307.265 822.546 304.104 822.391C276.731 821.049 258.824 804.318 255.302 777.14C250.917 743.303 251.636 709.549 250.136 674.116L250.45 548.681C250.486 534.206 251.487 519.725 254.747 505.622C257.703 492.827 261.113 480.468 262.294 478.25C265.242 472.717 272.979 462.628 275.189 460.545C283.54 452.676 299.137 441.733 305.769 439.889C327.799 430.406 351.556 422.282 370.244 406.691C382.87 396.157 416.644 351.457 423.666 336.976C432.14 319.5 449.434 286.951 450.561 260.622C450.673 258.012 451.014 238.607 450.772 218.027C450.406 186.749 440.177 144.782 432.14 114.552V114.552L411.876 39.6731L409.051 24.5497" stroke="#520F0F" stroke-width="9"/>
<path d="M304.591 152.48C303.391 152.48 302.391 152.053 301.591 151.2C300.817 150.347 300.431 149.187 300.431 147.72V134.88H297.471V133.76H298.351C299.551 133.76 300.484 133.12 301.151 131.84C301.844 130.533 302.191 129.093 302.191 127.52V126.08H303.311V133.76H308.271V134.88H303.311V147.92C303.311 148.72 303.471 149.387 303.791 149.92C304.111 150.453 304.657 150.72 305.431 150.72C307.324 150.72 308.271 149.12 308.271 145.92H308.991C308.991 147.707 308.724 149.253 308.191 150.56C307.684 151.84 306.484 152.48 304.591 152.48Z" fill="#E09844"/>
<path d="M290.85 128.8C290.263 128.8 289.77 128.6 289.37 128.2C288.97 127.8 288.77 127.306 288.77 126.72C288.77 126.106 288.97 125.613 289.37 125.24C289.77 124.84 290.263 124.64 290.85 124.64C291.463 124.64 291.957 124.84 292.33 125.24C292.73 125.613 292.93 126.106 292.93 126.72C292.93 127.306 292.73 127.8 292.33 128.2C291.957 128.6 291.463 128.8 290.85 128.8ZM287.09 151.04H288.77C289.09 151.04 289.317 150.973 289.45 150.84C289.583 150.706 289.65 150.48 289.65 150.16V135.6C289.65 135.28 289.583 135.053 289.45 134.92C289.317 134.786 289.09 134.72 288.77 134.72H287.09V133.76H292.53V150.16C292.53 150.48 292.597 150.706 292.73 150.84C292.863 150.973 293.09 151.04 293.41 151.04H295.09V152H287.09V151.04Z" fill="#E09844"/>
<path d="M275.908 151.04H277.988C278.308 151.04 278.535 150.973 278.668 150.84C278.802 150.707 278.868 150.48 278.868 150.16V125.36C278.868 125.04 278.802 124.813 278.668 124.68C278.535 124.547 278.308 124.48 277.988 124.48H275.908V123.52H281.748V150.16C281.748 150.48 281.815 150.707 281.948 150.84C282.082 150.973 282.308 151.04 282.628 151.04H284.708V152H275.908V151.04Z" fill="#E09844"/>
<path d="M264.865 152.48C263.399 152.48 262.052 152.054 260.825 151.2C259.599 150.32 258.625 149.147 257.905 147.68C257.212 146.214 256.865 144.614 256.865 142.88C256.865 141.147 257.212 139.547 257.905 138.08C258.625 136.614 259.599 135.454 260.825 134.6C262.052 133.72 263.399 133.28 264.865 133.28C266.332 133.28 267.679 133.72 268.905 134.6C270.132 135.454 271.092 136.614 271.785 138.08C272.505 139.547 272.865 141.147 272.865 142.88C272.865 144.614 272.505 146.214 271.785 147.68C271.092 149.147 270.132 150.32 268.905 151.2C267.679 152.054 266.332 152.48 264.865 152.48ZM264.865 151.52C266.465 151.52 267.612 150.774 268.305 149.28C268.999 147.76 269.345 145.627 269.345 142.88C269.345 140.134 268.999 138.014 268.305 136.52C267.612 135 266.465 134.24 264.865 134.24C263.265 134.24 262.119 135 261.425 136.52C260.732 138.014 260.385 140.134 260.385 142.88C260.385 145.627 260.732 147.76 261.425 149.28C262.119 150.774 263.265 151.52 264.865 151.52Z" fill="#E09844"/>
<path d="M245.021 152.48C243.555 152.48 242.208 152.054 240.981 151.2C239.755 150.32 238.781 149.147 238.061 147.68C237.368 146.214 237.021 144.614 237.021 142.88C237.021 141.147 237.368 139.547 238.061 138.08C238.781 136.614 239.755 135.454 240.981 134.6C242.208 133.72 243.555 133.28 245.021 133.28C246.488 133.28 247.835 133.72 249.061 134.6C250.288 135.454 251.248 136.614 251.941 138.08C252.661 139.547 253.021 141.147 253.021 142.88C253.021 144.614 252.661 146.214 251.941 147.68C251.248 149.147 250.288 150.32 249.061 151.2C247.835 152.054 246.488 152.48 245.021 152.48ZM245.021 151.52C246.621 151.52 247.768 150.774 248.461 149.28C249.155 147.76 249.501 145.627 249.501 142.88C249.501 140.134 249.155 138.014 248.461 136.52C247.768 135 246.621 134.24 245.021 134.24C243.421 134.24 242.275 135 241.581 136.52C240.888 138.014 240.541 140.134 240.541 142.88C240.541 145.627 240.888 147.76 241.581 149.28C242.275 150.774 243.421 151.52 245.021 151.52Z" fill="#E09844"/>
<path d="M215.439 151.04H217.519C217.839 151.04 218.066 150.973 218.199 150.84C218.333 150.707 218.399 150.48 218.399 150.16V125.36C218.399 125.04 218.333 124.813 218.199 124.68C218.066 124.547 217.839 124.48 217.519 124.48H215.439V123.52H221.279V143.88L226.719 137.24C227.013 136.92 227.199 136.667 227.279 136.48C227.386 136.293 227.439 136.053 227.439 135.76C227.439 135.413 227.306 135.16 227.039 135C226.799 134.813 226.479 134.72 226.079 134.72H225.039V133.76H233.199V134.72H231.919C231.199 134.72 230.559 134.907 229.999 135.28C229.439 135.653 228.799 136.28 228.079 137.16L225.039 140.88L231.279 149.76C231.599 150.213 231.879 150.547 232.119 150.76C232.359 150.947 232.693 151.04 233.119 151.04H233.919V152H225.439V151.04H226.479C226.826 151.04 227.093 150.987 227.279 150.88C227.466 150.747 227.559 150.533 227.559 150.24C227.559 149.947 227.519 149.707 227.439 149.52C227.359 149.333 227.226 149.093 227.039 148.8L223.119 143.2L221.279 145.44V150.16C221.279 150.48 221.346 150.707 221.479 150.84C221.613 150.973 221.839 151.04 222.159 151.04H223.439V152H215.439V151.04Z" fill="#E09844"/>
<path d="M204.658 151.04H206.738C207.058 151.04 207.285 150.973 207.418 150.84C207.552 150.707 207.618 150.48 207.618 150.16V125.36C207.618 125.04 207.552 124.813 207.418 124.68C207.285 124.547 207.058 124.48 206.738 124.48H204.658V123.52H210.498V150.16C210.498 150.48 210.565 150.707 210.698 150.84C210.832 150.973 211.058 151.04 211.378 151.04H213.458V152H204.658V151.04Z" fill="#E09844"/>
<path d="M190.813 152.48C189.4 152.48 188.173 152.134 187.133 151.44C186.12 150.747 185.613 149.52 185.613 147.76C185.613 146.4 185.96 145.334 186.653 144.56C187.347 143.787 188.147 143.24 189.053 142.92C189.987 142.574 191.107 142.28 192.413 142.04L196.093 141.36V137.96C196.093 135.48 194.853 134.24 192.373 134.24C191.467 134.24 190.64 134.48 189.893 134.96C189.147 135.414 188.773 135.934 188.773 136.52C188.773 136.787 188.813 136.987 188.893 137.12C188.947 137.2 189.027 137.28 189.133 137.36C189.267 137.44 189.387 137.494 189.493 137.52C189.973 137.654 190.333 137.84 190.573 138.08C190.84 138.32 190.973 138.654 190.973 139.08C190.973 139.64 190.8 140.04 190.453 140.28C190.133 140.52 189.72 140.64 189.213 140.64C188.627 140.64 188.093 140.414 187.613 139.96C187.133 139.507 186.893 138.854 186.893 138C186.893 137.014 187.16 136.16 187.693 135.44C188.253 134.72 188.96 134.187 189.813 133.84C190.693 133.467 191.587 133.28 192.493 133.28C194.253 133.28 195.773 133.747 197.053 134.68C198.333 135.587 198.973 137.014 198.973 138.96V148.8C198.973 150.134 199.387 150.8 200.213 150.8C200.88 150.8 201.36 150.414 201.653 149.64C201.947 148.867 202.093 147.92 202.093 146.8H202.813C202.813 148.4 202.573 149.747 202.093 150.84C201.64 151.934 200.813 152.48 199.613 152.48C198.467 152.48 197.6 152.147 197.013 151.48C196.453 150.787 196.147 149.84 196.093 148.64L195.893 148.56C195.493 149.494 194.84 150.387 193.933 151.24C193.053 152.067 192.013 152.48 190.813 152.48ZM191.453 151.04C192.653 151.04 193.587 150.574 194.253 149.64C194.947 148.68 195.56 147.467 196.093 146V142.2L192.613 142.96C191.333 143.227 190.4 143.76 189.813 144.56C189.253 145.334 188.973 146.44 188.973 147.88C188.973 149.107 189.227 149.947 189.733 150.4C190.24 150.827 190.813 151.04 191.453 151.04Z" fill="#E09844"/>
<path d="M304.977 408.96C303.777 408.96 302.777 408.533 301.977 407.68C301.204 406.827 300.817 405.667 300.817 404.2V391.36H297.857V390.24H298.737C299.937 390.24 300.871 389.6 301.537 388.32C302.231 387.013 302.577 385.573 302.577 384V382.56H303.697V390.24H308.657V391.36H303.697V404.4C303.697 405.2 303.857 405.867 304.177 406.4C304.497 406.933 305.044 407.2 305.817 407.2C307.711 407.2 308.657 405.6 308.657 402.4H309.377C309.377 404.187 309.111 405.733 308.577 407.04C308.071 408.32 306.871 408.96 304.977 408.96Z" fill="#E09844"/>
<path d="M291.237 385.28C290.65 385.28 290.157 385.08 289.757 384.68C289.357 384.28 289.157 383.787 289.157 383.2C289.157 382.587 289.357 382.093 289.757 381.72C290.157 381.32 290.65 381.12 291.237 381.12C291.85 381.12 292.343 381.32 292.717 381.72C293.117 382.093 293.317 382.587 293.317 383.2C293.317 383.787 293.117 384.28 292.717 384.68C292.343 385.08 291.85 385.28 291.237 385.28ZM287.477 407.52H289.157C289.477 407.52 289.703 407.453 289.837 407.32C289.97 407.187 290.037 406.96 290.037 406.64V392.08C290.037 391.76 289.97 391.533 289.837 391.4C289.703 391.267 289.477 391.2 289.157 391.2H287.477V390.24H292.917V406.64C292.917 406.96 292.983 407.187 293.117 407.32C293.25 407.453 293.477 407.52 293.797 407.52H295.477V408.48H287.477V407.52Z" fill="#E09844"/>
<path d="M276.295 407.52H278.375C278.695 407.52 278.922 407.453 279.055 407.32C279.188 407.187 279.255 406.96 279.255 406.64V381.84C279.255 381.52 279.188 381.293 279.055 381.16C278.922 381.027 278.695 380.96 278.375 380.96H276.295V380H282.135V406.64C282.135 406.96 282.202 407.187 282.335 407.32C282.468 407.453 282.695 407.52 283.015 407.52H285.095V408.48H276.295V407.52Z" fill="#E09844"/>
<path d="M265.252 408.96C263.785 408.96 262.439 408.533 261.212 407.68C259.985 406.8 259.012 405.626 258.292 404.16C257.599 402.693 257.252 401.093 257.252 399.36C257.252 397.626 257.599 396.026 258.292 394.56C259.012 393.093 259.985 391.933 261.212 391.08C262.439 390.2 263.785 389.76 265.252 389.76C266.719 389.76 268.065 390.2 269.292 391.08C270.519 391.933 271.479 393.093 272.172 394.56C272.892 396.026 273.252 397.626 273.252 399.36C273.252 401.093 272.892 402.693 272.172 404.16C271.479 405.626 270.519 406.8 269.292 407.68C268.065 408.533 266.719 408.96 265.252 408.96ZM265.252 408C266.852 408 267.999 407.253 268.692 405.76C269.385 404.24 269.732 402.106 269.732 399.36C269.732 396.613 269.385 394.493 268.692 393C267.999 391.48 266.852 390.72 265.252 390.72C263.652 390.72 262.505 391.48 261.812 393C261.119 394.493 260.772 396.613 260.772 399.36C260.772 402.106 261.119 404.24 261.812 405.76C262.505 407.253 263.652 408 265.252 408Z" fill="#E09844"/>
<path d="M245.408 408.96C243.942 408.96 242.595 408.533 241.368 407.68C240.142 406.8 239.168 405.626 238.448 404.16C237.755 402.693 237.408 401.093 237.408 399.36C237.408 397.626 237.755 396.026 238.448 394.56C239.168 393.093 240.142 391.933 241.368 391.08C242.595 390.2 243.942 389.76 245.408 389.76C246.875 389.76 248.222 390.2 249.448 391.08C250.675 391.933 251.635 393.093 252.328 394.56C253.048 396.026 253.408 397.626 253.408 399.36C253.408 401.093 253.048 402.693 252.328 404.16C251.635 405.626 250.675 406.8 249.448 407.68C248.222 408.533 246.875 408.96 245.408 408.96ZM245.408 408C247.008 408 248.155 407.253 248.848 405.76C249.542 404.24 249.888 402.106 249.888 399.36C249.888 396.613 249.542 394.493 248.848 393C248.155 391.48 247.008 390.72 245.408 390.72C243.808 390.72 242.662 391.48 241.968 393C241.275 394.493 240.928 396.613 240.928 399.36C240.928 402.106 241.275 404.24 241.968 405.76C242.662 407.253 243.808 408 245.408 408Z" fill="#E09844"/>
<path d="M215.826 407.52H217.906C218.226 407.52 218.453 407.453 218.586 407.32C218.72 407.187 218.786 406.96 218.786 406.64V381.84C218.786 381.52 218.72 381.293 218.586 381.16C218.453 381.027 218.226 380.96 217.906 380.96H215.826V380H221.666V400.36L227.106 393.72C227.4 393.4 227.586 393.147 227.666 392.96C227.773 392.773 227.826 392.533 227.826 392.24C227.826 391.893 227.693 391.64 227.426 391.48C227.186 391.293 226.866 391.2 226.466 391.2H225.426V390.24H233.586V391.2H232.306C231.586 391.2 230.946 391.387 230.386 391.76C229.826 392.133 229.186 392.76 228.466 393.64L225.426 397.36L231.666 406.24C231.986 406.693 232.266 407.027 232.506 407.24C232.746 407.427 233.08 407.52 233.506 407.52H234.306V408.48H225.826V407.52H226.866C227.213 407.52 227.48 407.467 227.666 407.36C227.853 407.227 227.946 407.013 227.946 406.72C227.946 406.427 227.906 406.187 227.826 406C227.746 405.813 227.613 405.573 227.426 405.28L223.506 399.68L221.666 401.92V406.64C221.666 406.96 221.733 407.187 221.866 407.32C222 407.453 222.226 407.52 222.546 407.52H223.826V408.48H215.826V407.52Z" fill="#E09844"/>
<path d="M205.045 407.52H207.125C207.445 407.52 207.672 407.453 207.805 407.32C207.938 407.187 208.005 406.96 208.005 406.64V381.84C208.005 381.52 207.938 381.293 207.805 381.16C207.672 381.027 207.445 380.96 207.125 380.96H205.045V380H210.885V406.64C210.885 406.96 210.952 407.187 211.085 407.32C211.218 407.453 211.445 407.52 211.765 407.52H213.845V408.48H205.045V407.52Z" fill="#E09844"/>
<path d="M191.2 408.96C189.787 408.96 188.56 408.613 187.52 407.92C186.507 407.226 186 406 186 404.24C186 402.88 186.347 401.813 187.04 401.04C187.733 400.266 188.533 399.72 189.44 399.4C190.373 399.053 191.493 398.76 192.8 398.52L196.48 397.84V394.44C196.48 391.96 195.24 390.72 192.76 390.72C191.853 390.72 191.027 390.96 190.28 391.44C189.533 391.893 189.16 392.413 189.16 393C189.16 393.266 189.2 393.466 189.28 393.6C189.333 393.68 189.413 393.76 189.52 393.84C189.653 393.92 189.773 393.973 189.88 394C190.36 394.133 190.72 394.32 190.96 394.56C191.227 394.8 191.36 395.133 191.36 395.56C191.36 396.12 191.187 396.52 190.84 396.76C190.52 397 190.107 397.12 189.6 397.12C189.013 397.12 188.48 396.893 188 396.44C187.52 395.986 187.28 395.333 187.28 394.48C187.28 393.493 187.547 392.64 188.08 391.92C188.64 391.2 189.347 390.666 190.2 390.32C191.08 389.946 191.973 389.76 192.88 389.76C194.64 389.76 196.16 390.226 197.44 391.16C198.72 392.066 199.36 393.493 199.36 395.44V405.28C199.36 406.613 199.773 407.28 200.6 407.28C201.267 407.28 201.747 406.893 202.04 406.12C202.333 405.346 202.48 404.4 202.48 403.28H203.2C203.2 404.88 202.96 406.226 202.48 407.32C202.027 408.413 201.2 408.96 200 408.96C198.853 408.96 197.987 408.626 197.4 407.96C196.84 407.266 196.533 406.32 196.48 405.12L196.28 405.04C195.88 405.973 195.227 406.866 194.32 407.72C193.44 408.546 192.4 408.96 191.2 408.96ZM191.84 407.52C193.04 407.52 193.973 407.053 194.64 406.12C195.333 405.16 195.947 403.946 196.48 402.48V398.68L193 399.44C191.72 399.706 190.787 400.24 190.2 401.04C189.64 401.813 189.36 402.92 189.36 404.36C189.36 405.586 189.613 406.426 190.12 406.88C190.627 407.306 191.2 407.52 191.84 407.52Z" fill="#E09844"/>
<path d="M166.817 152.48C165.617 152.48 164.617 152.053 163.817 151.2C163.044 150.347 162.657 149.187 162.657 147.72V134.88H159.697V133.76H160.577C161.777 133.76 162.711 133.12 163.377 131.84C164.071 130.533 164.417 129.093 164.417 127.52V126.08H165.537V133.76H170.497V134.88H165.537V147.92C165.537 148.72 165.697 149.387 166.017 149.92C166.337 150.453 166.884 150.72 167.657 150.72C169.551 150.72 170.497 149.12 170.497 145.92H171.217C171.217 147.707 170.951 149.253 170.417 150.56C169.911 151.84 168.711 152.48 166.817 152.48Z" fill="#E09844"/>
<path d="M153.076 128.8C152.49 128.8 151.996 128.6 151.596 128.2C151.196 127.8 150.996 127.306 150.996 126.72C150.996 126.106 151.196 125.613 151.596 125.24C151.996 124.84 152.49 124.64 153.076 124.64C153.69 124.64 154.183 124.84 154.556 125.24C154.956 125.613 155.156 126.106 155.156 126.72C155.156 127.306 154.956 127.8 154.556 128.2C154.183 128.6 153.69 128.8 153.076 128.8ZM149.316 151.04H150.996C151.316 151.04 151.543 150.973 151.676 150.84C151.81 150.706 151.876 150.48 151.876 150.16V135.6C151.876 135.28 151.81 135.053 151.676 134.92C151.543 134.786 151.316 134.72 150.996 134.72H149.316V133.76H154.756V150.16C154.756 150.48 154.823 150.706 154.956 150.84C155.09 150.973 155.316 151.04 155.636 151.04H157.316V152H149.316V151.04Z" fill="#E09844"/>
<path d="M138.135 151.04H140.215C140.535 151.04 140.761 150.973 140.895 150.84C141.028 150.707 141.095 150.48 141.095 150.16V125.36C141.095 125.04 141.028 124.813 140.895 124.68C140.761 124.547 140.535 124.48 140.215 124.48H138.135V123.52H143.975V150.16C143.975 150.48 144.041 150.707 144.175 150.84C144.308 150.973 144.535 151.04 144.855 151.04H146.935V152H138.135V151.04Z" fill="#E09844"/>
<path d="M127.092 152.48C125.625 152.48 124.278 152.054 123.052 151.2C121.825 150.32 120.852 149.147 120.132 147.68C119.438 146.214 119.092 144.614 119.092 142.88C119.092 141.147 119.438 139.547 120.132 138.08C120.852 136.614 121.825 135.454 123.052 134.6C124.278 133.72 125.625 133.28 127.092 133.28C128.558 133.28 129.905 133.72 131.132 134.6C132.358 135.454 133.318 136.614 134.012 138.08C134.732 139.547 135.092 141.147 135.092 142.88C135.092 144.614 134.732 146.214 134.012 147.68C133.318 149.147 132.358 150.32 131.132 151.2C129.905 152.054 128.558 152.48 127.092 152.48ZM127.092 151.52C128.692 151.52 129.838 150.774 130.532 149.28C131.225 147.76 131.572 145.627 131.572 142.88C131.572 140.134 131.225 138.014 130.532 136.52C129.838 135 128.692 134.24 127.092 134.24C125.492 134.24 124.345 135 123.652 136.52C122.958 138.014 122.612 140.134 122.612 142.88C122.612 145.627 122.958 147.76 123.652 149.28C124.345 150.774 125.492 151.52 127.092 151.52Z" fill="#E09844"/>
<path d="M107.248 152.48C105.781 152.48 104.435 152.054 103.208 151.2C101.981 150.32 101.008 149.147 100.288 147.68C99.5947 146.214 99.248 144.614 99.248 142.88C99.248 141.147 99.5947 139.547 100.288 138.08C101.008 136.614 101.981 135.454 103.208 134.6C104.435 133.72 105.781 133.28 107.248 133.28C108.715 133.28 110.061 133.72 111.288 134.6C112.515 135.454 113.475 136.614 114.168 138.08C114.888 139.547 115.248 141.147 115.248 142.88C115.248 144.614 114.888 146.214 114.168 147.68C113.475 149.147 112.515 150.32 111.288 151.2C110.061 152.054 108.715 152.48 107.248 152.48ZM107.248 151.52C108.848 151.52 109.995 150.774 110.688 149.28C111.381 147.76 111.728 145.627 111.728 142.88C111.728 140.134 111.381 138.014 110.688 136.52C109.995 135 108.848 134.24 107.248 134.24C105.648 134.24 104.501 135 103.808 136.52C103.115 138.014 102.768 140.134 102.768 142.88C102.768 145.627 103.115 147.76 103.808 149.28C104.501 150.774 105.648 151.52 107.248 151.52Z" fill="#E09844"/>
<path d="M77.666 151.04H79.746C80.066 151.04 80.2927 150.973 80.426 150.84C80.5593 150.707 80.626 150.48 80.626 150.16V125.36C80.626 125.04 80.5593 124.813 80.426 124.68C80.2927 124.547 80.066 124.48 79.746 124.48H77.666V123.52H83.506V143.88L88.946 137.24C89.2393 136.92 89.426 136.667 89.506 136.48C89.6127 136.293 89.666 136.053 89.666 135.76C89.666 135.413 89.5327 135.16 89.266 135C89.026 134.813 88.706 134.72 88.306 134.72H87.266V133.76H95.426V134.72H94.146C93.426 134.72 92.786 134.907 92.226 135.28C91.666 135.653 91.026 136.28 90.306 137.16L87.266 140.88L93.506 149.76C93.826 150.213 94.106 150.547 94.346 150.76C94.586 150.947 94.9194 151.04 95.346 151.04H96.146V152H87.666V151.04H88.706C89.0527 151.04 89.3193 150.987 89.506 150.88C89.6927 150.747 89.786 150.533 89.786 150.24C89.786 149.947 89.746 149.707 89.666 149.52C89.586 149.333 89.4527 149.093 89.266 148.8L85.346 143.2L83.506 145.44V150.16C83.506 150.48 83.5727 150.707 83.706 150.84C83.8393 150.973 84.066 151.04 84.386 151.04H85.666V152H77.666V151.04Z" fill="#E09844"/>
<path d="M66.8848 151.04H68.9648C69.2848 151.04 69.5114 150.973 69.6448 150.84C69.7781 150.707 69.8448 150.48 69.8448 150.16V125.36C69.8448 125.04 69.7781 124.813 69.6448 124.68C69.5114 124.547 69.2848 124.48 68.9648 124.48H66.8848V123.52H72.7248V150.16C72.7248 150.48 72.7914 150.707 72.9248 150.84C73.0581 150.973 73.2848 151.04 73.6048 151.04H75.6848V152H66.8848V151.04Z" fill="#E09844"/>
<path d="M53.0398 152.48C51.6265 152.48 50.3998 152.134 49.3598 151.44C48.3465 150.747 47.8398 149.52 47.8398 147.76C47.8398 146.4 48.1865 145.334 48.8798 144.56C49.5732 143.787 50.3732 143.24 51.2798 142.92C52.2132 142.574 53.3332 142.28 54.6398 142.04L58.3198 141.36V137.96C58.3198 135.48 57.0798 134.24 54.5998 134.24C53.6932 134.24 52.8665 134.48 52.1198 134.96C51.3732 135.414 50.9998 135.934 50.9998 136.52C50.9998 136.787 51.0398 136.987 51.1198 137.12C51.1732 137.2 51.2532 137.28 51.3598 137.36C51.4932 137.44 51.6132 137.494 51.7198 137.52C52.1998 137.654 52.5598 137.84 52.7998 138.08C53.0665 138.32 53.1998 138.654 53.1998 139.08C53.1998 139.64 53.0265 140.04 52.6798 140.28C52.3598 140.52 51.9465 140.64 51.4398 140.64C50.8532 140.64 50.3198 140.414 49.8398 139.96C49.3598 139.507 49.1198 138.854 49.1198 138C49.1198 137.014 49.3865 136.16 49.9198 135.44C50.4798 134.72 51.1865 134.187 52.0398 133.84C52.9198 133.467 53.8132 133.28 54.7198 133.28C56.4798 133.28 57.9998 133.747 59.2798 134.68C60.5598 135.587 61.1998 137.014 61.1998 138.96V148.8C61.1998 150.134 61.6132 150.8 62.4398 150.8C63.1065 150.8 63.5865 150.414 63.8798 149.64C64.1732 148.867 64.3198 147.92 64.3198 146.8H65.0398C65.0398 148.4 64.7998 149.747 64.3198 150.84C63.8665 151.934 63.0398 152.48 61.8398 152.48C60.6932 152.48 59.8265 152.147 59.2398 151.48C58.6798 150.787 58.3732 149.84 58.3198 148.64L58.1198 148.56C57.7198 149.494 57.0665 150.387 56.1598 151.24C55.2798 152.067 54.2398 152.48 53.0398 152.48ZM53.6798 151.04C54.8798 151.04 55.8132 150.574 56.4798 149.64C57.1732 148.68 57.7865 147.467 58.3198 146V142.2L54.8398 142.96C53.5598 143.227 52.6265 143.76 52.0398 144.56C51.4798 145.334 51.1998 146.44 51.1998 147.88C51.1998 149.107 51.4532 149.947 51.9598 150.4C52.4665 150.827 53.0398 151.04 53.6798 151.04Z" fill="#E09844"/>
<path d="M179.977 245.96C178.777 245.96 177.777 245.533 176.977 244.68C176.204 243.827 175.817 242.667 175.817 241.2V228.36H172.857V227.24H173.737C174.937 227.24 175.871 226.6 176.537 225.32C177.231 224.013 177.577 222.573 177.577 221V219.56H178.697V227.24H183.657V228.36H178.697V241.4C178.697 242.2 178.857 242.867 179.177 243.4C179.497 243.933 180.044 244.2 180.817 244.2C182.711 244.2 183.657 242.6 183.657 239.4H184.377C184.377 241.187 184.111 242.733 183.577 244.04C183.071 245.32 181.871 245.96 179.977 245.96Z" fill="#E09844"/>
<path d="M166.237 222.28C165.65 222.28 165.157 222.08 164.757 221.68C164.357 221.28 164.157 220.787 164.157 220.2C164.157 219.587 164.357 219.093 164.757 218.72C165.157 218.32 165.65 218.12 166.237 218.12C166.85 218.12 167.343 218.32 167.717 218.72C168.117 219.093 168.317 219.587 168.317 220.2C168.317 220.787 168.117 221.28 167.717 221.68C167.343 222.08 166.85 222.28 166.237 222.28ZM162.477 244.52H164.157C164.477 244.52 164.703 244.453 164.837 244.32C164.97 244.187 165.037 243.96 165.037 243.64V229.08C165.037 228.76 164.97 228.533 164.837 228.4C164.703 228.267 164.477 228.2 164.157 228.2H162.477V227.24H167.917V243.64C167.917 243.96 167.983 244.187 168.117 244.32C168.25 244.453 168.477 244.52 168.797 244.52H170.477V245.48H162.477V244.52Z" fill="#E09844"/>
<path d="M151.295 244.52H153.375C153.695 244.52 153.922 244.453 154.055 244.32C154.188 244.187 154.255 243.96 154.255 243.64V218.84C154.255 218.52 154.188 218.293 154.055 218.16C153.922 218.027 153.695 217.96 153.375 217.96H151.295V217H157.135V243.64C157.135 243.96 157.202 244.187 157.335 244.32C157.468 244.453 157.695 244.52 158.015 244.52H160.095V245.48H151.295V244.52Z" fill="#E09844"/>
<path d="M140.252 245.96C138.785 245.96 137.439 245.533 136.212 244.68C134.985 243.8 134.012 242.626 133.292 241.16C132.599 239.693 132.252 238.093 132.252 236.36C132.252 234.626 132.599 233.026 133.292 231.56C134.012 230.093 134.985 228.933 136.212 228.08C137.439 227.2 138.785 226.76 140.252 226.76C141.719 226.76 143.065 227.2 144.292 228.08C145.519 228.933 146.479 230.093 147.172 231.56C147.892 233.026 148.252 234.626 148.252 236.36C148.252 238.093 147.892 239.693 147.172 241.16C146.479 242.626 145.519 243.8 144.292 244.68C143.065 245.533 141.719 245.96 140.252 245.96ZM140.252 245C141.852 245 142.999 244.253 143.692 242.76C144.385 241.24 144.732 239.106 144.732 236.36C144.732 233.613 144.385 231.493 143.692 230C142.999 228.48 141.852 227.72 140.252 227.72C138.652 227.72 137.505 228.48 136.812 230C136.119 231.493 135.772 233.613 135.772 236.36C135.772 239.106 136.119 241.24 136.812 242.76C137.505 244.253 138.652 245 140.252 245Z" fill="#E09844"/>
<path d="M120.408 245.96C118.942 245.96 117.595 245.533 116.368 244.68C115.142 243.8 114.168 242.626 113.448 241.16C112.755 239.693 112.408 238.093 112.408 236.36C112.408 234.626 112.755 233.026 113.448 231.56C114.168 230.093 115.142 228.933 116.368 228.08C117.595 227.2 118.942 226.76 120.408 226.76C121.875 226.76 123.222 227.2 124.448 228.08C125.675 228.933 126.635 230.093 127.328 231.56C128.048 233.026 128.408 234.626 128.408 236.36C128.408 238.093 128.048 239.693 127.328 241.16C126.635 242.626 125.675 243.8 124.448 244.68C123.222 245.533 121.875 245.96 120.408 245.96ZM120.408 245C122.008 245 123.155 244.253 123.848 242.76C124.542 241.24 124.888 239.106 124.888 236.36C124.888 233.613 124.542 231.493 123.848 230C123.155 228.48 122.008 227.72 120.408 227.72C118.808 227.72 117.662 228.48 116.968 230C116.275 231.493 115.928 233.613 115.928 236.36C115.928 239.106 116.275 241.24 116.968 242.76C117.662 244.253 118.808 245 120.408 245Z" fill="#E09844"/>
<path d="M90.8262 244.52H92.9062C93.2262 244.52 93.4528 244.453 93.5862 244.32C93.7195 244.187 93.7862 243.96 93.7862 243.64V218.84C93.7862 218.52 93.7195 218.293 93.5862 218.16C93.4528 218.027 93.2262 217.96 92.9062 217.96H90.8262V217H96.6662V237.36L102.106 230.72C102.4 230.4 102.586 230.147 102.666 229.96C102.773 229.773 102.826 229.533 102.826 229.24C102.826 228.893 102.693 228.64 102.426 228.48C102.186 228.293 101.866 228.2 101.466 228.2H100.426V227.24H108.586V228.2H107.306C106.586 228.2 105.946 228.387 105.386 228.76C104.826 229.133 104.186 229.76 103.466 230.64L100.426 234.36L106.666 243.24C106.986 243.693 107.266 244.027 107.506 244.24C107.746 244.427 108.08 244.52 108.506 244.52H109.306V245.48H100.826V244.52H101.866C102.213 244.52 102.48 244.467 102.666 244.36C102.853 244.227 102.946 244.013 102.946 243.72C102.946 243.427 102.906 243.187 102.826 243C102.746 242.813 102.613 242.573 102.426 242.28L98.5062 236.68L96.6662 238.92V243.64C96.6662 243.96 96.7328 244.187 96.8662 244.32C96.9995 244.453 97.2262 244.52 97.5462 244.52H98.8262V245.48H90.8262V244.52Z" fill="#E09844"/>
<path d="M80.0449 244.52H82.1249C82.4449 244.52 82.6716 244.453 82.8049 244.32C82.9383 244.187 83.0049 243.96 83.0049 243.64V218.84C83.0049 218.52 82.9383 218.293 82.8049 218.16C82.6716 218.027 82.4449 217.96 82.1249 217.96H80.0449V217H85.8849V243.64C85.8849 243.96 85.9516 244.187 86.0849 244.32C86.2183 244.453 86.4449 244.52 86.7649 244.52H88.8449V245.48H80.0449V244.52Z" fill="#E09844"/>
<path d="M66.2 245.96C64.7867 245.96 63.56 245.613 62.52 244.92C61.5067 244.226 61 243 61 241.24C61 239.88 61.3467 238.813 62.04 238.04C62.7333 237.266 63.5333 236.72 64.44 236.4C65.3733 236.053 66.4933 235.76 67.8 235.52L71.48 234.84V231.44C71.48 228.96 70.24 227.72 67.76 227.72C66.8533 227.72 66.0267 227.96 65.28 228.44C64.5333 228.893 64.16 229.413 64.16 230C64.16 230.266 64.2 230.466 64.28 230.6C64.3333 230.68 64.4133 230.76 64.52 230.84C64.6533 230.92 64.7733 230.973 64.88 231C65.36 231.133 65.72 231.32 65.96 231.56C66.2267 231.8 66.36 232.133 66.36 232.56C66.36 233.12 66.1867 233.52 65.84 233.76C65.52 234 65.1067 234.12 64.6 234.12C64.0133 234.12 63.48 233.893 63 233.44C62.52 232.986 62.28 232.333 62.28 231.48C62.28 230.493 62.5467 229.64 63.08 228.92C63.64 228.2 64.3467 227.666 65.2 227.32C66.08 226.946 66.9733 226.76 67.88 226.76C69.64 226.76 71.16 227.226 72.44 228.16C73.72 229.066 74.36 230.493 74.36 232.44V242.28C74.36 243.613 74.7733 244.28 75.6 244.28C76.2667 244.28 76.7467 243.893 77.04 243.12C77.3333 242.346 77.48 241.4 77.48 240.28H78.2C78.2 241.88 77.96 243.226 77.48 244.32C77.0267 245.413 76.2 245.96 75 245.96C73.8533 245.96 72.9867 245.626 72.4 244.96C71.84 244.266 71.5333 243.32 71.48 242.12L71.28 242.04C70.88 242.973 70.2267 243.866 69.32 244.72C68.44 245.546 67.4 245.96 66.2 245.96ZM66.84 244.52C68.04 244.52 68.9733 244.053 69.64 243.12C70.3333 242.16 70.9467 240.946 71.48 239.48V235.68L68 236.44C66.72 236.706 65.7867 237.24 65.2 238.04C64.64 238.813 64.36 239.92 64.36 241.36C64.36 242.586 64.6133 243.426 65.12 243.88C65.6267 244.306 66.2 244.52 66.84 244.52Z" fill="#E09844"/>
<path d="M337.977 294.96C336.777 294.96 335.777 294.533 334.977 293.68C334.204 292.827 333.817 291.667 333.817 290.2V277.36H330.857V276.24H331.737C332.937 276.24 333.871 275.6 334.537 274.32C335.231 273.013 335.577 271.573 335.577 270V268.56H336.697V276.24H341.657V277.36H336.697V290.4C336.697 291.2 336.857 291.867 337.177 292.4C337.497 292.933 338.044 293.2 338.817 293.2C340.711 293.2 341.657 291.6 341.657 288.4H342.377C342.377 290.187 342.111 291.733 341.577 293.04C341.071 294.32 339.871 294.96 337.977 294.96Z" fill="#E09844"/>
<path d="M324.237 271.28C323.65 271.28 323.157 271.08 322.757 270.68C322.357 270.28 322.157 269.787 322.157 269.2C322.157 268.587 322.357 268.093 322.757 267.72C323.157 267.32 323.65 267.12 324.237 267.12C324.85 267.12 325.343 267.32 325.717 267.72C326.117 268.093 326.317 268.587 326.317 269.2C326.317 269.787 326.117 270.28 325.717 270.68C325.343 271.08 324.85 271.28 324.237 271.28ZM320.477 293.52H322.157C322.477 293.52 322.703 293.453 322.837 293.32C322.97 293.187 323.037 292.96 323.037 292.64V278.08C323.037 277.76 322.97 277.533 322.837 277.4C322.703 277.267 322.477 277.2 322.157 277.2H320.477V276.24H325.917V292.64C325.917 292.96 325.983 293.187 326.117 293.32C326.25 293.453 326.477 293.52 326.797 293.52H328.477V294.48H320.477V293.52Z" fill="#E09844"/>
<path d="M309.295 293.52H311.375C311.695 293.52 311.922 293.453 312.055 293.32C312.188 293.187 312.255 292.96 312.255 292.64V267.84C312.255 267.52 312.188 267.293 312.055 267.16C311.922 267.027 311.695 266.96 311.375 266.96H309.295V266H315.135V292.64C315.135 292.96 315.202 293.187 315.335 293.32C315.468 293.453 315.695 293.52 316.015 293.52H318.095V294.48H309.295V293.52Z" fill="#E09844"/>
<path d="M298.252 294.96C296.785 294.96 295.439 294.533 294.212 293.68C292.985 292.8 292.012 291.626 291.292 290.16C290.599 288.693 290.252 287.093 290.252 285.36C290.252 283.626 290.599 282.026 291.292 280.56C292.012 279.093 292.985 277.933 294.212 277.08C295.439 276.2 296.785 275.76 298.252 275.76C299.719 275.76 301.065 276.2 302.292 277.08C303.519 277.933 304.479 279.093 305.172 280.56C305.892 282.026 306.252 283.626 306.252 285.36C306.252 287.093 305.892 288.693 305.172 290.16C304.479 291.626 303.519 292.8 302.292 293.68C301.065 294.533 299.719 294.96 298.252 294.96ZM298.252 294C299.852 294 300.999 293.253 301.692 291.76C302.385 290.24 302.732 288.106 302.732 285.36C302.732 282.613 302.385 280.493 301.692 279C300.999 277.48 299.852 276.72 298.252 276.72C296.652 276.72 295.505 277.48 294.812 279C294.119 280.493 293.772 282.613 293.772 285.36C293.772 288.106 294.119 290.24 294.812 291.76C295.505 293.253 296.652 294 298.252 294Z" fill="#E09844"/>
<path d="M278.408 294.96C276.942 294.96 275.595 294.533 274.368 293.68C273.142 292.8 272.168 291.626 271.448 290.16C270.755 288.693 270.408 287.093 270.408 285.36C270.408 283.626 270.755 282.026 271.448 280.56C272.168 279.093 273.142 277.933 274.368 277.08C275.595 276.2 276.942 275.76 278.408 275.76C279.875 275.76 281.222 276.2 282.448 277.08C283.675 277.933 284.635 279.093 285.328 280.56C286.048 282.026 286.408 283.626 286.408 285.36C286.408 287.093 286.048 288.693 285.328 290.16C284.635 291.626 283.675 292.8 282.448 293.68C281.222 294.533 279.875 294.96 278.408 294.96ZM278.408 294C280.008 294 281.155 293.253 281.848 291.76C282.542 290.24 282.888 288.106 282.888 285.36C282.888 282.613 282.542 280.493 281.848 279C281.155 277.48 280.008 276.72 278.408 276.72C276.808 276.72 275.662 277.48 274.968 279C274.275 280.493 273.928 282.613 273.928 285.36C273.928 288.106 274.275 290.24 274.968 291.76C275.662 293.253 276.808 294 278.408 294Z" fill="#E09844"/>
<path d="M248.826 293.52H250.906C251.226 293.52 251.453 293.453 251.586 293.32C251.72 293.187 251.786 292.96 251.786 292.64V267.84C251.786 267.52 251.72 267.293 251.586 267.16C251.453 267.027 251.226 266.96 250.906 266.96H248.826V266H254.666V286.36L260.106 279.72C260.4 279.4 260.586 279.147 260.666 278.96C260.773 278.773 260.826 278.533 260.826 278.24C260.826 277.893 260.693 277.64 260.426 277.48C260.186 277.293 259.866 277.2 259.466 277.2H258.426V276.24H266.586V277.2H265.306C264.586 277.2 263.946 277.387 263.386 277.76C262.826 278.133 262.186 278.76 261.466 279.64L258.426 283.36L264.666 292.24C264.986 292.693 265.266 293.027 265.506 293.24C265.746 293.427 266.08 293.52 266.506 293.52H267.306V294.48H258.826V293.52H259.866C260.213 293.52 260.48 293.467 260.666 293.36C260.853 293.227 260.946 293.013 260.946 292.72C260.946 292.427 260.906 292.187 260.826 292C260.746 291.813 260.613 291.573 260.426 291.28L256.506 285.68L254.666 287.92V292.64C254.666 292.96 254.733 293.187 254.866 293.32C255 293.453 255.226 293.52 255.546 293.52H256.826V294.48H248.826V293.52Z" fill="#E09844"/>
<path d="M238.045 293.52H240.125C240.445 293.52 240.672 293.453 240.805 293.32C240.938 293.187 241.005 292.96 241.005 292.64V267.84C241.005 267.52 240.938 267.293 240.805 267.16C240.672 267.027 240.445 266.96 240.125 266.96H238.045V266H243.885V292.64C243.885 292.96 243.952 293.187 244.085 293.32C244.218 293.453 244.445 293.52 244.765 293.52H246.845V294.48H238.045V293.52Z" fill="#E09844"/>
<path d="M224.2 294.96C222.787 294.96 221.56 294.613 220.52 293.92C219.507 293.226 219 292 219 290.24C219 288.88 219.347 287.813 220.04 287.04C220.733 286.266 221.533 285.72 222.44 285.4C223.373 285.053 224.493 284.76 225.8 284.52L229.48 283.84V280.44C229.48 277.96 228.24 276.72 225.76 276.72C224.853 276.72 224.027 276.96 223.28 277.44C222.533 277.893 222.16 278.413 222.16 279C222.16 279.266 222.2 279.466 222.28 279.6C222.333 279.68 222.413 279.76 222.52 279.84C222.653 279.92 222.773 279.973 222.88 280C223.36 280.133 223.72 280.32 223.96 280.56C224.227 280.8 224.36 281.133 224.36 281.56C224.36 282.12 224.187 282.52 223.84 282.76C223.52 283 223.107 283.12 222.6 283.12C222.013 283.12 221.48 282.893 221 282.44C220.52 281.986 220.28 281.333 220.28 280.48C220.28 279.493 220.547 278.64 221.08 277.92C221.64 277.2 222.347 276.666 223.2 276.32C224.08 275.946 224.973 275.76 225.88 275.76C227.64 275.76 229.16 276.226 230.44 277.16C231.72 278.066 232.36 279.493 232.36 281.44V291.28C232.36 292.613 232.773 293.28 233.6 293.28C234.267 293.28 234.747 292.893 235.04 292.12C235.333 291.346 235.48 290.4 235.48 289.28H236.2C236.2 290.88 235.96 292.226 235.48 293.32C235.027 294.413 234.2 294.96 233 294.96C231.853 294.96 230.987 294.626 230.4 293.96C229.84 293.266 229.533 292.32 229.48 291.12L229.28 291.04C228.88 291.973 228.227 292.866 227.32 293.72C226.44 294.546 225.4 294.96 224.2 294.96ZM224.84 293.52C226.04 293.52 226.973 293.053 227.64 292.12C228.333 291.16 228.947 289.946 229.48 288.48V284.68L226 285.44C224.72 285.706 223.787 286.24 223.2 287.04C222.64 287.813 222.36 288.92 222.36 290.36C222.36 291.586 222.613 292.426 223.12 292.88C223.627 293.306 224.2 293.52 224.84 293.52Z" fill="#E09844"/>
<path d="M340.203 190.52H341.883C342.203 190.52 342.43 190.454 342.563 190.32C342.696 190.187 342.763 189.96 342.763 189.64V175.08C342.763 174.76 342.696 174.534 342.563 174.4C342.43 174.267 342.203 174.2 341.883 174.2H340.203V173.24H348.203V174.2H346.523C346.203 174.2 345.976 174.267 345.843 174.4C345.71 174.534 345.643 174.76 345.643 175.08V181.56H350.283C351.403 181.56 352.403 181.787 353.283 182.24C354.163 182.667 354.856 183.267 355.363 184.04C355.87 184.787 356.123 185.614 356.123 186.52C356.123 187.4 355.843 188.227 355.283 189C354.75 189.747 354.03 190.347 353.123 190.8C352.243 191.254 351.296 191.48 350.283 191.48H340.203V190.52ZM349.163 190.52C350.283 190.52 351.136 190.147 351.723 189.4C352.31 188.654 352.603 187.694 352.603 186.52C352.603 185.347 352.296 184.387 351.683 183.64C351.096 182.894 350.256 182.52 349.163 182.52H345.643V189.64C345.643 189.96 345.71 190.187 345.843 190.32C345.976 190.454 346.203 190.52 346.523 190.52H349.163Z" fill="#E09844"/>
<path d="M322.407 191.96C321.207 191.96 320.34 191.614 319.807 190.92C319.273 190.227 319.007 189.52 319.007 188.8C319.007 188.027 319.194 187.4 319.567 186.92C319.967 186.44 320.527 186.2 321.247 186.2C321.807 186.2 322.233 186.387 322.527 186.76C322.847 187.107 323.007 187.534 323.007 188.04C323.007 188.36 322.927 188.667 322.767 188.96C322.607 189.254 322.407 189.454 322.167 189.56C321.847 189.694 321.687 189.974 321.687 190.4C321.687 190.56 321.753 190.707 321.887 190.84C322.047 190.947 322.207 191 322.367 191C323.433 191 324.247 190.454 324.807 189.36C325.367 188.267 325.767 186.454 326.007 183.92L326.367 179.64C326.527 177.667 326.607 176.227 326.607 175.32C326.607 174.92 326.54 174.64 326.407 174.48C326.273 174.294 325.967 174.2 325.487 174.2H323.967V173.24H337.167V174.2H335.487C335.167 174.2 334.94 174.267 334.807 174.4C334.673 174.534 334.607 174.76 334.607 175.08V189.64C334.607 189.96 334.673 190.187 334.807 190.32C334.94 190.454 335.167 190.52 335.487 190.52H337.127V191.48H329.127V190.52H330.847C331.167 190.52 331.393 190.454 331.527 190.32C331.66 190.187 331.727 189.96 331.727 189.64V175.08C331.727 174.76 331.66 174.534 331.527 174.4C331.393 174.267 331.167 174.2 330.847 174.2H329.527C328.887 174.2 328.42 174.44 328.127 174.92C327.86 175.374 327.687 176.094 327.607 177.08L327.007 184.24C326.82 186.694 326.367 188.6 325.647 189.96C324.927 191.294 323.847 191.96 322.407 191.96Z" fill="#E09844"/>
<path d="M308.604 191.96C307.137 191.96 305.79 191.533 304.564 190.68C303.337 189.8 302.363 188.626 301.643 187.16C300.95 185.693 300.604 184.093 300.604 182.36C300.604 180.626 300.95 179.026 301.643 177.56C302.363 176.093 303.337 174.933 304.564 174.08C305.79 173.2 307.137 172.76 308.604 172.76C310.07 172.76 311.417 173.2 312.643 174.08C313.87 174.933 314.83 176.093 315.523 177.56C316.243 179.026 316.604 180.626 316.604 182.36C316.604 184.093 316.243 185.693 315.523 187.16C314.83 188.626 313.87 189.8 312.643 190.68C311.417 191.533 310.07 191.96 308.604 191.96ZM308.604 191C310.204 191 311.35 190.253 312.044 188.76C312.737 187.24 313.083 185.106 313.083 182.36C313.083 179.613 312.737 177.493 312.044 176C311.35 174.48 310.204 173.72 308.604 173.72C307.004 173.72 305.857 174.48 305.164 176C304.47 177.493 304.124 179.613 304.124 182.36C304.124 185.106 304.47 187.24 305.164 188.76C305.857 190.253 307.004 191 308.604 191Z" fill="#E09844"/>
<path d="M284.852 190.52H286.532C286.852 190.52 287.078 190.454 287.212 190.32C287.345 190.187 287.412 189.96 287.412 189.64V175.08C287.412 174.76 287.345 174.534 287.212 174.4C287.078 174.267 286.852 174.2 286.532 174.2H284.852V173.24H298.932L299.172 180.28H298.372C298.372 180.094 298.265 179.574 298.052 178.72C297.865 177.84 297.572 177 297.172 176.2C296.852 175.587 296.398 175.107 295.812 174.76C295.225 174.387 294.505 174.2 293.652 174.2H291.172C290.852 174.2 290.625 174.267 290.492 174.4C290.358 174.534 290.292 174.76 290.292 175.08V189.64C290.292 189.96 290.358 190.187 290.492 190.32C290.625 190.454 290.852 190.52 291.172 190.52H292.852V191.48H284.852V190.52Z" fill="#E09844"/>
<path d="M273.408 191.96C271.942 191.96 270.595 191.533 269.368 190.68C268.142 189.8 267.168 188.626 266.448 187.16C265.755 185.693 265.408 184.093 265.408 182.36C265.408 180.626 265.755 179.026 266.448 177.56C267.168 176.093 268.142 174.933 269.368 174.08C270.595 173.2 271.942 172.76 273.408 172.76C274.875 172.76 276.222 173.2 277.448 174.08C278.675 174.933 279.635 176.093 280.328 177.56C281.048 179.026 281.408 180.626 281.408 182.36C281.408 184.093 281.048 185.693 280.328 187.16C279.635 188.626 278.675 189.8 277.448 190.68C276.222 191.533 274.875 191.96 273.408 191.96ZM273.408 191C275.008 191 276.155 190.253 276.848 188.76C277.542 187.24 277.888 185.106 277.888 182.36C277.888 179.613 277.542 177.493 276.848 176C276.155 174.48 275.008 173.72 273.408 173.72C271.808 173.72 270.662 174.48 269.968 176C269.275 177.493 268.928 179.613 268.928 182.36C268.928 185.106 269.275 187.24 269.968 188.76C270.662 190.253 271.808 191 273.408 191Z" fill="#E09844"/>
<path d="M243.826 190.52H245.906C246.226 190.52 246.453 190.453 246.586 190.32C246.72 190.187 246.786 189.96 246.786 189.64V164.84C246.786 164.52 246.72 164.293 246.586 164.16C246.453 164.027 246.226 163.96 245.906 163.96H243.826V163H249.666V183.36L255.106 176.72C255.4 176.4 255.586 176.147 255.666 175.96C255.773 175.773 255.826 175.533 255.826 175.24C255.826 174.893 255.693 174.64 255.426 174.48C255.186 174.293 254.866 174.2 254.466 174.2H253.426V173.24H261.586V174.2H260.306C259.586 174.2 258.946 174.387 258.386 174.76C257.826 175.133 257.186 175.76 256.466 176.64L253.426 180.36L259.666 189.24C259.986 189.693 260.266 190.027 260.506 190.24C260.746 190.427 261.079 190.52 261.506 190.52H262.306V191.48H253.826V190.52H254.866C255.213 190.52 255.48 190.467 255.666 190.36C255.853 190.227 255.946 190.013 255.946 189.72C255.946 189.427 255.906 189.187 255.826 189C255.746 188.813 255.613 188.573 255.426 188.28L251.506 182.68L249.666 184.92V189.64C249.666 189.96 249.733 190.187 249.866 190.32C250 190.453 250.226 190.52 250.546 190.52H251.826V191.48H243.826V190.52Z" fill="#E09844"/>
<path d="M233.045 190.52H235.125C235.445 190.52 235.672 190.453 235.805 190.32C235.938 190.187 236.005 189.96 236.005 189.64V164.84C236.005 164.52 235.938 164.293 235.805 164.16C235.672 164.027 235.445 163.96 235.125 163.96H233.045V163H238.885V189.64C238.885 189.96 238.952 190.187 239.085 190.32C239.218 190.453 239.445 190.52 239.765 190.52H241.845V191.48H233.045V190.52Z" fill="#E09844"/>
<path d="M219.2 191.96C217.787 191.96 216.56 191.613 215.52 190.92C214.507 190.226 214 189 214 187.24C214 185.88 214.347 184.813 215.04 184.04C215.733 183.266 216.533 182.72 217.44 182.4C218.373 182.053 219.493 181.76 220.8 181.52L224.48 180.84V177.44C224.48 174.96 223.24 173.72 220.76 173.72C219.853 173.72 219.027 173.96 218.28 174.44C217.533 174.893 217.16 175.413 217.16 176C217.16 176.266 217.2 176.466 217.28 176.6C217.333 176.68 217.413 176.76 217.52 176.84C217.653 176.92 217.773 176.973 217.88 177C218.36 177.133 218.72 177.32 218.96 177.56C219.227 177.8 219.36 178.133 219.36 178.56C219.36 179.12 219.187 179.52 218.84 179.76C218.52 180 218.107 180.12 217.6 180.12C217.013 180.12 216.48 179.893 216 179.44C215.52 178.986 215.28 178.333 215.28 177.48C215.28 176.493 215.547 175.64 216.08 174.92C216.64 174.2 217.347 173.666 218.2 173.32C219.08 172.946 219.973 172.76 220.88 172.76C222.64 172.76 224.16 173.226 225.44 174.16C226.72 175.066 227.36 176.493 227.36 178.44V188.28C227.36 189.613 227.773 190.28 228.6 190.28C229.267 190.28 229.747 189.893 230.04 189.12C230.333 188.346 230.48 187.4 230.48 186.28H231.2C231.2 187.88 230.96 189.226 230.48 190.32C230.027 191.413 229.2 191.96 228 191.96C226.853 191.96 225.987 191.626 225.4 190.96C224.84 190.266 224.533 189.32 224.48 188.12L224.28 188.04C223.88 188.973 223.227 189.866 222.32 190.72C221.44 191.546 220.4 191.96 219.2 191.96ZM219.84 190.52C221.04 190.52 221.973 190.053 222.64 189.12C223.333 188.16 223.947 186.946 224.48 185.48V181.68L221 182.44C219.72 182.706 218.787 183.24 218.2 184.04C217.64 184.813 217.36 185.92 217.36 187.36C217.36 188.586 217.613 189.426 218.12 189.88C218.627 190.306 219.2 190.52 219.84 190.52Z" fill="#E09844"/>
<path d="M184.203 348.52H185.883C186.203 348.52 186.43 348.454 186.563 348.32C186.696 348.187 186.763 347.96 186.763 347.64V333.08C186.763 332.76 186.696 332.534 186.563 332.4C186.43 332.267 186.203 332.2 185.883 332.2H184.203V331.24H192.203V332.2H190.523C190.203 332.2 189.976 332.267 189.843 332.4C189.71 332.534 189.643 332.76 189.643 333.08V339.56H194.283C195.403 339.56 196.403 339.787 197.283 340.24C198.163 340.667 198.856 341.267 199.363 342.04C199.87 342.787 200.123 343.614 200.123 344.52C200.123 345.4 199.843 346.227 199.283 347C198.75 347.747 198.03 348.347 197.123 348.8C196.243 349.254 195.296 349.48 194.283 349.48H184.203V348.52ZM193.163 348.52C194.283 348.52 195.136 348.147 195.723 347.4C196.31 346.654 196.603 345.694 196.603 344.52C196.603 343.347 196.296 342.387 195.683 341.64C195.096 340.894 194.256 340.52 193.163 340.52H189.643V347.64C189.643 347.96 189.71 348.187 189.843 348.32C189.976 348.454 190.203 348.52 190.523 348.52H193.163Z" fill="#E09844"/>
<path d="M166.407 349.96C165.207 349.96 164.34 349.614 163.807 348.92C163.273 348.227 163.007 347.52 163.007 346.8C163.007 346.027 163.194 345.4 163.567 344.92C163.967 344.44 164.527 344.2 165.247 344.2C165.807 344.2 166.233 344.387 166.527 344.76C166.847 345.107 167.007 345.534 167.007 346.04C167.007 346.36 166.927 346.667 166.767 346.96C166.607 347.254 166.407 347.454 166.167 347.56C165.847 347.694 165.687 347.974 165.687 348.4C165.687 348.56 165.753 348.707 165.887 348.84C166.047 348.947 166.207 349 166.367 349C167.433 349 168.247 348.454 168.807 347.36C169.367 346.267 169.767 344.454 170.007 341.92L170.367 337.64C170.527 335.667 170.607 334.227 170.607 333.32C170.607 332.92 170.54 332.64 170.407 332.48C170.273 332.294 169.967 332.2 169.487 332.2H167.967V331.24H181.167V332.2H179.487C179.167 332.2 178.94 332.267 178.807 332.4C178.673 332.534 178.607 332.76 178.607 333.08V347.64C178.607 347.96 178.673 348.187 178.807 348.32C178.94 348.454 179.167 348.52 179.487 348.52H181.127V349.48H173.127V348.52H174.847C175.167 348.52 175.393 348.454 175.527 348.32C175.66 348.187 175.727 347.96 175.727 347.64V333.08C175.727 332.76 175.66 332.534 175.527 332.4C175.393 332.267 175.167 332.2 174.847 332.2H173.527C172.887 332.2 172.42 332.44 172.127 332.92C171.86 333.374 171.687 334.094 171.607 335.08L171.007 342.24C170.82 344.694 170.367 346.6 169.647 347.96C168.927 349.294 167.847 349.96 166.407 349.96Z" fill="#E09844"/>
<path d="M152.604 349.96C151.137 349.96 149.79 349.533 148.564 348.68C147.337 347.8 146.363 346.626 145.643 345.16C144.95 343.693 144.604 342.093 144.604 340.36C144.604 338.626 144.95 337.026 145.643 335.56C146.363 334.093 147.337 332.933 148.564 332.08C149.79 331.2 151.137 330.76 152.604 330.76C154.07 330.76 155.417 331.2 156.643 332.08C157.87 332.933 158.83 334.093 159.523 335.56C160.243 337.026 160.604 338.626 160.604 340.36C160.604 342.093 160.243 343.693 159.523 345.16C158.83 346.626 157.87 347.8 156.643 348.68C155.417 349.533 154.07 349.96 152.604 349.96ZM152.604 349C154.204 349 155.35 348.253 156.044 346.76C156.737 345.24 157.083 343.106 157.083 340.36C157.083 337.613 156.737 335.493 156.044 334C155.35 332.48 154.204 331.72 152.604 331.72C151.004 331.72 149.857 332.48 149.164 334C148.47 335.493 148.124 337.613 148.124 340.36C148.124 343.106 148.47 345.24 149.164 346.76C149.857 348.253 151.004 349 152.604 349Z" fill="#E09844"/>
<path d="M128.852 348.52H130.532C130.852 348.52 131.078 348.454 131.212 348.32C131.345 348.187 131.412 347.96 131.412 347.64V333.08C131.412 332.76 131.345 332.534 131.212 332.4C131.078 332.267 130.852 332.2 130.532 332.2H128.852V331.24H142.932L143.172 338.28H142.372C142.372 338.094 142.265 337.574 142.052 336.72C141.865 335.84 141.572 335 141.172 334.2C140.852 333.587 140.398 333.107 139.812 332.76C139.225 332.387 138.505 332.2 137.652 332.2H135.172C134.852 332.2 134.625 332.267 134.492 332.4C134.358 332.534 134.292 332.76 134.292 333.08V347.64C134.292 347.96 134.358 348.187 134.492 348.32C134.625 348.454 134.852 348.52 135.172 348.52H136.852V349.48H128.852V348.52Z" fill="#E09844"/>
<path d="M117.408 349.96C115.942 349.96 114.595 349.533 113.368 348.68C112.142 347.8 111.168 346.626 110.448 345.16C109.755 343.693 109.408 342.093 109.408 340.36C109.408 338.626 109.755 337.026 110.448 335.56C111.168 334.093 112.142 332.933 113.368 332.08C114.595 331.2 115.942 330.76 117.408 330.76C118.875 330.76 120.222 331.2 121.448 332.08C122.675 332.933 123.635 334.093 124.328 335.56C125.048 337.026 125.408 338.626 125.408 340.36C125.408 342.093 125.048 343.693 124.328 345.16C123.635 346.626 122.675 347.8 121.448 348.68C120.222 349.533 118.875 349.96 117.408 349.96ZM117.408 349C119.008 349 120.155 348.253 120.848 346.76C121.542 345.24 121.888 343.106 121.888 340.36C121.888 337.613 121.542 335.493 120.848 334C120.155 332.48 119.008 331.72 117.408 331.72C115.808 331.72 114.662 332.48 113.968 334C113.275 335.493 112.928 337.613 112.928 340.36C112.928 343.106 113.275 345.24 113.968 346.76C114.662 348.253 115.808 349 117.408 349Z" fill="#E09844"/>
<path d="M87.8262 348.52H89.9062C90.2262 348.52 90.4528 348.453 90.5862 348.32C90.7195 348.187 90.7862 347.96 90.7862 347.64V322.84C90.7862 322.52 90.7195 322.293 90.5862 322.16C90.4528 322.027 90.2262 321.96 89.9062 321.96H87.8262V321H93.6662V341.36L99.1062 334.72C99.3995 334.4 99.5862 334.147 99.6662 333.96C99.7728 333.773 99.8262 333.533 99.8262 333.24C99.8262 332.893 99.6928 332.64 99.4262 332.48C99.1862 332.293 98.8662 332.2 98.4662 332.2H97.4262V331.24H105.586V332.2H104.306C103.586 332.2 102.946 332.387 102.386 332.76C101.826 333.133 101.186 333.76 100.466 334.64L97.4262 338.36L103.666 347.24C103.986 347.693 104.266 348.027 104.506 348.24C104.746 348.427 105.079 348.52 105.506 348.52H106.306V349.48H97.8262V348.52H98.8662C99.2128 348.52 99.4795 348.467 99.6662 348.36C99.8528 348.227 99.9462 348.013 99.9462 347.72C99.9462 347.427 99.9062 347.187 99.8262 347C99.7462 346.813 99.6128 346.573 99.4262 346.28L95.5062 340.68L93.6662 342.92V347.64C93.6662 347.96 93.7328 348.187 93.8662 348.32C93.9995 348.453 94.2262 348.52 94.5462 348.52H95.8262V349.48H87.8262V348.52Z" fill="#E09844"/>
<path d="M77.0449 348.52H79.1249C79.4449 348.52 79.6716 348.453 79.8049 348.32C79.9383 348.187 80.0049 347.96 80.0049 347.64V322.84C80.0049 322.52 79.9383 322.293 79.8049 322.16C79.6716 322.027 79.4449 321.96 79.1249 321.96H77.0449V321H82.8849V347.64C82.8849 347.96 82.9516 348.187 83.0849 348.32C83.2183 348.453 83.4449 348.52 83.7649 348.52H85.8449V349.48H77.0449V348.52Z" fill="#E09844"/>
<path d="M63.2 349.96C61.7867 349.96 60.56 349.613 59.52 348.92C58.5067 348.226 58 347 58 345.24C58 343.88 58.3467 342.813 59.04 342.04C59.7333 341.266 60.5333 340.72 61.44 340.4C62.3733 340.053 63.4934 339.76 64.8 339.52L68.48 338.84V335.44C68.48 332.96 67.24 331.72 64.76 331.72C63.8533 331.72 63.0267 331.96 62.28 332.44C61.5333 332.893 61.16 333.413 61.16 334C61.16 334.266 61.2 334.466 61.28 334.6C61.3333 334.68 61.4133 334.76 61.52 334.84C61.6533 334.92 61.7733 334.973 61.88 335C62.36 335.133 62.72 335.32 62.96 335.56C63.2267 335.8 63.36 336.133 63.36 336.56C63.36 337.12 63.1867 337.52 62.84 337.76C62.52 338 62.1067 338.12 61.6 338.12C61.0133 338.12 60.48 337.893 60 337.44C59.52 336.986 59.28 336.333 59.28 335.48C59.28 334.493 59.5467 333.64 60.08 332.92C60.64 332.2 61.3467 331.666 62.2 331.32C63.08 330.946 63.9733 330.76 64.88 330.76C66.64 330.76 68.16 331.226 69.44 332.16C70.72 333.066 71.36 334.493 71.36 336.44V346.28C71.36 347.613 71.7733 348.28 72.6 348.28C73.2667 348.28 73.7467 347.893 74.04 347.12C74.3333 346.346 74.48 345.4 74.48 344.28H75.2C75.2 345.88 74.96 347.226 74.48 348.32C74.0267 349.413 73.2 349.96 72 349.96C70.8533 349.96 69.9867 349.626 69.4 348.96C68.84 348.266 68.5333 347.32 68.48 346.12L68.28 346.04C67.88 346.973 67.2267 347.866 66.32 348.72C65.44 349.546 64.4 349.96 63.2 349.96ZM63.84 348.52C65.04 348.52 65.9733 348.053 66.64 347.12C67.3333 346.16 67.9467 344.946 68.48 343.48V339.68L65 340.44C63.72 340.706 62.7867 341.24 62.2 342.04C61.64 342.813 61.36 343.92 61.36 345.36C61.36 346.586 61.6133 347.426 62.12 347.88C62.6267 348.306 63.2 348.52 63.84 348.52Z" fill="#E09844"/>
<path d="M427.203 220.52H428.883C429.203 220.52 429.43 220.454 429.563 220.32C429.696 220.187 429.763 219.96 429.763 219.64V205.08C429.763 204.76 429.696 204.534 429.563 204.4C429.43 204.267 429.203 204.2 428.883 204.2H427.203V203.24H435.203V204.2H433.523C433.203 204.2 432.976 204.267 432.843 204.4C432.71 204.534 432.643 204.76 432.643 205.08V211.56H437.283C438.403 211.56 439.403 211.787 440.283 212.24C441.163 212.667 441.856 213.267 442.363 214.04C442.87 214.787 443.123 215.614 443.123 216.52C443.123 217.4 442.843 218.227 442.283 219C441.75 219.747 441.03 220.347 440.123 220.8C439.243 221.254 438.296 221.48 437.283 221.48H427.203V220.52ZM436.163 220.52C437.283 220.52 438.136 220.147 438.723 219.4C439.31 218.654 439.603 217.694 439.603 216.52C439.603 215.347 439.296 214.387 438.683 213.64C438.096 212.894 437.256 212.52 436.163 212.52H432.643V219.64C432.643 219.96 432.71 220.187 432.843 220.32C432.976 220.454 433.203 220.52 433.523 220.52H436.163Z" fill="#E09844"/>
<path d="M409.407 221.96C408.207 221.96 407.34 221.614 406.807 220.92C406.273 220.227 406.007 219.52 406.007 218.8C406.007 218.027 406.194 217.4 406.567 216.92C406.967 216.44 407.527 216.2 408.247 216.2C408.807 216.2 409.233 216.387 409.527 216.76C409.847 217.107 410.007 217.534 410.007 218.04C410.007 218.36 409.927 218.667 409.767 218.96C409.607 219.254 409.407 219.454 409.167 219.56C408.847 219.694 408.687 219.974 408.687 220.4C408.687 220.56 408.753 220.707 408.887 220.84C409.047 220.947 409.207 221 409.367 221C410.433 221 411.247 220.454 411.807 219.36C412.367 218.267 412.767 216.454 413.007 213.92L413.367 209.64C413.527 207.667 413.607 206.227 413.607 205.32C413.607 204.92 413.54 204.64 413.407 204.48C413.273 204.294 412.967 204.2 412.487 204.2H410.967V203.24H424.167V204.2H422.487C422.167 204.2 421.94 204.267 421.807 204.4C421.673 204.534 421.607 204.76 421.607 205.08V219.64C421.607 219.96 421.673 220.187 421.807 220.32C421.94 220.454 422.167 220.52 422.487 220.52H424.127V221.48H416.127V220.52H417.847C418.167 220.52 418.393 220.454 418.527 220.32C418.66 220.187 418.727 219.96 418.727 219.64V205.08C418.727 204.76 418.66 204.534 418.527 204.4C418.393 204.267 418.167 204.2 417.847 204.2H416.527C415.887 204.2 415.42 204.44 415.127 204.92C414.86 205.374 414.687 206.094 414.607 207.08L414.007 214.24C413.82 216.694 413.367 218.6 412.647 219.96C411.927 221.294 410.847 221.96 409.407 221.96Z" fill="#E09844"/>
<path d="M395.604 221.96C394.137 221.96 392.79 221.533 391.564 220.68C390.337 219.8 389.363 218.626 388.643 217.16C387.95 215.693 387.604 214.093 387.604 212.36C387.604 210.626 387.95 209.026 388.643 207.56C389.363 206.093 390.337 204.933 391.564 204.08C392.79 203.2 394.137 202.76 395.604 202.76C397.07 202.76 398.417 203.2 399.643 204.08C400.87 204.933 401.83 206.093 402.523 207.56C403.243 209.026 403.604 210.626 403.604 212.36C403.604 214.093 403.243 215.693 402.523 217.16C401.83 218.626 400.87 219.8 399.643 220.68C398.417 221.533 397.07 221.96 395.604 221.96ZM395.604 221C397.204 221 398.35 220.253 399.044 218.76C399.737 217.24 400.083 215.106 400.083 212.36C400.083 209.613 399.737 207.493 399.044 206C398.35 204.48 397.204 203.72 395.604 203.72C394.004 203.72 392.857 204.48 392.164 206C391.47 207.493 391.124 209.613 391.124 212.36C391.124 215.106 391.47 217.24 392.164 218.76C392.857 220.253 394.004 221 395.604 221Z" fill="#E09844"/>
<path d="M371.852 220.52H373.532C373.852 220.52 374.078 220.454 374.212 220.32C374.345 220.187 374.412 219.96 374.412 219.64V205.08C374.412 204.76 374.345 204.534 374.212 204.4C374.078 204.267 373.852 204.2 373.532 204.2H371.852V203.24H385.932L386.172 210.28H385.372C385.372 210.094 385.265 209.574 385.052 208.72C384.865 207.84 384.572 207 384.172 206.2C383.852 205.587 383.398 205.107 382.812 204.76C382.225 204.387 381.505 204.2 380.652 204.2H378.172C377.852 204.2 377.625 204.267 377.492 204.4C377.358 204.534 377.292 204.76 377.292 205.08V219.64C377.292 219.96 377.358 220.187 377.492 220.32C377.625 220.454 377.852 220.52 378.172 220.52H379.852V221.48H371.852V220.52Z" fill="#E09844"/>
<path d="M360.408 221.96C358.942 221.96 357.595 221.533 356.368 220.68C355.142 219.8 354.168 218.626 353.448 217.16C352.755 215.693 352.408 214.093 352.408 212.36C352.408 210.626 352.755 209.026 353.448 207.56C354.168 206.093 355.142 204.933 356.368 204.08C357.595 203.2 358.942 202.76 360.408 202.76C361.875 202.76 363.222 203.2 364.448 204.08C365.675 204.933 366.635 206.093 367.328 207.56C368.048 209.026 368.408 210.626 368.408 212.36C368.408 214.093 368.048 215.693 367.328 217.16C366.635 218.626 365.675 219.8 364.448 220.68C363.222 221.533 361.875 221.96 360.408 221.96ZM360.408 221C362.008 221 363.155 220.253 363.848 218.76C364.542 217.24 364.888 215.106 364.888 212.36C364.888 209.613 364.542 207.493 363.848 206C363.155 204.48 362.008 203.72 360.408 203.72C358.808 203.72 357.662 204.48 356.968 206C356.275 207.493 355.928 209.613 355.928 212.36C355.928 215.106 356.275 217.24 356.968 218.76C357.662 220.253 358.808 221 360.408 221Z" fill="#E09844"/>
<path d="M330.826 220.52H332.906C333.226 220.52 333.453 220.453 333.586 220.32C333.72 220.187 333.786 219.96 333.786 219.64V194.84C333.786 194.52 333.72 194.293 333.586 194.16C333.453 194.027 333.226 193.96 332.906 193.96H330.826V193H336.666V213.36L342.106 206.72C342.4 206.4 342.586 206.147 342.666 205.96C342.773 205.773 342.826 205.533 342.826 205.24C342.826 204.893 342.693 204.64 342.426 204.48C342.186 204.293 341.866 204.2 341.466 204.2H340.426V203.24H348.586V204.2H347.306C346.586 204.2 345.946 204.387 345.386 204.76C344.826 205.133 344.186 205.76 343.466 206.64L340.426 210.36L346.666 219.24C346.986 219.693 347.266 220.027 347.506 220.24C347.746 220.427 348.079 220.52 348.506 220.52H349.306V221.48H340.826V220.52H341.866C342.213 220.52 342.48 220.467 342.666 220.36C342.853 220.227 342.946 220.013 342.946 219.72C342.946 219.427 342.906 219.187 342.826 219C342.746 218.813 342.613 218.573 342.426 218.28L338.506 212.68L336.666 214.92V219.64C336.666 219.96 336.733 220.187 336.866 220.32C337 220.453 337.226 220.52 337.546 220.52H338.826V221.48H330.826V220.52Z" fill="#E09844"/>
<path d="M320.045 220.52H322.125C322.445 220.52 322.672 220.453 322.805 220.32C322.938 220.187 323.005 219.96 323.005 219.64V194.84C323.005 194.52 322.938 194.293 322.805 194.16C322.672 194.027 322.445 193.96 322.125 193.96H320.045V193H325.885V219.64C325.885 219.96 325.952 220.187 326.085 220.32C326.218 220.453 326.445 220.52 326.765 220.52H328.845V221.48H320.045V220.52Z" fill="#E09844"/>
<path d="M306.2 221.96C304.787 221.96 303.56 221.613 302.52 220.92C301.507 220.226 301 219 301 217.24C301 215.88 301.347 214.813 302.04 214.04C302.733 213.266 303.533 212.72 304.44 212.4C305.373 212.053 306.493 211.76 307.8 211.52L311.48 210.84V207.44C311.48 204.96 310.24 203.72 307.76 203.72C306.853 203.72 306.027 203.96 305.28 204.44C304.533 204.893 304.16 205.413 304.16 206C304.16 206.266 304.2 206.466 304.28 206.6C304.333 206.68 304.413 206.76 304.52 206.84C304.653 206.92 304.773 206.973 304.88 207C305.36 207.133 305.72 207.32 305.96 207.56C306.227 207.8 306.36 208.133 306.36 208.56C306.36 209.12 306.187 209.52 305.84 209.76C305.52 210 305.107 210.12 304.6 210.12C304.013 210.12 303.48 209.893 303 209.44C302.52 208.986 302.28 208.333 302.28 207.48C302.28 206.493 302.547 205.64 303.08 204.92C303.64 204.2 304.347 203.666 305.2 203.32C306.08 202.946 306.973 202.76 307.88 202.76C309.64 202.76 311.16 203.226 312.44 204.16C313.72 205.066 314.36 206.493 314.36 208.44V218.28C314.36 219.613 314.773 220.28 315.6 220.28C316.267 220.28 316.747 219.893 317.04 219.12C317.333 218.346 317.48 217.4 317.48 216.28H318.2C318.2 217.88 317.96 219.226 317.48 220.32C317.027 221.413 316.2 221.96 315 221.96C313.853 221.96 312.987 221.626 312.4 220.96C311.84 220.266 311.533 219.32 311.48 218.12L311.28 218.04C310.88 218.973 310.227 219.866 309.32 220.72C308.44 221.546 307.4 221.96 306.2 221.96ZM306.84 220.52C308.04 220.52 308.973 220.053 309.64 219.12C310.333 218.16 310.947 216.946 311.48 215.48V211.68L308 212.44C306.72 212.706 305.787 213.24 305.2 214.04C304.64 214.813 304.36 215.92 304.36 217.36C304.36 218.586 304.613 219.426 305.12 219.88C305.627 220.306 306.2 220.52 306.84 220.52Z" fill="#E09844"/>
<path d="M392.973 81.0802C392.466 81.0802 392.013 80.8936 391.613 80.5202C391.239 80.1202 391.053 79.6669 391.053 79.1602C391.053 78.6269 391.239 78.1736 391.613 77.8002C392.013 77.4269 392.466 77.2402 392.973 77.2402C393.506 77.2402 393.959 77.4269 394.333 77.8002C394.706 78.1736 394.893 78.6269 394.893 79.1602C394.893 79.6669 394.706 80.1202 394.333 80.5202C393.959 80.8936 393.506 81.0802 392.973 81.0802ZM400.493 81.0802C399.986 81.0802 399.533 80.8936 399.133 80.5202C398.759 80.1202 398.573 79.6669 398.573 79.1602C398.573 78.6269 398.759 78.1736 399.133 77.8002C399.533 77.4269 399.986 77.2402 400.493 77.2402C401.026 77.2402 401.479 77.4269 401.853 77.8002C402.226 78.1736 402.413 78.6269 402.413 79.1602C402.413 79.6669 402.226 80.1202 401.853 80.5202C401.479 80.8936 401.026 81.0802 400.493 81.0802ZM397.293 103.48C394.813 103.48 392.813 102.64 391.293 100.96C389.799 99.2802 389.053 96.9469 389.053 93.9602C389.053 92.2536 389.386 90.6669 390.053 89.2002C390.719 87.7069 391.639 86.5202 392.813 85.6402C394.013 84.7336 395.346 84.2802 396.813 84.2802C398.439 84.2802 399.773 84.7202 400.813 85.6002C401.853 86.4802 402.599 87.6002 403.053 88.9602C403.533 90.2936 403.773 91.6669 403.773 93.0802C403.773 93.3736 403.679 93.5736 403.493 93.6802C403.306 93.7602 402.986 93.8002 402.533 93.8002H392.573C392.573 96.4669 392.946 98.5869 393.693 100.16C394.466 101.734 395.719 102.52 397.453 102.52C398.679 102.52 399.826 102.054 400.893 101.12C401.986 100.187 402.679 98.7336 402.973 96.7602H403.933C403.773 98.7069 403.093 100.32 401.893 101.6C400.719 102.854 399.186 103.48 397.293 103.48ZM400.333 92.8402C400.333 90.7069 400.053 88.9069 399.493 87.4402C398.933 85.9736 398.013 85.2402 396.733 85.2402C395.373 85.2402 394.333 85.9869 393.613 87.4802C392.919 88.9469 392.573 90.7336 392.573 92.8402H400.333Z" fill="#E09844"/>
<path d="M372.246 102.04H373.926C374.246 102.04 374.473 101.974 374.606 101.84C374.739 101.707 374.806 101.48 374.806 101.16V86.6003C374.806 86.2803 374.739 86.0536 374.606 85.9203C374.473 85.7869 374.246 85.7203 373.926 85.7203H372.246V84.7603H377.686V88.7603L377.846 88.8003C378.406 87.4136 379.126 86.3203 380.006 85.5203C380.913 84.6936 381.873 84.2803 382.886 84.2803C383.899 84.2803 384.726 84.5736 385.366 85.1603C386.006 85.7469 386.326 86.5469 386.326 87.5603C386.326 88.1469 386.113 88.7203 385.686 89.2803C385.286 89.8403 384.766 90.1203 384.126 90.1203C383.619 90.1203 383.193 89.9869 382.846 89.7203C382.499 89.4536 382.326 89.0803 382.326 88.6003C382.326 88.0403 382.593 87.5603 383.126 87.1603C383.366 87.0003 383.539 86.8536 383.646 86.7203C383.779 86.5869 383.846 86.4136 383.846 86.2003C383.846 85.9603 383.726 85.7736 383.486 85.6403C383.273 85.4803 382.966 85.4003 382.566 85.4003C381.739 85.4003 380.939 85.8003 380.166 86.6003C379.419 87.4003 378.819 88.4403 378.366 89.7203C377.913 91.0003 377.686 92.3336 377.686 93.7203V101.16C377.686 101.48 377.753 101.707 377.886 101.84C378.019 101.974 378.246 102.04 378.566 102.04H380.246V103H372.246V102.04Z" fill="#E09844"/>
<path d="M362.488 103.48C360.008 103.48 358.008 102.64 356.488 100.96C354.995 99.2803 354.248 96.9469 354.248 93.9603C354.248 92.2536 354.581 90.6669 355.248 89.2003C355.915 87.7069 356.835 86.5203 358.008 85.6403C359.208 84.7336 360.541 84.2803 362.008 84.2803C363.635 84.2803 364.968 84.7203 366.008 85.6003C367.048 86.4803 367.795 87.6003 368.248 88.9603C368.728 90.2936 368.968 91.6669 368.968 93.0803C368.968 93.3736 368.875 93.5736 368.688 93.6803C368.501 93.7603 368.181 93.8003 367.728 93.8003H357.768C357.768 96.4669 358.141 98.5869 358.888 100.16C359.661 101.734 360.915 102.52 362.648 102.52C363.875 102.52 365.021 102.054 366.088 101.12C367.181 100.187 367.875 98.7336 368.168 96.7603H369.128C368.968 98.7069 368.288 100.32 367.088 101.6C365.915 102.854 364.381 103.48 362.488 103.48ZM365.528 92.8403C365.528 90.7069 365.248 88.9069 364.688 87.4403C364.128 85.9736 363.208 85.2403 361.928 85.2403C360.568 85.2403 359.528 85.9869 358.808 87.4803C358.115 88.9469 357.768 90.7336 357.768 92.8403H365.528Z" fill="#E09844"/>
<path d="M336.991 87.7198C336.724 87.0264 336.444 86.5198 336.151 86.1998C335.884 85.8798 335.471 85.7198 334.911 85.7198H333.751V84.7598H342.391V85.7198H341.271C340.951 85.7198 340.658 85.8131 340.391 85.9998C340.124 86.1598 339.991 86.3864 339.991 86.6798C339.991 87.1331 340.071 87.5731 340.231 87.9998L344.711 98.7998L347.951 89.3198C348.058 88.9998 348.151 88.6398 348.231 88.2398C348.338 87.8398 348.391 87.5198 348.391 87.2798C348.391 86.8264 348.258 86.4531 347.991 86.1598C347.724 85.8664 347.378 85.7198 346.951 85.7198H345.991V84.7598H353.271V85.7198H352.351C351.764 85.7198 351.218 85.9198 350.711 86.3198C350.231 86.6931 349.858 87.2798 349.591 88.0798L344.311 103.48H343.591L336.991 87.7198Z" fill="#E09844"/>
<path d="M311.896 103.48C310.43 103.48 309.083 103.054 307.856 102.2C306.63 101.32 305.656 100.147 304.936 98.6803C304.243 97.2136 303.896 95.6136 303.896 93.8803C303.896 92.1469 304.243 90.5469 304.936 89.0803C305.656 87.6136 306.63 86.4536 307.856 85.6003C309.083 84.7203 310.43 84.2803 311.896 84.2803C313.363 84.2803 314.71 84.7203 315.936 85.6003C317.163 86.4536 318.123 87.6136 318.816 89.0803C319.536 90.5469 319.896 92.1469 319.896 93.8803C319.896 95.6136 319.536 97.2136 318.816 98.6803C318.123 100.147 317.163 101.32 315.936 102.2C314.71 103.054 313.363 103.48 311.896 103.48ZM311.896 102.52C313.496 102.52 314.643 101.774 315.336 100.28C316.03 98.7603 316.376 96.6269 316.376 93.8803C316.376 91.1336 316.03 89.0136 315.336 87.5203C314.643 86.0003 313.496 85.2403 311.896 85.2403C310.296 85.2403 309.15 86.0003 308.456 87.5203C307.763 89.0136 307.416 91.1336 307.416 93.8803C307.416 96.6269 307.763 98.7603 308.456 100.28C309.15 101.774 310.296 102.52 311.896 102.52Z" fill="#E09844"/>
<path d="M281.895 102.04H283.575C283.895 102.04 284.121 101.974 284.255 101.84C284.388 101.707 284.455 101.48 284.455 101.16V86.6003C284.455 86.2803 284.388 86.0536 284.255 85.9203C284.121 85.7869 283.895 85.7203 283.575 85.7203H281.895V84.7603H287.335V88.0403L287.495 88.0803C288.108 86.8003 288.868 85.8536 289.775 85.2403C290.681 84.6003 291.681 84.2803 292.775 84.2803C294.721 84.2803 296.095 84.8803 296.895 86.0803C297.721 87.2803 298.135 88.7203 298.135 90.4003V101.16C298.135 101.48 298.201 101.707 298.335 101.84C298.468 101.974 298.695 102.04 299.015 102.04H300.695V103H292.695V102.04H294.375C294.695 102.04 294.921 101.974 295.055 101.84C295.188 101.707 295.255 101.48 295.255 101.16V89.6403C295.255 88.4669 295.015 87.4669 294.535 86.6403C294.081 85.8136 293.295 85.4003 292.175 85.4003C291.241 85.4003 290.401 85.7336 289.655 86.4003C288.935 87.0403 288.361 87.9336 287.935 89.0803C287.535 90.2003 287.335 91.4536 287.335 92.8403V101.16C287.335 101.48 287.401 101.707 287.535 101.84C287.668 101.974 287.895 102.04 288.215 102.04H289.895V103H281.895V102.04Z" fill="#E09844"/>
<path d="M274.873 79.7996C274.287 79.7996 273.793 79.5996 273.393 79.1996C272.993 78.7996 272.793 78.3063 272.793 77.7196C272.793 77.1063 272.993 76.613 273.393 76.2396C273.793 75.8396 274.287 75.6396 274.873 75.6396C275.487 75.6396 275.98 75.8396 276.353 76.2396C276.753 76.613 276.953 77.1063 276.953 77.7196C276.953 78.3063 276.753 78.7996 276.353 79.1996C275.98 79.5996 275.487 79.7996 274.873 79.7996ZM271.113 102.04H272.793C273.113 102.04 273.34 101.973 273.473 101.84C273.607 101.706 273.673 101.48 273.673 101.16V86.5996C273.673 86.2796 273.607 86.053 273.473 85.9196C273.34 85.7863 273.113 85.7196 272.793 85.7196H271.113V84.7596H276.553V101.16C276.553 101.48 276.62 101.706 276.753 101.84C276.887 101.973 277.113 102.04 277.433 102.04H279.113V103H271.113V102.04Z" fill="#E09844"/>
<path d="M247.093 77.56C246.853 76.8934 246.546 76.44 246.173 76.2C245.8 75.9334 245.32 75.8 244.733 75.8H242.213V74.52H255.013V75.8H252.373C252 75.8 251.68 75.9067 251.413 76.12C251.146 76.3067 251.013 76.5334 251.013 76.8C251.013 77.0934 251.066 77.3867 251.173 77.68L258.013 96.92L263.293 80.68C263.613 79.64 263.773 78.72 263.773 77.92C263.773 77.36 263.613 76.8667 263.293 76.44C263 76.0134 262.48 75.8 261.733 75.8H259.573V74.52H270.373V75.8H268.893C267.96 75.8 267.24 76.08 266.733 76.64C266.226 77.1734 265.826 77.8667 265.533 78.72L257.413 103.72H256.413L247.093 77.56Z" fill="#E09844"/>
<path d="M293.684 340.96C292.217 340.96 290.87 340.533 289.644 339.68C288.417 338.8 287.444 337.626 286.724 336.16C286.03 334.693 285.684 333.093 285.684 331.36C285.684 329.626 286.03 328.026 286.724 326.56C287.444 325.093 288.417 323.933 289.644 323.08C290.87 322.2 292.217 321.76 293.684 321.76C295.15 321.76 296.497 322.2 297.724 323.08C298.95 323.933 299.91 325.093 300.604 326.56C301.324 328.026 301.684 329.626 301.684 331.36C301.684 333.093 301.324 334.693 300.604 336.16C299.91 337.626 298.95 338.8 297.724 339.68C296.497 340.533 295.15 340.96 293.684 340.96ZM293.684 340C295.284 340 296.43 339.253 297.124 337.76C297.817 336.24 298.164 334.106 298.164 331.36C298.164 328.613 297.817 326.493 297.124 325C296.43 323.48 295.284 322.72 293.684 322.72C292.084 322.72 290.937 323.48 290.244 325C289.55 326.493 289.204 328.613 289.204 331.36C289.204 334.106 289.55 336.24 290.244 337.76C290.937 339.253 292.084 340 293.684 340Z" fill="#E09844"/>
<path d="M263.682 339.52H265.362C265.682 339.52 265.908 339.453 266.042 339.32C266.175 339.186 266.242 338.96 266.242 338.64V324.08C266.242 323.76 266.175 323.533 266.042 323.4C265.908 323.266 265.682 323.2 265.362 323.2H263.682V322.24H269.122V325.52L269.282 325.56C269.895 324.28 270.655 323.333 271.562 322.72C272.468 322.08 273.468 321.76 274.562 321.76C276.508 321.76 277.882 322.36 278.682 323.56C279.508 324.76 279.922 326.2 279.922 327.88V338.64C279.922 338.96 279.988 339.186 280.122 339.32C280.255 339.453 280.482 339.52 280.802 339.52H282.482V340.48H274.482V339.52H276.162C276.482 339.52 276.708 339.453 276.842 339.32C276.975 339.186 277.042 338.96 277.042 338.64V327.12C277.042 325.946 276.802 324.946 276.322 324.12C275.868 323.293 275.082 322.88 273.962 322.88C273.028 322.88 272.188 323.213 271.442 323.88C270.722 324.52 270.148 325.413 269.722 326.56C269.322 327.68 269.122 328.933 269.122 330.32V338.64C269.122 338.96 269.188 339.186 269.322 339.32C269.455 339.453 269.682 339.52 270.002 339.52H271.682V340.48H263.682V339.52Z" fill="#E09844"/>
<path d="M256.66 317.28C256.074 317.28 255.58 317.08 255.18 316.68C254.78 316.28 254.58 315.787 254.58 315.2C254.58 314.587 254.78 314.093 255.18 313.72C255.58 313.32 256.074 313.12 256.66 313.12C257.274 313.12 257.767 313.32 258.14 313.72C258.54 314.093 258.74 314.587 258.74 315.2C258.74 315.787 258.54 316.28 258.14 316.68C257.767 317.08 257.274 317.28 256.66 317.28ZM252.9 339.52H254.58C254.9 339.52 255.127 339.453 255.26 339.32C255.394 339.187 255.46 338.96 255.46 338.64V324.08C255.46 323.76 255.394 323.533 255.26 323.4C255.127 323.267 254.9 323.2 254.58 323.2H252.9V322.24H258.34V338.64C258.34 338.96 258.407 339.187 258.54 339.32C258.674 339.453 258.9 339.52 259.22 339.52H260.9V340.48H252.9V339.52Z" fill="#E09844"/>
<path d="M228.88 315.04C228.64 314.373 228.333 313.92 227.96 313.68C227.587 313.413 227.107 313.28 226.52 313.28H224V312H236.8V313.28H234.16C233.787 313.28 233.467 313.387 233.2 313.6C232.933 313.787 232.8 314.013 232.8 314.28C232.8 314.573 232.853 314.867 232.96 315.16L239.8 334.4L245.08 318.16C245.4 317.12 245.56 316.2 245.56 315.4C245.56 314.84 245.4 314.347 245.08 313.92C244.787 313.493 244.267 313.28 243.52 313.28H241.36V312H252.16V313.28H250.68C249.747 313.28 249.027 313.56 248.52 314.12C248.013 314.653 247.613 315.347 247.32 316.2L239.2 341.2H238.2L228.88 315.04Z" fill="#E09844"/>
<path d="M403.684 153.96C402.217 153.96 400.87 153.533 399.644 152.68C398.417 151.8 397.444 150.626 396.724 149.16C396.03 147.693 395.684 146.093 395.684 144.36C395.684 142.626 396.03 141.026 396.724 139.56C397.444 138.093 398.417 136.933 399.644 136.08C400.87 135.2 402.217 134.76 403.684 134.76C405.15 134.76 406.497 135.2 407.724 136.08C408.95 136.933 409.91 138.093 410.604 139.56C411.324 141.026 411.684 142.626 411.684 144.36C411.684 146.093 411.324 147.693 410.604 149.16C409.91 150.626 408.95 151.8 407.724 152.68C406.497 153.533 405.15 153.96 403.684 153.96ZM403.684 153C405.284 153 406.43 152.253 407.124 150.76C407.817 149.24 408.164 147.106 408.164 144.36C408.164 141.613 407.817 139.493 407.124 138C406.43 136.48 405.284 135.72 403.684 135.72C402.084 135.72 400.937 136.48 400.244 138C399.55 139.493 399.204 141.613 399.204 144.36C399.204 147.106 399.55 149.24 400.244 150.76C400.937 152.253 402.084 153 403.684 153Z" fill="#E09844"/>
<path d="M373.682 152.52H375.362C375.682 152.52 375.908 152.453 376.042 152.32C376.175 152.186 376.242 151.96 376.242 151.64V137.08C376.242 136.76 376.175 136.533 376.042 136.4C375.908 136.266 375.682 136.2 375.362 136.2H373.682V135.24H379.122V138.52L379.282 138.56C379.895 137.28 380.655 136.333 381.562 135.72C382.468 135.08 383.468 134.76 384.562 134.76C386.508 134.76 387.882 135.36 388.682 136.56C389.508 137.76 389.922 139.2 389.922 140.88V151.64C389.922 151.96 389.988 152.186 390.122 152.32C390.255 152.453 390.482 152.52 390.802 152.52H392.482V153.48H384.482V152.52H386.162C386.482 152.52 386.708 152.453 386.842 152.32C386.975 152.186 387.042 151.96 387.042 151.64V140.12C387.042 138.946 386.802 137.946 386.322 137.12C385.868 136.293 385.082 135.88 383.962 135.88C383.028 135.88 382.188 136.213 381.442 136.88C380.722 137.52 380.148 138.413 379.722 139.56C379.322 140.68 379.122 141.933 379.122 143.32V151.64C379.122 151.96 379.188 152.186 379.322 152.32C379.455 152.453 379.682 152.52 380.002 152.52H381.682V153.48H373.682V152.52Z" fill="#E09844"/>
<path d="M366.66 130.28C366.074 130.28 365.58 130.08 365.18 129.68C364.78 129.28 364.58 128.787 364.58 128.2C364.58 127.587 364.78 127.093 365.18 126.72C365.58 126.32 366.074 126.12 366.66 126.12C367.274 126.12 367.767 126.32 368.14 126.72C368.54 127.093 368.74 127.587 368.74 128.2C368.74 128.787 368.54 129.28 368.14 129.68C367.767 130.08 367.274 130.28 366.66 130.28ZM362.9 152.52H364.58C364.9 152.52 365.127 152.453 365.26 152.32C365.394 152.187 365.46 151.96 365.46 151.64V137.08C365.46 136.76 365.394 136.533 365.26 136.4C365.127 136.267 364.9 136.2 364.58 136.2H362.9V135.24H368.34V151.64C368.34 151.96 368.407 152.187 368.54 152.32C368.674 152.453 368.9 152.52 369.22 152.52H370.9V153.48H362.9V152.52Z" fill="#E09844"/>
<path d="M338.88 128.04C338.64 127.373 338.333 126.92 337.96 126.68C337.587 126.413 337.107 126.28 336.52 126.28H334V125H346.8V126.28H344.16C343.787 126.28 343.467 126.387 343.2 126.6C342.933 126.787 342.8 127.013 342.8 127.28C342.8 127.573 342.853 127.867 342.96 128.16L349.8 147.4L355.08 131.16C355.4 130.12 355.56 129.2 355.56 128.4C355.56 127.84 355.4 127.347 355.08 126.92C354.787 126.493 354.267 126.28 353.52 126.28H351.36V125H362.16V126.28H360.68C359.747 126.28 359.027 126.56 358.52 127.12C358.013 127.653 357.613 128.347 357.32 129.2L349.2 154.2H348.2L338.88 128.04Z" fill="#E09844"/>
<path d="M300.684 240.96C299.217 240.96 297.87 240.533 296.644 239.68C295.417 238.8 294.444 237.626 293.724 236.16C293.03 234.693 292.684 233.093 292.684 231.36C292.684 229.626 293.03 228.026 293.724 226.56C294.444 225.093 295.417 223.933 296.644 223.08C297.87 222.2 299.217 221.76 300.684 221.76C302.15 221.76 303.497 222.2 304.724 223.08C305.95 223.933 306.91 225.093 307.604 226.56C308.324 228.026 308.684 229.626 308.684 231.36C308.684 233.093 308.324 234.693 307.604 236.16C306.91 237.626 305.95 238.8 304.724 239.68C303.497 240.533 302.15 240.96 300.684 240.96ZM300.684 240C302.284 240 303.43 239.253 304.124 237.76C304.817 236.24 305.164 234.106 305.164 231.36C305.164 228.613 304.817 226.493 304.124 225C303.43 223.48 302.284 222.72 300.684 222.72C299.084 222.72 297.937 223.48 297.244 225C296.55 226.493 296.204 228.613 296.204 231.36C296.204 234.106 296.55 236.24 297.244 237.76C297.937 239.253 299.084 240 300.684 240Z" fill="#E09844"/>
<path d="M270.682 239.52H272.362C272.682 239.52 272.908 239.453 273.042 239.32C273.175 239.186 273.242 238.96 273.242 238.64V224.08C273.242 223.76 273.175 223.533 273.042 223.4C272.908 223.266 272.682 223.2 272.362 223.2H270.682V222.24H276.122V225.52L276.282 225.56C276.895 224.28 277.655 223.333 278.562 222.72C279.468 222.08 280.468 221.76 281.562 221.76C283.508 221.76 284.882 222.36 285.682 223.56C286.508 224.76 286.922 226.2 286.922 227.88V238.64C286.922 238.96 286.988 239.186 287.122 239.32C287.255 239.453 287.482 239.52 287.802 239.52H289.482V240.48H281.482V239.52H283.162C283.482 239.52 283.708 239.453 283.842 239.32C283.975 239.186 284.042 238.96 284.042 238.64V227.12C284.042 225.946 283.802 224.946 283.322 224.12C282.868 223.293 282.082 222.88 280.962 222.88C280.028 222.88 279.188 223.213 278.442 223.88C277.722 224.52 277.148 225.413 276.722 226.56C276.322 227.68 276.122 228.933 276.122 230.32V238.64C276.122 238.96 276.188 239.186 276.322 239.32C276.455 239.453 276.682 239.52 277.002 239.52H278.682V240.48H270.682V239.52Z" fill="#E09844"/>
<path d="M263.66 217.28C263.074 217.28 262.58 217.08 262.18 216.68C261.78 216.28 261.58 215.787 261.58 215.2C261.58 214.587 261.78 214.093 262.18 213.72C262.58 213.32 263.074 213.12 263.66 213.12C264.274 213.12 264.767 213.32 265.14 213.72C265.54 214.093 265.74 214.587 265.74 215.2C265.74 215.787 265.54 216.28 265.14 216.68C264.767 217.08 264.274 217.28 263.66 217.28ZM259.9 239.52H261.58C261.9 239.52 262.127 239.453 262.26 239.32C262.394 239.187 262.46 238.96 262.46 238.64V224.08C262.46 223.76 262.394 223.533 262.26 223.4C262.127 223.267 261.9 223.2 261.58 223.2H259.9V222.24H265.34V238.64C265.34 238.96 265.407 239.187 265.54 239.32C265.674 239.453 265.9 239.52 266.22 239.52H267.9V240.48H259.9V239.52Z" fill="#E09844"/>
<path d="M235.88 215.04C235.64 214.373 235.333 213.92 234.96 213.68C234.587 213.413 234.107 213.28 233.52 213.28H231V212H243.8V213.28H241.16C240.787 213.28 240.467 213.387 240.2 213.6C239.933 213.787 239.8 214.013 239.8 214.28C239.8 214.573 239.853 214.867 239.96 215.16L246.8 234.4L252.08 218.16C252.4 217.12 252.56 216.2 252.56 215.4C252.56 214.84 252.4 214.347 252.08 213.92C251.787 213.493 251.267 213.28 250.52 213.28H248.36V212H259.16V213.28H257.68C256.747 213.28 256.027 213.56 255.52 214.12C255.013 214.653 254.613 215.347 254.32 216.2L246.2 241.2H245.2L235.88 215.04Z" fill="#E09844"/>
<path d="M181.952 161.366C181.441 161.366 180.984 161.202 180.581 160.875C180.204 160.524 180.016 160.127 180.016 159.683C180.016 159.215 180.204 158.818 180.581 158.491C180.984 158.164 181.441 158 181.952 158C182.489 158 182.946 158.164 183.323 158.491C183.699 158.818 183.887 159.215 183.887 159.683C183.887 160.127 183.699 160.524 183.323 160.875C182.946 161.202 182.489 161.366 181.952 161.366ZM189.532 161.366C189.022 161.366 188.565 161.202 188.161 160.875C187.785 160.524 187.597 160.127 187.597 159.683C187.597 159.215 187.785 158.818 188.161 158.491C188.565 158.164 189.022 158 189.532 158C190.07 158 190.527 158.164 190.903 158.491C191.28 158.818 191.468 159.215 191.468 159.683C191.468 160.127 191.28 160.524 190.903 160.875C190.527 161.202 190.07 161.366 189.532 161.366ZM186.306 181C183.806 181 181.79 180.264 180.258 178.791C178.753 177.319 178 175.273 178 172.655C178 171.16 178.336 169.769 179.008 168.483C179.68 167.174 180.608 166.134 181.79 165.363C183 164.568 184.344 164.171 185.823 164.171C187.462 164.171 188.806 164.556 189.855 165.328C190.903 166.099 191.656 167.081 192.113 168.273C192.597 169.442 192.839 170.645 192.839 171.884C192.839 172.141 192.745 172.317 192.556 172.41C192.368 172.48 192.046 172.515 191.589 172.515H181.548C181.548 174.853 181.925 176.711 182.677 178.09C183.457 179.469 184.72 180.159 186.468 180.159C187.704 180.159 188.86 179.749 189.936 178.931C191.038 178.113 191.737 176.839 192.032 175.11H193C192.839 176.816 192.153 178.23 190.944 179.352C189.761 180.451 188.215 181 186.306 181ZM189.371 171.674C189.371 169.804 189.089 168.226 188.524 166.941C187.96 165.655 187.032 165.012 185.742 165.012C184.371 165.012 183.323 165.667 182.597 166.976C181.898 168.261 181.548 169.827 181.548 171.674H189.371Z" fill="#E09844"/>
<path d="M161 180.128H162.67C162.989 180.128 163.214 180.068 163.347 179.947C163.479 179.825 163.545 179.62 163.545 179.329V166.107C163.545 165.816 163.479 165.61 163.347 165.489C163.214 165.368 162.989 165.308 162.67 165.308H161V164.436H166.409V168.068L166.568 168.105C167.125 166.845 167.841 165.853 168.716 165.126C169.617 164.375 170.572 164 171.58 164C172.587 164 173.409 164.266 174.045 164.799C174.682 165.332 175 166.058 175 166.979C175 167.511 174.788 168.032 174.364 168.541C173.966 169.049 173.449 169.303 172.812 169.303C172.309 169.303 171.884 169.182 171.54 168.94C171.195 168.698 171.023 168.359 171.023 167.923C171.023 167.415 171.288 166.979 171.818 166.615C172.057 166.47 172.229 166.337 172.335 166.216C172.468 166.095 172.534 165.937 172.534 165.744C172.534 165.526 172.415 165.356 172.176 165.235C171.964 165.09 171.659 165.017 171.261 165.017C170.439 165.017 169.644 165.38 168.875 166.107C168.133 166.833 167.536 167.778 167.085 168.94C166.634 170.103 166.409 171.313 166.409 172.573V179.329C166.409 179.62 166.475 179.825 166.608 179.947C166.741 180.068 166.966 180.128 167.284 180.128H168.955V181H161V180.128Z" fill="#E09844"/>
<path d="M151.306 181C148.806 181 146.79 180.256 145.258 178.769C143.753 177.281 143 175.215 143 172.571C143 171.06 143.336 169.655 144.008 168.356C144.68 167.034 145.608 165.983 146.79 165.204C148 164.401 149.344 164 150.823 164C152.462 164 153.806 164.39 154.855 165.169C155.903 165.948 156.656 166.94 157.113 168.144C157.597 169.324 157.839 170.54 157.839 171.792C157.839 172.051 157.745 172.228 157.556 172.323C157.368 172.394 157.046 172.429 156.589 172.429H146.548C146.548 174.79 146.925 176.667 147.677 178.06C148.457 179.453 149.72 180.15 151.468 180.15C152.704 180.15 153.86 179.737 154.936 178.91C156.038 178.084 156.737 176.797 157.032 175.05H158C157.839 176.774 157.153 178.202 155.944 179.335C154.761 180.445 153.215 181 151.306 181ZM154.371 171.579C154.371 169.69 154.089 168.097 153.524 166.798C152.96 165.499 152.032 164.85 150.742 164.85C149.371 164.85 148.323 165.511 147.597 166.833C146.898 168.132 146.548 169.714 146.548 171.579H154.371Z" fill="#E09844"/>
<path d="M126.154 167.53C125.894 166.937 125.622 166.504 125.336 166.231C125.076 165.957 124.674 165.821 124.129 165.821H123V165H131.41V165.821H130.32C130.008 165.821 129.723 165.9 129.463 166.06C129.204 166.197 129.074 166.39 129.074 166.641C129.074 167.028 129.152 167.405 129.307 167.769L133.668 177L136.822 168.897C136.926 168.624 137.016 168.316 137.094 167.974C137.198 167.632 137.25 167.359 137.25 167.154C137.25 166.766 137.12 166.447 136.861 166.197C136.601 165.946 136.264 165.821 135.848 165.821H134.914V165H142V165.821H141.105C140.533 165.821 140.001 165.991 139.508 166.333C139.041 166.652 138.678 167.154 138.418 167.838L133.279 181H132.578L126.154 167.53Z" fill="#E09844"/>
<path d="M90 303C88.5333 303 87.1867 302.622 85.96 301.867C84.7333 301.088 83.76 300.049 83.04 298.75C82.3466 297.451 82 296.035 82 294.5C82 292.965 82.3466 291.549 83.04 290.25C83.76 288.951 84.7333 287.924 85.96 287.169C87.1867 286.39 88.5333 286 90 286C91.4667 286 92.8133 286.39 94.04 287.169C95.2666 287.924 96.2266 288.951 96.92 290.25C97.64 291.549 98 292.965 98 294.5C98 296.035 97.64 297.451 96.92 298.75C96.2266 300.049 95.2666 301.088 94.04 301.867C92.8133 302.622 91.4667 303 90 303ZM90 302.15C91.6 302.15 92.7467 301.489 93.44 300.167C94.1333 298.821 94.48 296.932 94.48 294.5C94.48 292.068 94.1333 290.191 93.44 288.869C92.7467 287.523 91.6 286.85 90 286.85C88.4 286.85 87.2533 287.523 86.56 288.869C85.8667 290.191 85.52 292.068 85.52 294.5C85.52 296.932 85.8667 298.821 86.56 300.167C87.2533 301.489 88.4 302.15 90 302.15Z" fill="#E09844"/>
<path d="M60 301.179H61.6085C61.9149 301.179 62.1319 301.123 62.2596 301.009C62.3872 300.895 62.4511 300.701 62.4511 300.427V287.983C62.4511 287.709 62.3872 287.516 62.2596 287.402C62.1319 287.288 61.9149 287.231 61.6085 287.231H60V286.41H65.2085V289.214L65.3617 289.248C65.9489 288.154 66.6766 287.345 67.5447 286.821C68.4128 286.274 69.3702 286 70.417 286C72.2808 286 73.5957 286.513 74.3617 287.538C75.1532 288.564 75.5489 289.795 75.5489 291.231V300.427C75.5489 300.701 75.6128 300.895 75.7404 301.009C75.8681 301.123 76.0851 301.179 76.3915 301.179H78V302H70.3404V301.179H71.9489C72.2553 301.179 72.4723 301.123 72.6 301.009C72.7277 300.895 72.7915 300.701 72.7915 300.427V290.581C72.7915 289.578 72.5617 288.724 72.1021 288.017C71.6681 287.311 70.9149 286.957 69.8426 286.957C68.9489 286.957 68.1447 287.242 67.4298 287.812C66.7404 288.359 66.1915 289.123 65.783 290.103C65.4 291.06 65.2085 292.131 65.2085 293.316V300.427C65.2085 300.701 65.2723 300.895 65.4 301.009C65.5277 301.123 65.7447 301.179 66.0511 301.179H67.6596V302H60V301.179Z" fill="#E09844"/>
<path d="M52.76 281.649C52.1733 281.649 51.68 281.474 51.28 281.123C50.88 280.772 50.68 280.339 50.68 279.825C50.68 279.287 50.88 278.854 51.28 278.526C51.68 278.175 52.1733 278 52.76 278C53.3733 278 53.8667 278.175 54.24 278.526C54.64 278.854 54.84 279.287 54.84 279.825C54.84 280.339 54.64 280.772 54.24 281.123C53.8667 281.474 53.3733 281.649 52.76 281.649ZM49 301.158H50.68C51 301.158 51.2267 301.099 51.36 300.982C51.4933 300.865 51.56 300.667 51.56 300.386V287.614C51.56 287.333 51.4933 287.135 51.36 287.018C51.2267 286.901 51 286.842 50.68 286.842H49V286H54.44V300.386C54.44 300.667 54.5067 300.865 54.64 300.982C54.7733 301.099 55 301.158 55.32 301.158H57V302H49V301.158Z" fill="#E09844"/>
<path d="M24.8523 279.707C24.6136 279.113 24.3087 278.71 23.9375 278.496C23.5663 278.258 23.089 278.14 22.5057 278.14H20V277H32.7273V278.14H30.1023C29.7311 278.14 29.4129 278.235 29.1477 278.425C28.8826 278.591 28.75 278.793 28.75 279.03C28.75 279.291 28.803 279.553 28.9091 279.814L35.7102 296.945L40.9602 282.485C41.2784 281.559 41.4375 280.74 41.4375 280.027C41.4375 279.529 41.2784 279.089 40.9602 278.71C40.6686 278.33 40.1515 278.14 39.4091 278.14H37.2614V277H48V278.14H46.5284C45.6004 278.14 44.8845 278.389 44.3807 278.888C43.8769 279.363 43.4792 279.98 43.1875 280.74L35.1136 303H34.1193L24.8523 279.707Z" fill="#E09844"/>
<path d="M216.684 81.0802C216.177 81.0802 215.724 80.8936 215.324 80.5202C214.95 80.1202 214.764 79.6669 214.764 79.1602C214.764 78.6269 214.95 78.1736 215.324 77.8002C215.724 77.4269 216.177 77.2402 216.684 77.2402C217.217 77.2402 217.67 77.4269 218.044 77.8002C218.417 78.1736 218.604 78.6269 218.604 79.1602C218.604 79.6669 218.417 80.1202 218.044 80.5202C217.67 80.8936 217.217 81.0802 216.684 81.0802ZM224.204 81.0802C223.697 81.0802 223.244 80.8936 222.844 80.5202C222.47 80.1202 222.284 79.6669 222.284 79.1602C222.284 78.6269 222.47 78.1736 222.844 77.8002C223.244 77.4269 223.697 77.2402 224.204 77.2402C224.737 77.2402 225.19 77.4269 225.564 77.8002C225.937 78.1736 226.124 78.6269 226.124 79.1602C226.124 79.6669 225.937 80.1202 225.564 80.5202C225.19 80.8936 224.737 81.0802 224.204 81.0802ZM221.004 103.48C218.524 103.48 216.524 102.64 215.004 100.96C213.51 99.2802 212.764 96.9469 212.764 93.9602C212.764 92.2536 213.097 90.6669 213.764 89.2002C214.43 87.7069 215.35 86.5202 216.524 85.6402C217.724 84.7336 219.057 84.2802 220.524 84.2802C222.15 84.2802 223.484 84.7202 224.524 85.6002C225.564 86.4802 226.31 87.6002 226.764 88.9602C227.244 90.2936 227.484 91.6669 227.484 93.0802C227.484 93.3736 227.39 93.5736 227.204 93.6802C227.017 93.7602 226.697 93.8002 226.244 93.8002H216.284C216.284 96.4669 216.657 98.5869 217.404 100.16C218.177 101.734 219.43 102.52 221.164 102.52C222.39 102.52 223.537 102.054 224.604 101.12C225.697 100.187 226.39 98.7336 226.684 96.7602H227.644C227.484 98.7069 226.804 100.32 225.604 101.6C224.43 102.854 222.897 103.48 221.004 103.48ZM224.044 92.8402C224.044 90.7069 223.764 88.9069 223.204 87.4402C222.644 85.9736 221.724 85.2402 220.444 85.2402C219.084 85.2402 218.044 85.9869 217.324 87.4802C216.63 88.9469 216.284 90.7336 216.284 92.8402H224.044Z" fill="#E09844"/>
<path d="M195.957 102.04H197.637C197.957 102.04 198.184 101.974 198.317 101.84C198.45 101.707 198.517 101.48 198.517 101.16V86.6003C198.517 86.2803 198.45 86.0536 198.317 85.9203C198.184 85.7869 197.957 85.7203 197.637 85.7203H195.957V84.7603H201.397V88.7603L201.557 88.8003C202.117 87.4136 202.837 86.3203 203.717 85.5203C204.624 84.6936 205.584 84.2803 206.597 84.2803C207.61 84.2803 208.437 84.5736 209.077 85.1603C209.717 85.7469 210.037 86.5469 210.037 87.5603C210.037 88.1469 209.824 88.7203 209.397 89.2803C208.997 89.8403 208.477 90.1203 207.837 90.1203C207.33 90.1203 206.904 89.9869 206.557 89.7203C206.21 89.4536 206.037 89.0803 206.037 88.6003C206.037 88.0403 206.304 87.5603 206.837 87.1603C207.077 87.0003 207.25 86.8536 207.357 86.7203C207.49 86.5869 207.557 86.4136 207.557 86.2003C207.557 85.9603 207.437 85.7736 207.197 85.6403C206.984 85.4803 206.677 85.4003 206.277 85.4003C205.45 85.4003 204.65 85.8003 203.877 86.6003C203.13 87.4003 202.53 88.4403 202.077 89.7203C201.624 91.0003 201.397 92.3336 201.397 93.7203V101.16C201.397 101.48 201.464 101.707 201.597 101.84C201.73 101.974 201.957 102.04 202.277 102.04H203.957V103H195.957V102.04Z" fill="#E09844"/>
<path d="M186.199 103.48C183.719 103.48 181.719 102.64 180.199 100.96C178.706 99.2803 177.959 96.9469 177.959 93.9603C177.959 92.2536 178.292 90.6669 178.959 89.2003C179.626 87.7069 180.546 86.5203 181.719 85.6403C182.919 84.7336 184.252 84.2803 185.719 84.2803C187.346 84.2803 188.679 84.7203 189.719 85.6003C190.759 86.4803 191.506 87.6003 191.959 88.9603C192.439 90.2936 192.679 91.6669 192.679 93.0803C192.679 93.3736 192.586 93.5736 192.399 93.6803C192.212 93.7603 191.892 93.8003 191.439 93.8003H181.479C181.479 96.4669 181.852 98.5869 182.599 100.16C183.372 101.734 184.626 102.52 186.359 102.52C187.586 102.52 188.732 102.054 189.799 101.12C190.892 100.187 191.586 98.7336 191.879 96.7603H192.839C192.679 98.7069 191.999 100.32 190.799 101.6C189.626 102.854 188.092 103.48 186.199 103.48ZM189.239 92.8403C189.239 90.7069 188.959 88.9069 188.399 87.4403C187.839 85.9736 186.919 85.2403 185.639 85.2403C184.279 85.2403 183.239 85.9869 182.519 87.4803C181.826 88.9469 181.479 90.7336 181.479 92.8403H189.239Z" fill="#E09844"/>
<path d="M155.609 77.56C155.369 76.8934 155.062 76.44 154.689 76.2C154.315 75.9334 153.835 75.8 153.249 75.8H150.729V74.52H163.529V75.8H160.889C160.515 75.8 160.195 75.9067 159.929 76.12C159.662 76.3067 159.529 76.5334 159.529 76.8C159.529 77.0934 159.582 77.3867 159.689 77.68L166.529 96.92L171.809 80.68C172.129 79.64 172.289 78.72 172.289 77.92C172.289 77.36 172.129 76.8667 171.809 76.44C171.515 76.0134 170.995 75.8 170.249 75.8H168.089V74.52H178.889V75.8H177.409C176.475 75.8 175.755 76.08 175.249 76.64C174.742 77.1734 174.342 77.8667 174.049 78.72L165.929 103.72H164.929L155.609 77.56Z" fill="#E09844"/>
<path d="M129.519 103.48C127.039 103.48 125.039 102.64 123.519 100.96C122.026 99.2803 121.279 96.9469 121.279 93.9603C121.279 92.2536 121.613 90.6669 122.279 89.2003C122.946 87.7069 123.866 86.5203 125.039 85.6403C126.239 84.7336 127.573 84.2803 129.039 84.2803C130.666 84.2803 131.999 84.7203 133.039 85.6003C134.079 86.4803 134.826 87.6003 135.279 88.9603C135.759 90.2936 135.999 91.6669 135.999 93.0803C135.999 93.3736 135.906 93.5736 135.719 93.6803C135.533 93.7603 135.213 93.8003 134.759 93.8003H124.799C124.799 96.4669 125.173 98.5869 125.919 100.16C126.693 101.734 127.946 102.52 129.679 102.52C130.906 102.52 132.053 102.054 133.119 101.12C134.213 100.187 134.906 98.7336 135.199 96.7603H136.159C135.999 98.7069 135.319 100.32 134.119 101.6C132.946 102.854 131.413 103.48 129.519 103.48ZM132.559 92.8403C132.559 90.7069 132.279 88.9069 131.719 87.4403C131.159 85.9736 130.239 85.2403 128.959 85.2403C127.599 85.2403 126.559 85.9869 125.839 87.4803C125.146 88.9469 124.799 90.7336 124.799 92.8403H132.559Z" fill="#E09844"/>
<path d="M99.2773 102.04H100.957C101.277 102.04 101.504 101.974 101.637 101.84C101.771 101.707 101.837 101.48 101.837 101.16V86.6003C101.837 86.2803 101.771 86.0536 101.637 85.9203C101.504 85.7869 101.277 85.7203 100.957 85.7203H99.2773V84.7603H104.717V88.0403L104.877 88.0803C105.491 86.8003 106.251 85.8536 107.157 85.2403C108.064 84.6003 109.064 84.2803 110.157 84.2803C112.104 84.2803 113.477 84.8803 114.277 86.0803C115.104 87.2803 115.517 88.7203 115.517 90.4003V101.16C115.517 101.48 115.584 101.707 115.717 101.84C115.851 101.974 116.077 102.04 116.397 102.04H118.077V103H110.077V102.04H111.757C112.077 102.04 112.304 101.974 112.437 101.84C112.571 101.707 112.637 101.48 112.637 101.16V89.6403C112.637 88.4669 112.397 87.4669 111.917 86.6403C111.464 85.8136 110.677 85.4003 109.557 85.4003C108.624 85.4003 107.784 85.7336 107.037 86.4003C106.317 87.0403 105.744 87.9336 105.317 89.0803C104.917 90.2003 104.717 91.4536 104.717 92.8403V101.16C104.717 101.48 104.784 101.707 104.917 101.84C105.051 101.974 105.277 102.04 105.597 102.04H107.277V103H99.2773V102.04Z" fill="#E09844"/>
<path d="M92.2561 79.7996C91.6694 79.7996 91.1761 79.5996 90.7761 79.1996C90.3761 78.7996 90.1761 78.3063 90.1761 77.7196C90.1761 77.1063 90.3761 76.613 90.7761 76.2396C91.1761 75.8396 91.6694 75.6396 92.2561 75.6396C92.8694 75.6396 93.3628 75.8396 93.7361 76.2396C94.1361 76.613 94.3361 77.1063 94.3361 77.7196C94.3361 78.3063 94.1361 78.7996 93.7361 79.1996C93.3628 79.5996 92.8694 79.7996 92.2561 79.7996ZM88.4961 102.04H90.1761C90.4961 102.04 90.7228 101.973 90.8561 101.84C90.9894 101.706 91.0561 101.48 91.0561 101.16V86.5996C91.0561 86.2796 90.9894 86.053 90.8561 85.9196C90.7228 85.7863 90.4961 85.7196 90.1761 85.7196H88.4961V84.7596H93.9361V101.16C93.9361 101.48 94.0028 101.706 94.1361 101.84C94.2694 101.973 94.4961 102.04 94.8161 102.04H96.4961V103H88.4961V102.04Z" fill="#E09844"/>
<path d="M52.3595 77.56C52.1195 76.8934 51.8129 76.44 51.4395 76.2C51.0662 75.9334 50.5862 75.8 49.9995 75.8H47.5195V74.52H59.3595V75.8H57.4395C57.0662 75.8 56.7462 75.9067 56.4795 76.12C56.2129 76.3067 56.0795 76.5334 56.0795 76.8C56.0795 77.0134 56.1329 77.3067 56.2395 77.68L61.5595 96.08L66.3995 78.56L65.9995 77.28C65.8129 76.7467 65.4395 76.3734 64.8795 76.16C64.3195 75.92 63.7462 75.8 63.1595 75.8H61.9995V74.52H73.8395V75.8H72.2795C70.9195 75.8 70.2395 76.4934 70.2395 77.88C70.2395 78.2534 70.3195 78.6667 70.4795 79.12L75.5195 96.44L80.4795 80.68C80.6662 79.96 80.7862 79.4134 80.8395 79.04C80.9195 78.64 80.9595 78.16 80.9595 77.6C80.9595 77.0934 80.7195 76.6667 80.2395 76.32C79.7862 75.9734 79.1462 75.8 78.3195 75.8H76.9595V74.52H87.7595V75.8H86.0395C85.1329 75.8 84.4262 76.0667 83.9195 76.6C83.4395 77.1334 83.0662 77.84 82.7995 78.72L74.8395 103.72H73.8395L67.2795 81.48L60.9595 103.72H59.9595L52.3595 77.56Z" fill="#E09844"/>
</svg>
