<svg width="1381" height="924" viewBox="0 0 1381 924" fill="none" xmlns="http://www.w3.org/2000/svg">
<path d="M45.1181 14.5698C71.2613 9.94297 115.782 2.9509 119.192 2.9509C123.982 2.9509 141.79 3.31976 150.877 2.9509C192.51 1.5984 276.008 0 277.985 0C279.738 0 306.765 0.652171 328.776 1.41357C347.541 2.06272 367.065 3.2441 385.198 8.11497C390.234 9.46747 397.971 14.2627 400.304 15.4922C401.759 16.2588 403.748 17.7901 404.112 19.5497C404.119 19.5859 404.126 19.6222 404.132 19.6586L406.936 34.6731L427.2 109.552L429.922 119.789C436.354 143.983 443.871 177.901 445.622 202.874C445.828 205.825 446.358 238.408 445.622 255.622C445.432 260.048 437.516 285.499 433.832 294.721C431.625 300.243 418.726 330.501 418.726 331.976C418.726 332.355 416.825 335.283 413.939 339.506C400.511 359.152 383.577 386.446 365.304 401.691C363.719 403.013 348.602 413.372 340.251 417.921L300.829 434.889C294.197 436.733 278.6 447.676 270.249 455.545C268.039 457.628 260.302 467.717 257.354 473.25C255.468 476.792 247.898 506.202 245.565 521.94L244.091 570.261V616.738L245.196 669.116C246.424 698.133 248.586 757.348 247.407 762.069C247.301 762.491 247.27 763.123 247.302 763.934C248.644 797.067 274.691 816.53 307.829 817.768C327.76 817.768 347.539 821.74 366.795 826.886C368.383 827.31 369.87 827.718 371.199 828.096C372.304 828.41 385.936 833.26 392.936 836.211C394.41 836.832 399.445 844.695 401.778 849.49C402.855 851.703 405.34 861.416 405.094 867.195C405.094 869.777 398.463 884.163 395.884 887.852C393.97 890.588 374.883 901.499 374.515 902.606C374.146 903.713 345.777 911.828 345.409 912.196C345.114 912.492 320.478 915.516 308.197 916.992C300.338 917.975 283.513 921.049 284.618 921.049C285.502 921.049 269.635 923.385 262.144 924H168.931C152.598 922.893 120.075 921.787 118.825 921.787C117.72 921.787 96.8419 916.254 86.4031 912.934L81.3332 910.636C71.8053 906.316 63.2601 901.52 56.0192 893.97C53.0971 890.922 49.5198 887.006 48.0435 883.05C47.8488 882.529 47.6598 881.991 47.4794 881.447C46.0738 877.207 45.4552 872.695 46.0004 868.262C46.4654 864.481 47.3876 860.314 48.4549 858.711C49.9286 856.498 57.8815 849.643 58.4025 849.121C68.1855 839.326 83.0897 836.65 96.0556 831.8C99.8614 830.376 102.653 829.312 102.982 829.202C104.088 828.834 123.246 824.407 123.246 824.038C123.246 823.743 135.527 821.948 141.667 821.087L160.089 818.874L189.932 815.923C184.528 821.087 174.826 832.743 174.826 833.629C174.826 834.514 179.984 829.325 182.563 826.62C187.23 820.473 197.51 809.233 198.037 808.177C198.774 806.702 203.195 795.882 205.037 789.734C206.143 783.709 209.09 772.766 209.09 771.66C209.09 771.07 210.564 760.594 210.932 755.061L212.037 711.904C210.564 650.427 207.616 527.399 207.616 527.104C207.616 527.03 207.369 525.61 206.968 523.353C203.529 503.998 201.981 481.994 188.09 468.086C187.353 467.348 176.3 459.602 170.405 455.914C160.58 450.627 141.667 440.79 140.562 440.79C139.903 440.79 116.86 428.249 105.193 421.61C90.3598 410.591 74.381 398.641 60.9373 385.965C56.0431 381.35 52.1492 377.546 51.7708 376.977C51.0339 375.871 38.6301 358.657 32.9809 349.681C31.2709 345.952 28.346 340.276 25.8374 335.512C22.7755 329.697 21.647 327.95 19.1398 321.876C13.7898 308.913 8.94318 291.012 6.57627 277.19C4.32188 264.025 1.81909 251.312 1.29566 250.089C0.190658 247.507 -0.300863 225.129 0.190376 212.834L3.87467 170.046L20.0856 98.8551L38.5065 19.9186C37.9355 16.4904 41.6958 15.1755 45.1181 14.5698Z" fill="#841212"/>
<path d="M829.363 105.138C847.535 101.919 878.477 97.0535 880.847 97.0535C884.176 97.0535 896.553 97.3102 902.87 97.0535C931.807 96.1123 989.844 95 991.219 95C992.437 95 1011.22 95.4538 1026.52 95.9837C1039.56 96.4354 1053.14 97.2577 1065.74 100.647C1069.24 101.588 1074.62 104.925 1076.24 105.781C1077.25 106.314 1078.63 107.38 1078.88 108.604C1078.89 108.63 1078.89 108.655 1078.9 108.68L1080.85 119.129L1094.93 171.236L1096.82 178.358C1101.3 195.195 1106.52 218.8 1107.74 236.178C1107.88 238.231 1108.25 260.905 1107.74 272.884C1107.61 275.964 1102.1 293.675 1099.54 300.093C1098.01 303.936 1089.04 324.991 1089.04 326.018C1089.04 326.282 1087.72 328.32 1085.71 331.26C1076.38 344.933 1064.62 363.919 1051.91 374.532C1050.81 375.452 1040.3 382.66 1034.5 385.826L1007.1 397.634C1002.49 398.917 991.646 406.532 985.841 412.008C984.305 413.457 978.927 420.479 976.879 424.329C975.567 426.793 970.306 447.26 968.684 458.212L967.66 491.837V524.18L968.428 560.63C969.281 580.822 970.784 622.029 969.964 625.315C969.889 625.615 969.868 626.069 969.894 626.652C970.901 649.68 988.928 663.213 1011.96 664.074C1025.82 664.074 1039.56 666.839 1052.95 670.419C1054.05 670.715 1055.08 670.998 1056.01 671.261C1056.78 671.48 1066.25 674.855 1071.12 676.909C1072.14 677.341 1075.64 682.812 1077.26 686.149C1078.01 687.689 1079.74 694.449 1079.57 698.47C1079.57 700.267 1074.96 710.278 1073.17 712.845C1071.84 714.749 1058.57 722.342 1058.31 723.112C1058.06 723.882 1038.34 729.529 1038.08 729.786C1037.88 729.991 1020.75 732.096 1012.22 733.123C1006.75 733.807 995.06 735.946 995.829 735.946C996.443 735.946 985.415 737.572 980.208 738H915.419C904.066 737.23 881.46 736.46 880.591 736.46C879.823 736.46 865.312 732.61 858.056 730.299L854.539 728.703C847.912 725.695 841.968 722.355 836.934 717.099C834.905 714.98 832.42 712.257 831.395 709.508C831.259 709.143 831.127 708.766 831 708.385C830.024 705.436 829.595 702.299 829.973 699.216C830.296 696.584 830.937 693.682 831.679 692.566C832.704 691.026 838.232 686.256 838.594 685.893C845.391 679.079 855.754 677.214 864.767 673.838C867.411 672.848 869.351 672.108 869.58 672.032C870.348 671.775 883.664 668.695 883.664 668.438C883.664 668.233 892.2 666.983 896.468 666.384L909.273 664.844L930.015 662.791C926.259 666.384 919.516 674.496 919.516 675.112C919.516 675.728 923.101 672.117 924.894 670.235C928.137 665.957 935.283 658.135 935.649 657.4C936.161 656.374 939.234 648.844 940.515 644.566C941.283 640.374 943.332 632.758 943.332 631.988C943.332 631.578 944.356 624.288 944.612 620.438L945.38 590.405C944.356 547.624 942.307 462.011 942.307 461.805C942.307 461.754 942.135 460.764 941.856 459.19C939.466 445.725 938.394 430.417 928.735 420.735C928.223 420.222 920.54 414.832 916.443 412.265C909.614 408.585 896.468 401.741 895.7 401.741C895.242 401.741 879.226 393.013 871.116 388.393C860.807 380.726 849.699 372.409 840.357 363.589C836.954 360.377 834.247 357.729 833.984 357.334C833.472 356.564 824.851 344.585 820.924 338.339C819.736 335.744 817.703 331.795 815.96 328.48C813.831 324.433 813.046 323.216 811.303 318.988C807.585 309.968 804.216 297.513 802.572 287.896C801.004 278.734 799.264 269.885 798.901 269.034C798.133 267.237 797.791 251.664 798.132 243.108L800.693 213.333L811.961 163.792L824.765 108.861C824.368 106.476 826.982 105.56 829.363 105.138Z" fill="#841212"/>
<path d="M1102.36 105.138C1120.53 101.919 1151.48 97.0535 1153.85 97.0535C1157.18 97.0535 1169.55 97.3102 1175.87 97.0535C1204.81 96.1123 1262.84 95 1264.22 95C1265.44 95 1284.22 95.4538 1299.52 95.9837C1312.56 96.4354 1326.14 97.2577 1338.74 100.647C1342.24 101.588 1347.62 104.925 1349.24 105.781C1350.25 106.314 1351.63 107.38 1351.88 108.604C1351.89 108.63 1351.89 108.655 1351.9 108.68L1353.85 119.129L1367.93 171.236L1369.82 178.358C1374.3 195.195 1379.52 218.8 1380.74 236.178C1380.88 238.231 1381.25 260.905 1380.74 272.884C1380.61 275.964 1375.1 293.675 1372.54 300.093C1371.01 303.936 1362.04 324.991 1362.04 326.018C1362.04 326.282 1360.72 328.32 1358.71 331.26C1349.38 344.933 1337.62 363.919 1324.91 374.532C1323.81 375.452 1313.3 382.66 1307.5 385.826L1280.1 397.634C1275.49 398.917 1264.65 406.532 1258.84 412.008C1257.3 413.457 1251.93 420.479 1249.88 424.329C1248.57 426.793 1243.31 447.26 1241.68 458.212L1240.66 491.837V524.18L1241.43 560.63C1242.28 580.822 1243.78 622.029 1242.96 625.315C1242.89 625.615 1242.87 626.069 1242.89 626.652C1243.9 649.68 1261.93 663.213 1284.96 664.074C1298.82 664.074 1312.56 666.839 1325.95 670.419C1327.05 670.715 1328.08 670.998 1329.01 671.261C1329.78 671.48 1339.25 674.855 1344.12 676.909C1345.14 677.341 1348.64 682.812 1350.26 686.149C1351.01 687.689 1352.74 694.449 1352.57 698.47C1352.57 700.267 1347.96 710.278 1346.17 712.845C1344.84 714.749 1331.57 722.342 1331.31 723.112C1331.06 723.882 1311.34 729.529 1311.08 729.786C1310.88 729.991 1293.75 732.096 1285.22 733.123C1279.75 733.807 1268.06 735.946 1268.83 735.946C1269.44 735.946 1258.41 737.572 1253.21 738H1188.42C1177.07 737.23 1154.46 736.46 1153.59 736.46C1152.82 736.46 1138.31 732.61 1131.06 730.299L1127.54 728.703C1120.91 725.695 1114.97 722.355 1109.93 717.099C1107.9 714.98 1105.42 712.257 1104.4 709.508C1104.26 709.143 1104.13 708.766 1104 708.385C1103.02 705.436 1102.59 702.299 1102.97 699.216C1103.3 696.584 1103.94 693.682 1104.68 692.566C1105.7 691.026 1111.23 686.256 1111.59 685.893C1118.39 679.079 1128.75 677.214 1137.77 673.838C1140.41 672.848 1142.35 672.108 1142.58 672.032C1143.35 671.775 1156.66 668.695 1156.66 668.438C1156.66 668.233 1165.2 666.983 1169.47 666.384L1182.27 664.844L1203.02 662.791C1199.26 666.384 1192.52 674.496 1192.52 675.112C1192.52 675.728 1196.1 672.117 1197.89 670.235C1201.14 665.957 1208.28 658.135 1208.65 657.4C1209.16 656.374 1212.23 648.844 1213.51 644.566C1214.28 640.374 1216.33 632.758 1216.33 631.988C1216.33 631.578 1217.36 624.288 1217.61 620.438L1218.38 590.405C1217.36 547.624 1215.31 462.011 1215.31 461.805C1215.31 461.754 1215.14 460.764 1214.86 459.19C1212.47 445.725 1211.39 430.417 1201.73 420.735C1201.22 420.222 1193.54 414.832 1189.44 412.265C1182.61 408.585 1169.47 401.741 1168.7 401.741C1168.24 401.741 1152.23 393.013 1144.12 388.393C1133.81 380.726 1122.7 372.409 1113.36 363.589C1109.95 360.377 1107.25 357.729 1106.98 357.334C1106.47 356.564 1097.85 344.585 1093.92 338.339C1092.74 335.744 1090.7 331.795 1088.96 328.48C1086.83 324.433 1086.05 323.216 1084.3 318.988C1080.58 309.968 1077.22 297.513 1075.57 287.896C1074 278.734 1072.26 269.885 1071.9 269.034C1071.13 267.237 1070.79 251.664 1071.13 243.108L1073.69 213.333L1084.96 163.792L1097.76 108.861C1097.37 106.476 1099.98 105.56 1102.36 105.138Z" fill="#841212"/>
<path d="M544.363 105.138C562.535 101.919 593.477 97.0535 595.847 97.0535C599.176 97.0535 611.553 97.3102 617.87 97.0535C646.807 96.1123 704.844 95 706.219 95C707.437 95 726.222 95.4538 741.52 95.9837C754.564 96.4354 768.135 97.2577 780.739 100.647C784.239 101.588 789.616 104.925 791.238 105.781C792.249 106.314 793.632 107.38 793.885 108.604C793.89 108.63 793.895 108.655 793.899 108.68L795.848 119.129L809.933 171.236L811.824 178.358C816.295 195.195 821.52 218.8 822.737 236.178C822.881 238.231 823.249 260.905 822.737 272.884C822.605 275.964 817.103 293.675 814.542 300.093C813.009 303.936 804.043 324.991 804.043 326.018C804.043 326.282 802.721 328.32 800.714 331.26C791.379 344.933 779.617 363.919 766.911 374.532C765.809 375.452 755.302 382.66 749.497 385.826L722.096 397.634C717.487 398.917 706.646 406.532 700.841 412.008C699.305 413.457 693.927 420.479 691.879 424.329C690.567 426.793 685.306 447.26 683.684 458.212L682.66 491.837V524.18L683.428 560.63C684.281 580.822 685.784 622.029 684.964 625.315C684.889 625.615 684.868 626.069 684.894 626.652C685.901 649.68 703.928 663.213 726.962 664.074C740.816 664.074 754.563 666.839 767.946 670.419C769.05 670.715 770.084 670.998 771.008 671.261C771.776 671.48 781.251 674.855 786.117 676.909C787.141 677.341 790.641 682.812 792.263 686.149C793.012 687.689 794.739 694.449 794.568 698.47C794.568 700.267 789.958 710.278 788.166 712.845C786.836 714.749 773.569 722.342 773.313 723.112C773.057 723.882 753.338 729.529 753.082 729.786C752.878 729.991 735.754 732.096 727.218 733.123C721.755 733.807 710.06 735.946 710.829 735.946C711.443 735.946 700.415 737.572 695.208 738H630.419C619.066 737.23 596.46 736.46 595.591 736.46C594.823 736.46 580.312 732.61 573.056 730.299L569.539 728.703C562.912 725.695 556.968 722.355 551.934 717.099C549.905 714.98 547.42 712.257 546.395 709.508C546.259 709.143 546.127 708.766 546 708.385C545.024 705.436 544.595 702.299 544.973 699.216C545.296 696.584 545.937 693.682 546.679 692.566C547.704 691.026 553.232 686.256 553.594 685.893C560.391 679.079 570.754 677.214 579.767 673.838C582.411 672.848 584.351 672.108 584.58 672.032C585.348 671.775 598.664 668.695 598.664 668.438C598.664 668.233 607.2 666.983 611.468 666.384L624.273 664.844L645.015 662.791C641.259 666.384 634.516 674.496 634.516 675.112C634.516 675.728 638.101 672.117 639.894 670.235C643.137 665.957 650.283 658.135 650.649 657.4C651.161 656.374 654.234 648.844 655.515 644.566C656.283 640.374 658.332 632.758 658.332 631.988C658.332 631.578 659.356 624.288 659.612 620.438L660.38 590.405C659.356 547.624 657.307 462.011 657.307 461.805C657.307 461.754 657.135 460.764 656.856 459.19C654.466 445.725 653.394 430.417 643.735 420.735C643.223 420.222 635.54 414.832 631.443 412.265C624.614 408.585 611.468 401.741 610.7 401.741C610.242 401.741 594.226 393.013 586.116 388.393C575.807 380.726 564.699 372.409 555.357 363.589C551.954 360.377 549.247 357.729 548.984 357.334C548.472 356.564 539.851 344.585 535.924 338.339C534.736 335.744 532.703 331.795 530.96 328.48C528.831 324.433 528.046 323.216 526.303 318.988C522.585 309.968 519.216 297.513 517.572 287.896C516.004 278.734 514.264 269.885 513.901 269.034C513.133 267.237 512.791 251.664 513.132 243.108L515.693 213.333L526.961 163.792L539.765 108.861C539.368 106.476 541.982 105.56 544.363 105.138Z" fill="#841212"/>
</svg>
