<svg width="1440" height="1059" viewBox="0 0 1440 1059" fill="none" xmlns="http://www.w3.org/2000/svg">
<path d="M153.63 535.335C102.33 515.538 110.549 440.551 164.919 432.336L169.199 431.689C195.971 427.644 215.764 404.635 215.764 377.559V361.986C215.764 296.996 294.473 264.591 340.311 310.663C361.751 332.212 394.33 338.21 422.028 325.687L522.912 280.076C569.87 258.846 625.102 269.395 660.931 306.436C677.261 323.32 698.116 335.132 720.993 340.457L797.115 358.176C808.546 360.837 820.549 359.382 831.013 354.068L1014.98 260.641C1048.88 243.426 1078.27 290.287 1048.01 313.308C1022.41 332.789 1039.46 373.577 1071.31 369.047L1236.86 345.503C1300.51 336.452 1341.67 410.783 1300.23 459.925L1291.55 470.208C1268.76 497.24 1275.09 538.182 1305 557.058C1354.39 588.238 1332.3 664.615 1273.89 664.615H1258.37C1226.55 664.615 1199.76 688.429 1196.03 720.032L1192.02 754.094C1185.61 808.474 1137.16 847.928 1082.61 843.193L1006.27 836.567C965.666 833.043 928.779 861.18 920.747 901.136C907.868 965.203 826.982 988.209 783.703 939.245C761.906 914.586 727.114 906.004 696.35 917.701L479.286 1000.23C475.671 1001.6 471.959 1002.7 468.18 1003.53L358.93 1027.32C316.166 1036.63 287.341 984.775 317.827 953.373C341.563 928.924 329.859 887.946 296.792 879.72L189.404 853.006C156.982 844.94 155.174 799.537 186.851 788.919C215.395 779.351 217.711 739.874 190.482 727.034L162.63 713.902C128.216 697.675 127.472 648.984 161.375 631.713L167.526 628.58C205.418 609.277 202.584 554.226 162.91 538.916L153.63 535.335Z" fill="#AE0606"/>
<path d="M881.651 114.398C869.152 111.556 870.38 93.3674 883.147 92.2309L893.123 91.343C899.738 90.7542 904.809 85.2122 904.809 78.5712V72.4281C904.809 57.2934 921.276 47.9065 934.299 55.6175L952.654 66.4857C959.977 70.8219 968.736 72.0308 976.96 69.8404L1023.6 57.4171C1038.84 53.3589 1055.08 55.7024 1068.54 63.9043C1075.32 68.0351 1082.89 70.7238 1090.75 71.8027L1121.22 75.9799C1124.67 76.4536 1128.19 75.88 1131.31 74.3331L1199.15 40.7561C1209.45 35.662 1218.33 49.7251 1209.3 56.828C1201.38 63.0642 1207.27 75.7292 1217.14 73.6949L1272.56 62.2778C1292.59 58.1516 1307.59 80.3405 1296.28 97.3846L1291.04 105.288C1288.48 109.152 1287.77 113.954 1289.09 118.397L1298.31 149.325C1301.19 158.971 1288.71 165.57 1282.36 157.764C1277.44 151.73 1267.72 154.138 1266.2 161.768L1264.22 171.614C1262.87 178.39 1256.75 183.148 1249.85 182.795L1200.75 180.285C1191.3 179.802 1186.72 191.658 1194.04 197.656C1202.14 204.297 1195.57 217.308 1185.42 214.742L1107.98 195.176C1103.78 194.116 1099.4 194.056 1095.17 195.002L1000.33 216.245L946.846 223.107C937.218 224.342 932.744 211.549 941.041 206.514C948.24 202.146 946.015 191.165 937.683 189.944L894.475 183.612C886.636 182.463 886.359 171.254 894.131 169.719C901.421 168.279 901.812 157.998 894.652 156.009L885.183 153.378C876.119 150.861 875.987 138.056 884.997 135.352L886.986 134.756C896.811 131.807 896.332 117.735 886.329 115.461L881.651 114.398Z" fill="#AE0606"/>
<path d="M285.726 481.258C283.106 480.983 280.785 480.063 278.762 478.5C276.786 476.892 275.246 474.846 274.143 472.364C273.039 469.836 272.488 467.101 272.488 464.159C272.488 461.171 273.039 458.436 274.143 455.954C275.246 453.426 276.809 451.38 278.831 449.818C280.854 448.209 283.152 447.29 285.726 447.06V439.544H288.484V447.06C291.242 447.335 293.356 448.393 294.827 450.231C296.298 452.07 297.034 454.092 297.034 456.299C297.034 457.54 296.666 458.666 295.931 459.677C295.195 460.689 294.184 461.194 292.897 461.194C291.886 461.194 291.081 460.895 290.484 460.298C289.886 459.654 289.587 458.827 289.587 457.816C289.587 456.896 290.116 455.839 291.173 454.644C291.955 453.771 292.345 453.058 292.345 452.507C292.345 451.679 292.023 450.875 291.38 450.093C290.736 449.312 289.771 448.852 288.484 448.714V479.259C290.782 479.259 292.621 478.271 294 476.294C295.379 474.318 296.206 471.996 296.482 469.33H298.275C297.999 472.272 297.08 474.915 295.517 477.259C293.954 479.604 291.61 480.937 288.484 481.258V488.774H285.726V481.258ZM285.726 449.059C282.784 450.53 281.313 455.563 281.313 464.159C281.313 466.595 281.359 468.503 281.451 469.882C281.543 471.215 281.75 472.479 282.072 473.674C282.623 476.018 283.842 477.65 285.726 478.569V449.059Z" fill="white"/>
<path d="M431.486 481.741C428.728 481.741 425.235 480.362 421.006 477.604C418.064 480.086 415.053 481.327 411.973 481.327C410.043 481.327 408.434 480.914 407.147 480.086C405.86 479.213 405.216 477.857 405.216 476.018C405.216 474.915 405.538 473.927 406.182 473.053C406.825 472.134 407.63 471.422 408.595 470.916C409.606 470.41 410.594 470.158 411.56 470.158C413.031 470.158 414.433 470.341 415.766 470.709C417.099 471.077 418.776 471.652 420.799 472.433C421.075 471.376 421.213 470.273 421.213 469.123C421.213 466.411 420.638 463.332 419.489 459.884C418.799 458 418.271 456.138 417.903 454.299C416.892 454.207 416.133 454.161 415.628 454.161C414.433 454.161 413.49 454.276 412.801 454.506C412.157 454.736 411.353 455.127 410.388 455.678L409.284 453.61C409.974 453.012 410.732 452.553 411.56 452.231C412.433 451.863 413.559 451.679 414.938 451.679C415.49 451.679 416.317 451.725 417.42 451.817C417.191 450.208 417.076 448.646 417.076 447.129C417.076 443.635 417.834 440.624 419.351 438.096C420.914 435.522 422.982 433.592 425.556 432.305C428.131 430.972 430.957 430.305 434.037 430.305C436.473 430.305 438.588 430.788 440.38 431.753C442.219 432.718 443.598 433.959 444.517 435.476C445.437 436.947 445.896 438.418 445.896 439.889C445.896 441.406 445.368 442.762 444.311 443.957C443.253 445.152 442.012 445.75 440.587 445.75C439.576 445.75 438.634 445.405 437.76 444.715C436.887 444.026 436.45 443.153 436.45 442.095C436.45 441.176 436.634 440.464 437.002 439.958C437.37 439.406 437.898 438.855 438.588 438.303C439.139 437.798 439.507 437.338 439.691 436.924C439.875 436.51 439.967 436.028 439.967 435.476C439.967 434.695 439.461 433.936 438.45 433.201C437.439 432.465 435.968 432.098 434.037 432.098C431.693 432.098 429.969 433.224 428.866 435.476C427.809 437.683 427.28 440.372 427.28 443.543C427.28 445.796 427.51 449.174 427.97 453.679C429.441 453.909 430.705 454.024 431.762 454.024C432.957 454.024 433.899 453.909 434.589 453.679C435.324 453.403 436.129 453.012 437.002 452.507L438.105 454.575C436.818 455.862 434.934 456.506 432.451 456.506C431.164 456.506 429.762 456.391 428.245 456.161C428.429 458.367 428.521 460.183 428.521 461.608C428.521 463.63 428.154 465.699 427.418 467.813C426.729 469.882 425.763 471.812 424.522 473.605C426.315 474.111 427.993 474.478 429.555 474.708C431.164 474.892 432.888 474.984 434.727 474.984C436.933 474.984 439.002 474.341 440.932 473.053C442.909 471.766 444.494 470.089 445.69 468.02L447.413 468.779C446.08 472.18 444.058 475.191 441.346 477.811C438.68 480.431 435.393 481.741 431.486 481.741ZM411.973 479.673C413.215 479.673 414.433 479.374 415.628 478.776C416.869 478.133 417.949 477.259 418.868 476.156C417.26 475.099 415.835 474.295 414.594 473.743C413.398 473.191 412.249 472.916 411.146 472.916C409.951 472.916 408.986 473.237 408.25 473.881C407.515 474.524 407.147 475.375 407.147 476.432C407.147 477.581 407.63 478.409 408.595 478.914C409.606 479.42 410.732 479.673 411.973 479.673Z" fill="white"/>
<path d="M552.129 471.33L556.817 466.641C554.611 463.791 553.508 460.551 553.508 456.919C553.508 453.288 554.611 450.002 556.817 447.06L552.129 442.371L555.025 439.475L559.713 444.164C561.092 443.107 562.609 442.279 564.264 441.682C565.965 441.084 567.711 440.785 569.504 440.785C571.297 440.785 573.02 441.084 574.675 441.682C576.376 442.279 577.916 443.107 579.295 444.164L583.983 439.475L586.879 442.371L582.191 447.06C584.397 450.002 585.5 453.288 585.5 456.919C585.5 460.551 584.397 463.791 582.191 466.641L586.879 471.33L583.983 474.226L579.295 469.537C576.445 471.789 573.181 472.916 569.504 472.916C565.827 472.916 562.563 471.789 559.713 469.537L555.025 474.226L552.129 471.33ZM569.504 468.503C572.951 468.503 575.732 467.446 577.847 465.331C580.007 463.171 581.087 460.367 581.087 456.919C581.087 453.472 580.007 450.668 577.847 448.508C575.732 446.301 572.951 445.198 569.504 445.198C566.057 445.198 563.253 446.301 561.092 448.508C558.978 450.668 557.921 453.472 557.921 456.919C557.921 460.367 558.978 463.171 561.092 465.331C563.253 467.446 566.057 468.503 569.504 468.503Z" fill="white"/>
<path d="M704.433 478.294H709.397C710.5 478.294 711.052 477.742 711.052 476.639V464.78H701.399V462.573H711.052V458.023H701.399V455.816H710.431L701.95 436.304C701.537 435.43 701.1 434.764 700.64 434.304C700.181 433.844 699.606 433.615 698.917 433.615H697.676V431.408H715.878V433.615H714.223C713.81 433.615 713.488 433.775 713.258 434.097C713.028 434.419 712.913 434.81 712.913 435.269C712.913 435.729 713.074 436.281 713.396 436.924L720.291 452.782L726.083 440.372C726.313 439.912 726.496 439.314 726.634 438.579C726.818 437.798 726.91 437.108 726.91 436.51C726.91 435.913 726.726 435.292 726.358 434.649C725.991 433.959 725.439 433.615 724.704 433.615H722.98V431.408H735.184V433.615H734.081C733.115 433.615 732.265 434.097 731.53 435.063C730.794 436.028 730.059 437.269 729.323 438.786L721.256 455.816H730.909V458.023H721.256V462.573H730.909V464.78H721.256V476.639C721.256 477.742 721.808 478.294 722.911 478.294H727.875V480.5H704.433V478.294Z" fill="white"/>
<path d="M857.93 454.989V430.167H862.618V454.989H857.93ZM857.93 492.083V467.262H862.618V492.083H857.93Z" fill="white"/>
<path d="M1024.44 494.152C1021.96 494.152 1019.82 493.692 1018.03 492.773C1016.24 491.9 1014.88 490.75 1013.96 489.325C1013.09 487.901 1012.65 486.43 1012.65 484.913C1012.65 482.936 1013.23 481.35 1014.38 480.155C1015.57 478.914 1017.02 478.294 1018.72 478.294C1020.01 478.294 1021.04 478.661 1021.82 479.397C1022.65 480.132 1023.06 481.098 1023.06 482.293C1023.06 483.258 1022.83 484.039 1022.37 484.637C1021.96 485.235 1021.34 485.763 1020.51 486.223C1019.87 486.591 1019.32 487.027 1018.86 487.533C1018.4 488.038 1018.17 488.544 1018.17 489.05C1018.17 490.061 1018.86 490.842 1020.24 491.394C1021.66 491.946 1023.11 492.221 1024.58 492.221C1026.83 492.221 1028.74 491.555 1030.3 490.222C1031.87 488.889 1032.65 487.027 1032.65 484.637C1032.65 482.706 1032.21 481.167 1031.34 480.017C1030.51 478.868 1029.22 477.88 1027.48 477.053L1017.07 472.157C1014.68 471.054 1012.86 469.652 1011.62 467.951C1010.38 466.205 1009.76 464.09 1009.76 461.608C1009.76 459.539 1010.26 457.632 1011.27 455.885C1012.29 454.138 1013.55 452.714 1015.07 451.61C1013.46 449.358 1012.65 446.508 1012.65 443.061C1012.65 440.67 1013.25 438.533 1014.45 436.648C1015.69 434.718 1017.34 433.224 1019.41 432.167C1021.52 431.109 1023.85 430.581 1026.37 430.581C1028.86 430.581 1030.99 431.041 1032.79 431.96C1034.58 432.833 1035.91 433.982 1036.79 435.407C1037.7 436.832 1038.16 438.303 1038.16 439.82C1038.16 441.797 1037.57 443.405 1036.37 444.646C1035.22 445.842 1033.8 446.439 1032.1 446.439C1030.81 446.439 1029.75 446.071 1028.92 445.336C1028.14 444.601 1027.75 443.635 1027.75 442.44C1027.75 441.475 1027.96 440.693 1028.37 440.096C1028.83 439.498 1029.48 438.97 1030.3 438.51C1030.95 438.142 1031.5 437.706 1031.96 437.2C1032.42 436.694 1032.65 436.189 1032.65 435.683C1032.65 434.672 1031.96 433.89 1030.58 433.339C1029.2 432.787 1027.75 432.511 1026.24 432.511C1023.98 432.511 1022.08 433.178 1020.51 434.511C1018.95 435.844 1018.17 437.706 1018.17 440.096C1018.17 442.026 1018.58 443.566 1019.41 444.715C1020.28 445.865 1021.59 446.853 1023.34 447.68L1033.75 452.576C1036.14 453.679 1037.96 455.104 1039.2 456.85C1040.44 458.551 1041.06 460.643 1041.06 463.125C1041.06 465.193 1040.55 467.101 1039.54 468.848C1038.53 470.594 1037.27 472.019 1035.75 473.122C1037.36 475.375 1038.16 478.225 1038.16 481.672C1038.16 484.062 1037.54 486.2 1036.3 488.084C1035.11 490.015 1033.45 491.509 1031.34 492.566C1029.27 493.623 1026.97 494.152 1024.44 494.152ZM1034.79 471.95C1035.7 471.261 1036.33 470.571 1036.65 469.882C1037.01 469.192 1037.2 468.388 1037.2 467.469C1037.2 466.411 1036.99 465.492 1036.58 464.711C1036.16 463.883 1035.54 463.263 1034.72 462.849L1020.93 456.23C1018.95 455.265 1017.32 454.115 1016.03 452.782C1015.11 453.472 1014.47 454.161 1014.1 454.851C1013.78 455.54 1013.62 456.345 1013.62 457.264C1013.62 458.321 1013.83 459.264 1014.24 460.091C1014.65 460.872 1015.27 461.47 1016.1 461.884L1029.89 468.503C1031.87 469.468 1033.5 470.617 1034.79 471.95Z" fill="white"/>
<path d="M1153.58 460.048C1152.43 460.048 1151.45 459.657 1150.62 458.876C1149.84 458.048 1149.45 457.06 1149.45 455.911C1149.45 454.762 1149.84 453.797 1150.62 453.015C1151.45 452.188 1152.43 451.774 1153.58 451.774C1154.73 451.774 1155.7 452.188 1156.48 453.015C1157.31 453.797 1157.72 454.762 1157.72 455.911C1157.72 457.06 1157.31 458.048 1156.48 458.876C1155.7 459.657 1154.73 460.048 1153.58 460.048ZM1166.82 460.048C1165.67 460.048 1164.68 459.657 1163.86 458.876C1163.07 458.048 1162.68 457.06 1162.68 455.911C1162.68 454.762 1163.07 453.797 1163.86 453.015C1164.68 452.188 1165.67 451.774 1166.82 451.774C1167.97 451.774 1168.94 452.188 1169.72 453.015C1170.54 453.797 1170.96 454.762 1170.96 455.911C1170.96 457.06 1170.54 458.048 1169.72 458.876C1168.94 459.657 1167.97 460.048 1166.82 460.048Z" fill="white"/>
<path d="M283.929 593.783C279.287 593.783 275.058 592.634 271.243 590.336C267.427 587.991 264.417 584.866 262.21 580.959C260.05 577.005 258.97 572.685 258.97 567.996C258.97 563.308 260.05 559.01 262.21 555.103C264.417 551.15 267.427 548.024 271.243 545.726C275.058 543.381 279.287 542.209 283.929 542.209C288.572 542.209 292.801 543.381 296.616 545.726C300.431 548.024 303.419 551.15 305.579 555.103C307.786 559.01 308.889 563.308 308.889 567.996C308.889 572.685 307.786 577.005 305.579 580.959C303.419 584.866 300.431 587.991 296.616 590.336C292.801 592.634 288.572 593.783 283.929 593.783ZM283.929 591.301C288.066 591.301 291.835 590.244 295.237 588.129C298.638 586.015 301.304 583.188 303.235 579.649C305.166 576.063 306.131 572.179 306.131 567.996C306.131 563.813 305.166 559.952 303.235 556.413C301.304 552.827 298.638 549.977 295.237 547.863C291.835 545.749 288.066 544.691 283.929 544.691C279.792 544.691 276.023 545.749 272.622 547.863C269.22 549.977 266.554 552.827 264.624 556.413C262.693 559.952 261.728 563.813 261.728 567.996C261.728 572.179 262.693 576.063 264.624 579.649C266.554 583.188 269.22 586.015 272.622 588.129C276.023 590.244 279.792 591.301 283.929 591.301ZM283.998 584.958C281.194 584.958 278.781 584.176 276.759 582.613C274.782 581.05 273.288 579.005 272.277 576.477C271.312 573.949 270.829 571.237 270.829 568.341C270.829 565.307 271.335 562.526 272.346 559.998C273.357 557.424 274.805 555.378 276.69 553.862C278.574 552.345 280.781 551.586 283.309 551.586C285.469 551.586 287.492 552.276 289.376 553.655C290.204 554.206 290.755 554.482 291.031 554.482C291.491 554.482 291.835 554.183 292.065 553.586L292.686 552H294.41V565.652H292.755C292.111 561.883 291.031 558.918 289.514 556.757C288.043 554.597 286.297 553.517 284.274 553.517C282.987 553.517 281.884 554.16 280.964 555.447C280.091 556.734 279.654 558.826 279.654 561.722V574.891C279.654 577.741 280.16 579.809 281.171 581.096C282.183 582.383 283.378 583.027 284.757 583.027C287.974 583.027 290.365 581.487 291.927 578.407C292.663 576.937 293.214 574.753 293.582 571.857H295.375C295.237 574.707 294.616 577.189 293.513 579.304C292.594 581.096 291.33 582.498 289.721 583.51C288.112 584.475 286.205 584.958 283.998 584.958Z" fill="white"/>
<path d="M696.705 611.986C695.096 611.986 693.855 611.296 692.982 609.917C692.155 608.584 691.741 607.044 691.741 605.298C691.741 601.758 692.201 597.989 693.12 593.99C693.626 591.508 693.97 588.911 694.154 586.199C693.281 583.717 692.499 580.867 691.81 577.649C691.12 574.431 690.776 571.26 690.776 568.134C690.776 565.79 691.258 563.721 692.224 561.929C693.235 560.09 694.476 559.171 695.947 559.171C697.372 559.171 698.429 559.86 699.118 561.239C699.808 562.618 700.153 564.112 700.153 565.721C700.153 566.87 699.992 568.318 699.67 570.065C699.394 571.811 699.05 573.351 698.636 574.684C697.487 578.361 696.659 581.855 696.154 585.164C697.119 587.83 699.44 589.163 703.118 589.163C704.634 589.163 706.013 588.704 707.254 587.785C708.542 586.819 709.53 585.739 710.219 584.544C710.955 583.303 711.322 582.338 711.322 581.648C709.852 577.373 709.116 572.685 709.116 567.582C709.116 565.514 709.484 563.606 710.219 561.86C710.955 560.067 712.058 559.171 713.529 559.171C715 559.171 716.195 560.044 717.114 561.791C718.033 563.491 718.493 565.583 718.493 568.065C718.493 570.501 718.171 573.305 717.528 576.477C716.884 579.603 716.011 582.315 714.908 584.613C716.011 585.716 717.16 586.268 718.355 586.268C720.056 586.268 721.389 585.693 722.354 584.544C723.366 583.395 724.193 581.648 724.836 579.304L726.078 579.58C726.078 583.303 725.641 586.566 724.768 589.37C723.894 592.174 722.331 593.576 720.079 593.576C718.47 593.576 717.206 593.048 716.287 591.99C715.367 590.933 714.494 589.462 713.667 587.578L713.322 587.647C712.541 589.072 711.391 590.359 709.875 591.508C708.358 592.657 706.703 593.231 704.91 593.231C701.555 593.231 698.544 591.784 695.878 588.888L695.671 588.957C695.533 589.922 695.464 590.749 695.464 591.439C695.464 592.772 695.671 594.036 696.085 595.231C696.544 596.426 697.211 597.828 698.084 599.437C699.004 601.23 699.693 602.7 700.153 603.85C700.658 605.045 700.911 606.125 700.911 607.09C700.911 608.377 700.543 609.503 699.808 610.469C699.072 611.48 698.038 611.986 696.705 611.986Z" fill="white"/>
<path d="M846.526 593.783L876.45 542.209H879.897L849.973 593.783H846.526ZM839.631 571.168H842.665C843.078 571.168 843.354 571.099 843.492 570.961C843.676 570.777 843.768 570.478 843.768 570.065V548.69H839.631V546.76H841.493C842.78 546.76 843.975 546.484 845.078 545.932C846.227 545.335 847.009 544.507 847.422 543.45H851.214V570.065C851.214 570.478 851.283 570.777 851.421 570.961C851.605 571.099 851.904 571.168 852.318 571.168H855.351V572.823H839.631V571.168ZM872.864 590.887H877.277C877.691 590.887 877.967 590.818 878.105 590.68C878.288 590.497 878.38 590.198 878.38 589.784V584.406H868.176V582.406L880.725 563.17H885.827V582.475H890.653V584.406H885.827V589.784C885.827 590.198 885.896 590.497 886.034 590.68C886.218 590.818 886.516 590.887 886.93 590.887H889.964V592.542H872.864V590.887ZM870.796 582.475H878.38V570.892L870.796 582.475Z" fill="white"/>
<path d="M1012.15 593.783L1042.07 542.209H1045.52L1015.6 593.783H1012.15ZM1005.25 571.168H1008.29C1008.7 571.168 1008.98 571.099 1009.12 570.961C1009.3 570.777 1009.39 570.478 1009.39 570.065V548.69H1005.25V546.76H1007.12C1008.4 546.76 1009.6 546.484 1010.7 545.932C1011.85 545.335 1012.63 544.507 1013.05 543.45H1016.84V570.065C1016.84 570.478 1016.91 570.777 1017.04 570.961C1017.23 571.099 1017.53 571.168 1017.94 571.168H1020.97V572.823H1005.25V571.168ZM1047.66 593.369C1045.73 593.369 1043.75 592.312 1041.73 590.198C1041.18 589.6 1040.69 589.186 1040.28 588.957C1039.91 588.681 1039.45 588.543 1038.9 588.543C1038.49 588.543 1038.12 588.681 1037.8 588.957C1037.52 589.232 1037.38 589.577 1037.38 589.991V592.542H1035.45V590.611C1035.45 588.911 1035.8 587.233 1036.49 585.578C1037.18 583.877 1038.72 581.97 1041.11 579.855C1043.36 577.833 1045.04 576.086 1046.14 574.615C1047.29 573.098 1047.86 571.421 1047.86 569.582C1047.86 568.065 1047.54 566.801 1046.9 565.79C1046.26 564.733 1045.18 564.204 1043.66 564.204C1042.6 564.204 1041.73 564.526 1041.04 565.169C1040.35 565.813 1040 566.571 1040 567.445C1040 568.502 1040.4 569.283 1041.18 569.789C1041.82 570.248 1042.28 570.685 1042.56 571.099C1042.88 571.467 1043.04 571.949 1043.04 572.547C1043.04 573.236 1042.74 573.811 1042.14 574.27C1041.54 574.73 1040.81 574.96 1039.94 574.96C1038.6 574.96 1037.45 574.546 1036.49 573.719C1035.52 572.846 1035.04 571.696 1035.04 570.271C1035.04 568.846 1035.48 567.536 1036.35 566.341C1037.22 565.1 1038.42 564.135 1039.94 563.445C1041.45 562.71 1043.13 562.342 1044.97 562.342C1048.37 562.342 1050.94 563.009 1052.69 564.342C1054.44 565.629 1055.31 567.353 1055.31 569.513C1055.31 573.006 1051.56 576.546 1044.07 580.131C1042.88 580.683 1041.66 581.556 1040.42 582.751C1039.18 583.9 1038.4 585.141 1038.07 586.474L1038.35 586.612C1039.45 585.509 1040.6 584.958 1041.8 584.958C1042.76 584.958 1044.05 585.073 1045.66 585.302C1047.04 585.532 1048.39 585.647 1049.73 585.647C1050.83 585.647 1051.73 585.394 1052.42 584.889C1053.15 584.383 1053.52 583.785 1053.52 583.096C1053.52 582.269 1053.43 581.487 1053.24 580.752H1054.83C1055.01 581.855 1055.1 583.004 1055.1 584.199C1055.1 586.589 1054.48 588.727 1053.24 590.611C1052.05 592.45 1050.19 593.369 1047.66 593.369Z" fill="white"/>
<path d="M1144.83 593.783L1174.75 542.209H1178.2L1148.27 593.783H1144.83ZM1143.79 573.65C1141.08 573.65 1138.83 573.075 1137.04 571.926C1135.24 570.731 1134.35 569.145 1134.35 567.169C1134.35 566.02 1134.78 565.031 1135.66 564.204C1136.53 563.331 1137.63 562.894 1138.97 562.894C1140.07 562.894 1140.94 563.147 1141.59 563.652C1142.23 564.158 1142.55 564.801 1142.55 565.583C1142.55 566.87 1141.84 567.789 1140.41 568.341C1140.09 568.479 1139.79 568.663 1139.52 568.892C1139.29 569.122 1139.17 569.375 1139.17 569.651C1139.17 570.386 1139.56 570.961 1140.34 571.375C1141.13 571.788 1142.21 571.995 1143.59 571.995C1145.19 571.995 1146.39 571.421 1147.17 570.271C1148 569.076 1148.41 567.284 1148.41 564.893C1148.41 562.687 1147.98 561.055 1147.1 559.998C1146.23 558.941 1145.15 558.412 1143.86 558.412H1139.24V556.482H1143.72C1145.15 556.482 1146.18 556.022 1146.83 555.103C1147.52 554.137 1147.86 552.643 1147.86 550.621C1147.86 548.185 1147.52 546.53 1146.83 545.657C1146.18 544.737 1145.22 544.278 1143.93 544.278C1142.78 544.278 1141.79 544.576 1140.97 545.174C1140.14 545.726 1139.72 546.461 1139.72 547.38C1139.72 547.702 1139.86 548.024 1140.14 548.346C1140.41 548.621 1140.74 548.851 1141.1 549.035C1142.16 549.633 1142.69 550.437 1142.69 551.448C1142.69 552.092 1142.39 552.666 1141.79 553.172C1141.24 553.632 1140.51 553.862 1139.59 553.862C1138.44 553.862 1137.43 553.448 1136.55 552.62C1135.73 551.793 1135.31 550.782 1135.31 549.587C1135.31 547.518 1136.21 545.84 1138 544.553C1139.79 543.266 1141.98 542.623 1144.55 542.623C1147.72 542.623 1150.3 543.289 1152.27 544.622C1154.3 545.955 1155.31 547.771 1155.31 550.069C1155.31 552.046 1154.5 553.609 1152.89 554.758C1151.33 555.907 1149.42 556.688 1147.17 557.102V557.585C1149.56 557.769 1151.7 558.573 1153.58 559.998C1155.47 561.377 1156.41 563.078 1156.41 565.1C1156.41 567.858 1155.26 569.973 1152.96 571.444C1150.66 572.914 1147.61 573.65 1143.79 573.65ZM1171.17 590.887H1175.58C1175.99 590.887 1176.27 590.818 1176.41 590.68C1176.59 590.497 1176.68 590.198 1176.68 589.784V584.406H1166.48V582.406L1179.03 563.17H1184.13V582.475H1188.95V584.406H1184.13V589.784C1184.13 590.198 1184.2 590.497 1184.33 590.68C1184.52 590.818 1184.82 590.887 1185.23 590.887H1188.26V592.542H1171.17V590.887ZM1169.1 582.475H1176.68V570.892L1169.1 582.475Z" fill="white"/>
<path d="M569.777 588.129V568.824H543.024V564.411H569.777V545.105H574.465V564.411H601.217V568.824H574.465V588.129H569.777ZM543.024 596.955V592.542H600.666V596.955H543.024Z" fill="white"/>
<path d="M416.722 593.541C413.066 593.541 409.879 592.653 407.163 590.877C404.551 589.101 403.245 586.176 403.245 582.102C403.245 577.819 404.865 574.58 408.103 572.386C411.342 570.088 415.729 567.999 421.266 566.118L427.378 563.924V557.656C427.378 551.91 425.184 549.038 420.796 549.038C419.02 549.038 417.453 549.403 416.095 550.134C414.841 550.866 414.215 551.91 414.215 553.268C414.215 554.418 414.789 555.306 415.938 555.932C416.983 556.559 417.714 557.186 418.132 557.813C418.55 558.335 418.759 559.066 418.759 560.007C418.759 561.574 418.132 562.775 416.879 563.611C415.625 564.342 414.215 564.708 412.648 564.708C410.872 564.708 409.252 564.185 407.79 563.141C406.432 561.992 405.753 560.372 405.753 558.283C405.753 554.627 407.424 551.701 410.767 549.508C414.11 547.314 417.819 546.217 421.893 546.217C427.012 546.217 431.4 547.314 435.056 549.508C438.712 551.701 440.541 555.149 440.541 559.85V584.609C440.541 586.803 441.22 587.9 442.578 587.9C443.623 587.9 444.406 587.012 444.928 585.236C445.555 583.355 445.869 581.214 445.869 578.811H449.003C449.003 583.721 448.219 587.325 446.652 589.623C445.921 590.773 444.824 591.713 443.361 592.444C441.899 593.175 440.227 593.541 438.347 593.541C435.526 593.541 433.332 593.071 431.765 592.131C430.198 591.191 428.892 589.728 427.848 587.743H427.691C426.646 589.415 425.132 590.825 423.147 591.974C421.266 593.019 419.125 593.541 416.722 593.541ZM421.736 588.84C424.035 588.84 425.915 587.639 427.378 585.236V566.745L422.99 568.312C419.02 569.774 417.035 574.005 417.035 581.005C417.035 583.93 417.505 585.967 418.446 587.116C419.49 588.265 420.587 588.84 421.736 588.84ZM404.499 602.316V597.302H447.749V602.316H404.499Z" fill="white"/>
<path d="M302.082 664.631C299.002 663.482 295.669 661.827 292.084 659.667C289.924 658.334 288.062 657.369 286.499 656.771C284.982 656.128 283.465 655.806 281.948 655.806C279.145 655.806 276.869 656.335 275.123 657.392C273.376 658.449 271.491 660.242 269.469 662.77L267.262 660.908C269.377 658.196 271.583 656.22 273.881 654.979C276.18 653.691 278.869 653.048 281.948 653.048C284.109 653.048 286.292 653.37 288.499 654.013C290.705 654.611 293.118 655.507 295.738 656.702C298.772 658.081 302.495 659.552 306.908 661.115L302.082 664.631ZM287.051 670.216C287.051 667.964 286.568 666.056 285.603 664.494C284.683 662.885 283.029 662.08 280.638 662.08C279.627 662.08 278.823 662.379 278.225 662.977C277.674 663.574 277.398 664.356 277.398 665.321C277.398 665.827 277.421 666.24 277.467 666.562C277.559 666.838 277.697 667.183 277.88 667.596L276.639 668.217C275.398 667.068 274.778 665.597 274.778 663.804C274.778 662.149 275.352 660.747 276.501 659.598C277.651 658.403 279.145 657.805 280.983 657.805C283.925 657.805 285.993 658.725 287.189 660.563C288.384 662.402 288.981 664.585 288.981 667.114C288.981 667.941 288.912 668.837 288.774 669.803L287.051 670.492V670.216ZM270.434 719.998C265.745 719.998 261.631 718.848 258.092 716.55C254.553 714.206 251.841 711.08 249.956 707.173C248.071 703.22 247.129 698.876 247.129 694.142C247.129 689.407 248.026 685.086 249.818 681.179C251.611 677.226 254.185 674.1 257.54 671.802C260.942 669.504 264.918 668.355 269.469 668.355C271.951 668.355 273.996 668.883 275.605 669.94C277.26 670.952 278.432 672.193 279.122 673.664C279.857 675.135 280.225 676.491 280.225 677.732C280.225 679.616 279.673 681.202 278.57 682.489C277.513 683.73 276.019 684.351 274.088 684.351C272.709 684.351 271.491 683.937 270.434 683.11C269.423 682.236 268.917 681.041 268.917 679.524C268.917 678.559 269.078 677.778 269.4 677.18C269.721 676.583 270.181 675.985 270.779 675.387C271.652 674.514 272.089 673.641 272.089 672.767C272.089 672.216 271.859 671.733 271.399 671.319C270.94 670.86 270.112 670.63 268.917 670.63C265.562 670.63 263.033 671.963 261.333 674.629C259.678 677.295 258.851 680.765 258.851 685.04V703.243C258.851 707.564 259.77 711.057 261.608 713.723C263.493 716.389 266.435 717.722 270.434 717.722C273.376 717.722 275.421 716.941 276.57 715.378C277.72 713.769 278.294 711.77 278.294 709.379V698.83C278.294 698.187 278.179 697.75 277.949 697.52C277.72 697.29 277.283 697.175 276.639 697.175H272.778V694.969H294.015V697.175H290.153C289.556 697.175 289.119 697.29 288.843 697.52C288.614 697.75 288.499 698.187 288.499 698.83V709.379C288.499 711.77 289.073 713.769 290.222 715.378C291.372 716.941 293.417 717.722 296.359 717.722C300.358 717.722 303.277 716.389 305.115 713.723C307 711.057 307.942 707.564 307.942 703.243V685.04C307.942 680.765 307.092 677.295 305.391 674.629C303.736 671.963 301.231 670.63 297.876 670.63C296.681 670.63 295.853 670.86 295.394 671.319C294.934 671.733 294.704 672.216 294.704 672.767C294.704 673.641 295.141 674.514 296.014 675.387C296.612 675.985 297.071 676.583 297.393 677.18C297.715 677.778 297.876 678.559 297.876 679.524C297.876 681.041 297.347 682.236 296.29 683.11C295.279 683.937 294.084 684.351 292.705 684.351C290.774 684.351 289.257 683.73 288.154 682.489C287.097 681.202 286.568 679.616 286.568 677.732C286.568 676.491 286.913 675.135 287.602 673.664C288.338 672.193 289.51 670.952 291.119 669.94C292.773 668.883 294.842 668.355 297.324 668.355C301.875 668.355 305.828 669.504 309.183 671.802C312.585 674.1 315.182 677.226 316.975 681.179C318.767 685.086 319.664 689.407 319.664 694.142C319.664 698.876 318.721 703.22 316.837 707.173C314.952 711.08 312.24 714.206 308.701 716.55C305.161 718.848 301.047 719.998 296.359 719.998C292.957 719.998 290.222 719.262 288.154 717.791C286.085 716.32 284.569 714.62 283.603 712.689H283.19C282.224 714.62 280.707 716.32 278.639 717.791C276.57 719.262 273.835 719.998 270.434 719.998Z" fill="white"/>
<path d="M406.036 712.094C402.496 712.094 399.187 710.876 396.107 708.439C393.027 705.957 390.568 702.74 388.729 698.786C386.937 694.787 386.04 690.627 386.04 686.307C386.04 681.986 386.937 677.849 388.729 673.896C390.568 669.897 393.027 666.679 396.107 664.243C399.187 661.761 402.496 660.52 406.036 660.52C409.575 660.52 412.884 661.761 415.964 664.243C419.044 666.679 421.48 669.897 423.273 673.896C425.111 677.849 426.031 681.986 426.031 686.307C426.031 690.627 425.111 694.787 423.273 698.786C421.48 702.74 419.044 705.957 415.964 708.439C412.884 710.876 409.575 712.094 406.036 712.094ZM406.036 709.887C408.794 709.887 410.862 708.876 412.241 706.853C413.62 704.831 414.309 701.429 414.309 696.649V675.964C414.309 671.184 413.62 667.782 412.241 665.76C410.862 663.737 408.794 662.726 406.036 662.726C403.278 662.726 401.209 663.737 399.83 665.76C398.451 667.782 397.762 671.184 397.762 675.964V696.649C397.762 701.429 398.451 704.831 399.83 706.853C401.209 708.876 403.278 709.887 406.036 709.887ZM449.473 727.193C447.911 727.102 446.486 726.527 445.199 725.47C443.912 724.413 443.268 723.08 443.268 721.471C443.268 720.046 443.59 718.253 444.233 716.093L445.405 712.094L434.236 683.824C433.638 682.354 433.041 681.319 432.443 680.722C431.891 680.124 431.018 679.825 429.823 679.825H428.927V678.171H445.888V679.825H443.958C443.544 679.825 443.153 679.986 442.785 680.308C442.464 680.63 442.303 681.067 442.303 681.618C442.303 682.262 442.441 682.905 442.716 683.549L449.06 699.89L453.955 683.273C454.507 681.434 455.242 679.986 456.162 678.929C457.127 677.872 458.529 677.343 460.367 677.343C462.022 677.343 463.286 677.895 464.16 678.998C465.033 680.101 465.47 681.319 465.47 682.652C465.47 684.077 465.079 685.295 464.298 686.307C463.562 687.318 462.528 687.824 461.195 687.824C460.138 687.824 459.264 687.571 458.575 687.065C457.931 686.514 457.609 685.801 457.609 684.928C457.609 683.87 458.023 682.997 458.851 682.308C459.264 681.986 459.54 681.733 459.678 681.549C459.816 681.319 459.885 681.044 459.885 680.722C459.885 680.446 459.793 680.239 459.609 680.101C459.425 679.917 459.172 679.825 458.851 679.825C458.207 679.825 457.609 680.147 457.058 680.791C456.552 681.434 456.07 682.537 455.61 684.1L447.681 710.921L446.716 714.369C446.44 715.288 446.302 716.07 446.302 716.713C446.302 717.77 446.83 718.667 447.888 719.402C448.991 720.138 450.439 720.735 452.231 721.195L449.473 727.193Z" fill="white"/>
<path d="M560.331 658.978C559.09 658.012 558.469 656.955 558.469 655.806C558.469 655.07 558.722 654.45 559.227 653.944C559.779 653.439 560.446 653.186 561.227 653.186C562.514 653.186 563.594 653.921 564.468 655.392L570.328 664.907L568.949 666.148L560.331 658.978ZM569.57 658.978C568.329 658.012 567.708 656.955 567.708 655.806C567.708 655.07 567.961 654.45 568.467 653.944C569.018 653.439 569.685 653.186 570.466 653.186C571.753 653.186 572.833 653.921 573.707 655.392L579.567 664.907L578.188 666.148L569.57 658.978ZM550.333 675.801C549.735 674.238 549.092 673.181 548.402 672.63C547.713 672.078 546.633 671.802 545.162 671.802H542.887V669.596H566.398V671.802H562.951C562.307 671.802 561.756 671.986 561.296 672.354C560.836 672.675 560.606 673.066 560.606 673.526C560.606 674.031 560.698 674.537 560.882 675.043L572.259 704.346L580.05 677.594C580.372 676.399 580.809 675.227 581.36 674.077C581.912 672.882 582.509 671.917 583.153 671.182C584.899 669.113 587.152 668.079 589.91 668.079C592.3 668.079 594.093 668.837 595.288 670.354C596.483 671.825 597.08 673.595 597.08 675.663C597.08 677.962 596.437 679.869 595.15 681.386C593.909 682.857 592.277 683.592 590.255 683.592C588.738 683.592 587.497 683.179 586.531 682.351C585.566 681.478 585.083 680.352 585.083 678.973C585.083 678.191 585.29 677.387 585.704 676.56C586.164 675.732 586.715 675.066 587.359 674.56C588.416 673.733 588.945 672.951 588.945 672.216C588.945 671.48 588.623 671.113 587.979 671.113C586.83 671.113 585.773 671.848 584.808 673.319C583.934 674.606 583.107 676.56 582.325 679.18L570.397 719.929H567.501L550.333 675.801Z" fill="white"/>
<path d="M696.461 716.481H701.287C701.931 716.481 702.367 716.366 702.597 716.136C702.827 715.861 702.942 715.424 702.942 714.826V707.449H691.841L679.637 680.352C679.085 679.111 678.488 678.237 677.844 677.732C677.247 677.226 676.327 676.973 675.086 676.973H674.121V674.767H693.703V676.973H691.772C690.761 677.019 690.255 677.548 690.255 678.559C690.255 679.065 690.37 679.547 690.6 680.007L701.563 705.242H702.942V673.457C702.942 672.813 702.827 672.377 702.597 672.147C702.367 671.917 701.931 671.802 701.287 671.802H696.461V669.596H719.627V671.802H714.801C714.203 671.802 713.767 671.917 713.491 672.147C713.261 672.377 713.146 672.813 713.146 673.457V705.242H713.491L723.489 681.731C724.73 678.881 726.132 676.835 727.694 675.594C729.257 674.353 731.142 673.733 733.348 673.733C735.325 673.733 736.888 674.491 738.037 676.008C739.186 677.479 739.761 679.134 739.761 680.972C739.761 683.225 739.117 685.063 737.83 686.488C736.589 687.913 735.026 688.626 733.141 688.626C731.717 688.626 730.498 688.212 729.487 687.385C728.522 686.557 728.039 685.546 728.039 684.351C728.039 683.753 728.154 683.179 728.384 682.627C728.614 682.076 728.982 681.478 729.487 680.834C729.855 680.421 730.131 680.03 730.315 679.662C730.544 679.295 730.659 678.95 730.659 678.628C730.659 677.939 730.315 677.594 729.625 677.594C728.982 677.594 728.361 677.962 727.763 678.697C727.212 679.432 726.614 680.536 725.971 682.007L715.077 707.449H713.146V714.826C713.146 715.424 713.261 715.861 713.491 716.136C713.767 716.366 714.203 716.481 714.801 716.481H719.627V718.688H696.461V716.481Z" fill="white"/>
<path d="M869.657 724.203C868.232 724.203 867.014 723.721 866.002 722.755C864.991 721.836 864.416 720.687 864.279 719.308C860.555 718.435 857.108 716.734 853.936 714.206C850.81 711.678 848.328 708.644 846.49 705.105C844.651 701.565 843.732 697.911 843.732 694.142C843.732 690.372 844.651 686.718 846.49 683.179C848.328 679.639 850.81 676.606 853.936 674.077C857.108 671.549 860.555 669.849 864.279 668.975C864.416 667.596 864.991 666.447 866.002 665.528C867.014 664.562 868.232 664.08 869.657 664.08C871.082 664.08 872.3 664.562 873.311 665.528C874.322 666.447 874.897 667.596 875.035 668.975C878.758 669.849 882.182 671.549 885.308 674.077C888.48 676.606 890.985 679.639 892.823 683.179C894.662 686.718 895.581 690.372 895.581 694.142C895.581 697.911 894.662 701.565 892.823 705.105C890.985 708.644 888.48 711.678 885.308 714.206C882.182 716.734 878.758 718.435 875.035 719.308C874.897 720.687 874.322 721.836 873.311 722.755C872.3 723.721 871.082 724.203 869.657 724.203ZM864.623 716.964C864.991 715.907 865.635 715.056 866.554 714.413C867.473 713.769 868.507 713.447 869.657 713.447C870.806 713.447 871.84 713.769 872.759 714.413C873.679 715.056 874.322 715.907 874.69 716.964C877.54 716.044 879.769 714.413 881.378 712.068C883.033 709.678 883.86 706.782 883.86 703.381V684.902C883.86 681.501 883.033 678.628 881.378 676.284C879.769 673.894 877.54 672.239 874.69 671.319C874.322 672.377 873.679 673.227 872.759 673.871C871.84 674.514 870.806 674.836 869.657 674.836C868.507 674.836 867.473 674.514 866.554 673.871C865.635 673.227 864.991 672.377 864.623 671.319C861.773 672.239 859.521 673.894 857.866 676.284C856.257 678.628 855.453 681.501 855.453 684.902V703.381C855.453 706.782 856.257 709.678 857.866 712.068C859.521 714.413 861.773 716.044 864.623 716.964Z" fill="white"/>
<path d="M1034.34 716.481H1039.17C1039.81 716.481 1040.25 716.366 1040.48 716.136C1040.71 715.861 1040.82 715.424 1040.82 714.826V698.692C1040.82 698.049 1040.71 697.612 1040.48 697.382C1040.25 697.152 1039.81 697.037 1039.17 697.037H1033.1C1024.92 697.037 1020.83 693.268 1020.83 685.73V673.457C1020.83 672.813 1020.71 672.377 1020.48 672.147C1020.25 671.917 1019.82 671.802 1019.17 671.802H1014.35V669.596H1036.55V671.802H1032.69C1032.09 671.802 1031.65 671.917 1031.38 672.147C1031.15 672.377 1031.03 672.813 1031.03 673.457V688.833C1031.03 691.085 1031.49 692.648 1032.41 693.521C1033.33 694.394 1034.67 694.831 1036.41 694.831H1049.37C1050.02 694.831 1050.45 694.946 1050.68 695.176C1050.91 695.406 1051.03 695.842 1051.03 696.486V714.826C1051.03 715.424 1051.14 715.861 1051.37 716.136C1051.65 716.366 1052.09 716.481 1052.68 716.481H1057.51V718.688H1034.34V716.481Z" fill="white"/>
<path d="M1160.41 736.063C1156.46 736.063 1153.31 735.12 1150.96 733.236C1148.66 731.397 1147.52 728.938 1147.52 725.858C1147.52 722.273 1148.66 719.584 1150.96 717.791C1153.31 715.998 1156.52 714.551 1160.62 713.447C1164.38 712.39 1167.12 710.988 1168.82 709.241C1170.52 707.495 1171.37 705.311 1171.37 702.691C1171.37 696.44 1168.61 693.314 1163.1 693.314C1160.71 693.314 1158.85 694.463 1157.51 696.762C1156.23 699.014 1155.47 701.657 1155.24 704.691H1153.03L1153.58 690.832H1162.61C1165.28 690.832 1167.26 689.798 1168.54 687.729C1169.88 685.661 1170.54 683.179 1170.54 680.283C1170.54 677.387 1169.85 675.043 1168.48 673.25C1167.1 671.457 1165.12 670.561 1162.55 670.561C1160.02 670.561 1158.09 670.975 1156.75 671.802C1155.47 672.63 1154.82 673.595 1154.82 674.698C1154.82 675.342 1154.94 675.847 1155.17 676.215C1155.44 676.537 1155.79 676.835 1156.2 677.111C1157.86 678.122 1158.68 679.524 1158.68 681.317C1158.68 682.466 1158.29 683.455 1157.51 684.282C1156.73 685.063 1155.56 685.454 1154 685.454C1152.53 685.454 1151.22 684.902 1150.07 683.799C1148.92 682.696 1148.34 681.179 1148.34 679.249C1148.34 676.675 1149.38 674.376 1151.45 672.354C1153.51 670.331 1156.2 669.044 1159.51 668.493L1154.13 657.461H1160.96L1165.1 666.079L1167.72 660.632C1168.91 658.058 1170.61 656.771 1172.82 656.771C1173.92 656.771 1174.8 657.139 1175.44 657.874C1176.13 658.61 1176.47 659.529 1176.47 660.632C1176.47 661.506 1176.15 662.333 1175.51 663.115C1174.86 663.896 1174.04 664.287 1173.03 664.287C1172.29 664.287 1171.67 664.08 1171.16 663.666C1170.66 663.206 1170.41 662.632 1170.41 661.942C1170.41 661.345 1170.61 660.839 1171.03 660.426C1171.21 660.242 1171.35 660.058 1171.44 659.874C1171.58 659.644 1171.65 659.483 1171.65 659.391C1171.65 659.253 1171.58 659.161 1171.44 659.115C1171.35 659.024 1171.26 658.978 1171.16 658.978C1170.89 658.978 1170.61 659.115 1170.34 659.391C1170.06 659.621 1169.81 659.943 1169.58 660.357L1165.65 668.493C1169.28 668.86 1172.22 669.688 1174.47 670.975C1176.77 672.262 1178.4 673.756 1179.37 675.456C1180.38 677.111 1180.89 678.812 1180.89 680.559C1180.89 682.581 1180.24 684.397 1178.96 686.006C1177.67 687.614 1176.04 688.901 1174.06 689.867C1172.08 690.832 1170.13 691.384 1168.2 691.522V692.211C1170.59 692.303 1172.87 692.855 1175.03 693.866C1177.23 694.877 1179 696.279 1180.33 698.072C1181.71 699.818 1182.4 701.795 1182.4 704.001C1182.4 708.966 1180.54 712.735 1176.82 715.309C1173.1 717.837 1167.6 719.837 1160.34 721.308C1157.12 721.951 1154.89 722.824 1153.65 723.928C1152.41 725.077 1151.79 726.456 1151.79 728.065C1151.79 729.903 1152.59 731.328 1154.2 732.339C1155.86 733.351 1157.9 733.856 1160.34 733.856C1162.22 733.856 1163.72 733.328 1164.82 732.27C1165.92 731.213 1166.82 729.903 1167.51 728.34C1168.06 727.099 1168.75 726.042 1169.58 725.169C1170.41 724.295 1171.35 723.859 1172.41 723.859C1173.46 723.859 1174.29 724.157 1174.89 724.755C1175.49 725.399 1175.78 726.203 1175.78 727.168C1175.78 728.639 1175.07 730.064 1173.65 731.443C1172.27 732.822 1170.41 733.925 1168.06 734.753C1165.72 735.626 1163.17 736.063 1160.41 736.063Z" fill="white"/>
<path d="M974.275 154.294H979.101C979.745 154.294 980.181 154.179 980.411 153.949C980.641 153.673 980.756 153.236 980.756 152.639V111.269C980.756 110.626 980.641 110.189 980.411 109.959C980.181 109.73 979.745 109.615 979.101 109.615H974.275V107.408H1011.37L1011.92 128.024H1009.71C1009.62 127.702 1009.42 126.967 1009.09 125.818C1008.82 124.623 1008.4 123.267 1007.85 121.75C1007.35 120.187 1006.77 118.808 1006.13 117.613C1003.23 112.281 1000.13 109.615 996.821 109.615H992.615C992.018 109.615 991.581 109.73 991.305 109.959C991.075 110.189 990.961 110.626 990.961 111.269V152.639C990.961 153.236 991.075 153.673 991.305 153.949C991.581 154.179 992.018 154.294 992.615 154.294H998.89V156.5H974.275V154.294ZM1014.8 157.327C1013.05 157.327 1011.63 156.753 1010.52 155.604C1009.47 154.455 1008.94 153.099 1008.94 151.536C1008.94 150.111 1009.4 148.916 1010.32 147.95C1011.28 146.939 1012.41 146.433 1013.7 146.433C1014.94 146.433 1015.86 146.801 1016.45 147.537C1017.05 148.226 1017.35 148.962 1017.35 149.743C1017.35 150.57 1017 151.375 1016.32 152.156C1016.13 152.386 1015.97 152.616 1015.83 152.846C1015.74 153.03 1015.69 153.259 1015.69 153.535C1015.69 153.903 1015.79 154.179 1015.97 154.363C1016.2 154.5 1016.45 154.569 1016.73 154.569C1017.65 154.569 1018.5 153.719 1019.28 152.018C1020.11 150.272 1020.64 147.422 1020.87 143.469L1021.42 134.85C1021.6 131.862 1021.69 129.633 1021.69 128.162C1021.69 127.38 1021.56 126.737 1021.28 126.231C1021.05 125.726 1020.54 125.473 1019.76 125.473H1017.21V123.818H1041.34V125.473H1038.72C1038.31 125.473 1038.01 125.565 1037.83 125.749C1037.69 125.887 1037.62 126.162 1037.62 126.576V153.742C1037.62 154.156 1037.69 154.455 1037.83 154.638C1038.01 154.776 1038.31 154.845 1038.72 154.845H1041.34V156.5H1025.9V154.845H1028.52C1028.93 154.845 1029.21 154.776 1029.35 154.638C1029.53 154.455 1029.62 154.156 1029.62 153.742V126.576C1029.62 126.162 1029.53 125.887 1029.35 125.749C1029.21 125.565 1028.93 125.473 1028.52 125.473H1026.8C1025.69 125.473 1024.89 125.887 1024.38 126.714C1023.88 127.495 1023.58 128.736 1023.49 130.437L1022.59 144.02C1022.13 152.892 1019.53 157.327 1014.8 157.327ZM1046.89 154.845H1049.51C1049.93 154.845 1050.2 154.776 1050.34 154.638C1050.52 154.455 1050.61 154.156 1050.61 153.742V126.576C1050.61 126.162 1050.52 125.887 1050.34 125.749C1050.2 125.565 1049.93 125.473 1049.51 125.473H1046.89V123.818H1061.92V125.473H1059.72C1059.3 125.473 1059 125.565 1058.82 125.749C1058.68 125.887 1058.61 126.162 1058.61 126.576V148.364L1069.09 127.817V126.576C1069.09 126.162 1069 125.887 1068.82 125.749C1068.68 125.565 1068.4 125.473 1067.99 125.473H1065.78V123.818H1080.81V125.473H1078.19C1077.78 125.473 1077.48 125.565 1077.3 125.749C1077.16 125.887 1077.09 126.162 1077.09 126.576V153.742C1077.09 154.156 1077.16 154.455 1077.3 154.638C1077.48 154.776 1077.78 154.845 1078.19 154.845H1080.81V156.5H1065.78V154.845H1067.99C1068.4 154.845 1068.68 154.776 1068.82 154.638C1069 154.455 1069.09 154.156 1069.09 153.742V131.954L1058.61 152.501V153.742C1058.61 154.156 1058.68 154.455 1058.82 154.638C1059 154.776 1059.3 154.845 1059.72 154.845H1061.92V156.5H1046.89V154.845ZM1100.55 171.807C1101.75 170.887 1102.6 169.899 1103.1 168.842C1103.66 167.785 1103.98 166.681 1104.07 165.532C1104.21 164.429 1104.28 162.912 1104.28 160.982V153.121H1104.14C1103.72 154.363 1102.97 155.374 1101.86 156.155C1100.81 156.937 1099.54 157.327 1098.07 157.327C1095.77 157.327 1093.75 156.546 1092 154.983C1090.3 153.42 1088.99 151.329 1088.07 148.709C1087.2 146.089 1086.76 143.239 1086.76 140.159C1086.76 137.079 1087.2 134.229 1088.07 131.609C1088.99 128.989 1090.3 126.898 1092 125.335C1093.75 123.772 1095.77 122.991 1098.07 122.991C1099.4 122.991 1100.6 123.496 1101.66 124.508C1102.76 125.473 1103.59 126.645 1104.14 128.024H1104.28V120.922C1104.28 118.992 1104.21 117.475 1104.07 116.372C1103.98 115.268 1103.66 114.188 1103.1 113.131C1102.6 112.074 1101.75 111.086 1100.55 110.166L1101.31 109.063C1103.1 109.982 1104.64 111.361 1105.93 113.2C1107.22 115.039 1108 116.877 1108.27 118.716C1108.55 116.877 1109.33 115.039 1110.62 113.2C1111.91 111.361 1113.45 109.982 1115.24 109.063L1116 110.166C1114.85 111.086 1114 112.074 1113.45 113.131C1112.89 114.188 1112.55 115.268 1112.41 116.372C1112.32 117.475 1112.27 118.992 1112.27 120.922V128.024H1112.41C1112.96 126.645 1113.77 125.473 1114.82 124.508C1115.93 123.496 1117.15 122.991 1118.48 122.991C1120.78 122.991 1122.78 123.772 1124.48 125.335C1126.22 126.898 1127.53 128.989 1128.41 131.609C1129.33 134.229 1129.79 137.079 1129.79 140.159C1129.79 143.239 1129.33 146.089 1128.41 148.709C1127.53 151.329 1126.22 153.42 1124.48 154.983C1122.78 156.546 1120.78 157.327 1118.48 157.327C1117.01 157.327 1115.72 156.937 1114.62 156.155C1113.56 155.374 1112.83 154.363 1112.41 153.121H1112.27V161.051C1112.27 162.981 1112.32 164.498 1112.41 165.601C1112.55 166.704 1112.89 167.785 1113.45 168.842C1114 169.899 1114.85 170.887 1116 171.807L1115.24 172.91C1113.45 171.991 1111.91 170.612 1110.62 168.773C1109.33 166.934 1108.55 165.096 1108.27 163.257C1108 165.096 1107.22 166.934 1105.93 168.773C1104.64 170.612 1103.1 171.991 1101.31 172.91L1100.55 171.807ZM1099.04 155.397C1100.78 155.397 1102.09 154.294 1102.97 152.087C1103.84 149.881 1104.28 147.261 1104.28 144.227V136.022C1104.28 134.183 1104.02 132.414 1103.52 130.713C1103.01 128.966 1102.35 127.564 1101.52 126.507C1100.74 125.45 1099.91 124.921 1099.04 124.921C1097.56 124.921 1096.62 126.346 1096.21 129.196C1095.79 132 1095.59 135.654 1095.59 140.159C1095.59 144.664 1095.79 148.341 1096.21 151.191C1096.62 153.995 1097.56 155.397 1099.04 155.397ZM1117.51 155.397C1118.98 155.397 1119.93 153.995 1120.34 151.191C1120.75 148.341 1120.96 144.664 1120.96 140.159C1120.96 135.654 1120.75 132 1120.34 129.196C1119.93 126.346 1118.98 124.921 1117.51 124.921C1116.64 124.921 1115.79 125.45 1114.96 126.507C1114.18 127.564 1113.54 128.966 1113.03 130.713C1112.53 132.414 1112.27 134.183 1112.27 136.022V144.227C1112.27 147.261 1112.71 149.881 1113.58 152.087C1114.46 154.294 1115.77 155.397 1117.51 155.397ZM1135.7 154.845H1138.32C1138.74 154.845 1139.01 154.776 1139.15 154.638C1139.34 154.455 1139.43 154.156 1139.43 153.742V126.576C1139.43 126.162 1139.34 125.887 1139.15 125.749C1139.01 125.565 1138.74 125.473 1138.32 125.473H1135.7V123.818H1151.01V125.473H1148.67C1148.21 125.473 1147.89 125.588 1147.7 125.818C1147.52 126.047 1147.43 126.461 1147.43 127.059V138.711H1153.36C1156.2 138.711 1158.57 139.562 1160.46 141.262C1162.34 142.963 1163.28 145.054 1163.28 147.537C1163.28 149.191 1162.85 150.708 1161.97 152.087C1161.15 153.42 1159.97 154.5 1158.46 155.328C1156.94 156.109 1155.24 156.5 1153.36 156.5H1135.7V154.845ZM1162.32 154.845H1164.52C1164.94 154.845 1165.21 154.776 1165.35 154.638C1165.54 154.455 1165.63 154.156 1165.63 153.742V126.576C1165.63 126.162 1165.54 125.887 1165.35 125.749C1165.21 125.565 1164.94 125.473 1164.52 125.473H1162.32V123.818H1177.35V125.473H1174.73C1174.32 125.473 1174.02 125.565 1173.83 125.749C1173.7 125.887 1173.63 126.162 1173.63 126.576V153.742C1173.63 154.156 1173.7 154.455 1173.83 154.638C1174.02 154.776 1174.32 154.845 1174.73 154.845H1177.35V156.5H1162.32V154.845ZM1150.46 154.845C1151.88 154.845 1152.96 154.156 1153.7 152.777C1154.48 151.398 1154.87 149.651 1154.87 147.537C1154.87 145.422 1154.5 143.698 1153.77 142.365C1153.03 141.032 1151.93 140.366 1150.46 140.366H1147.43V153.742C1147.43 154.156 1147.49 154.455 1147.63 154.638C1147.82 154.776 1148.11 154.845 1148.53 154.845H1150.46ZM1189.73 133.747C1188.17 133.747 1186.88 133.241 1185.87 132.23C1184.86 131.219 1184.35 129.932 1184.35 128.369C1184.35 126.806 1184.86 125.519 1185.87 124.508C1186.88 123.496 1188.17 122.991 1189.73 122.991C1191.3 122.991 1192.58 123.496 1193.59 124.508C1194.6 125.519 1195.11 126.806 1195.11 128.369C1195.11 129.932 1194.6 131.219 1193.59 132.23C1192.58 133.241 1191.3 133.747 1189.73 133.747ZM1189.73 157.327C1188.17 157.327 1186.88 156.822 1185.87 155.811C1184.86 154.799 1184.35 153.512 1184.35 151.949C1184.35 150.387 1184.86 149.099 1185.87 148.088C1186.88 147.077 1188.17 146.571 1189.73 146.571C1191.3 146.571 1192.58 147.077 1193.59 148.088C1194.6 149.099 1195.11 150.387 1195.11 151.949C1195.11 153.512 1194.6 154.799 1193.59 155.811C1192.58 156.822 1191.3 157.327 1189.73 157.327Z" fill="white"/>
</svg>
