<svg width="953" height="466" viewBox="0 0 953 466" fill="none" xmlns="http://www.w3.org/2000/svg">
<path d="M114.63 206.385C175.526 203.914 198.343 221.659 198.359 224.914C198.375 228.168 147.397 231.058 104.292 231.27C61.1862 231.482 1.0121 209.639 0.996094 206.384C0.670882 140.285 53.7327 208.856 114.63 206.385Z" fill="#9D9B37"/>
<path d="M152.082 308.991C193.401 346.809 210.553 371.283 207.639 373.383C204.726 375.483 169.4 344.352 141.533 316.596C113.666 288.84 81.1189 226.154 84.0321 224.054C98.0955 209.464 110.763 271.173 152.082 308.991Z" fill="#9D9B37"/>
<path d="M119.901 218.391C106.422 168.117 105.999 139.638 109.759 139.049C113.518 138.46 125.75 180.4 133.514 216.257C141.279 252.115 132.507 320.245 128.747 320.834C107.974 327.54 133.379 268.664 119.901 218.391Z" fill="#9D9B37"/>
<path d="M429.554 174.437C479.783 173.801 520.792 191.839 521.152 214.725C521.511 237.611 481.083 256.679 430.855 257.314C380.626 257.95 339.616 239.912 339.257 217.026C338.898 194.14 379.325 175.072 429.554 174.437Z" fill="#8C3265"/>
<path fill-rule="evenodd" clip-rule="evenodd" d="M491.698 189.595C476.007 182.693 454.062 178.447 429.622 178.756C405.181 179.065 383.379 183.865 367.91 191.161C352.234 198.554 344.213 207.871 344.356 216.962C344.498 226.052 352.808 235.162 368.71 242.156C384.402 249.058 406.346 253.304 430.787 252.995C455.227 252.686 477.03 247.886 492.498 240.591C508.174 233.197 516.195 223.88 516.053 214.79C515.91 205.699 507.6 196.589 491.698 189.595ZM521.152 214.725C520.792 191.839 479.783 173.801 429.554 174.437C379.325 175.072 338.898 194.14 339.257 217.026C339.616 239.912 380.626 257.95 430.855 257.314C481.083 256.679 521.511 237.611 521.152 214.725Z" fill="#521330"/>
<path d="M511.22 208.373C545.809 207.936 574.14 226.134 574.5 249.02C574.859 271.906 547.11 290.813 512.521 291.251C477.932 291.688 449.6 273.49 449.241 250.604C448.882 227.718 476.631 208.811 511.22 208.373Z" fill="#8C3265"/>
<path fill-rule="evenodd" clip-rule="evenodd" d="M569.401 249.084C569.094 229.516 544.306 212.275 511.288 212.692C478.27 213.11 454.033 230.972 454.34 250.54C454.647 270.108 479.435 287.349 512.453 286.932C545.471 286.514 569.708 268.652 569.401 249.084ZM574.5 249.02C574.14 226.134 545.809 207.936 511.22 208.373C476.631 208.811 448.882 227.718 449.241 250.604C449.6 273.49 477.932 291.688 512.521 291.251C547.11 290.813 574.859 271.906 574.5 249.02Z" fill="#521330"/>
<path d="M563.374 148.259C597.964 147.822 626.295 166.02 626.654 188.906C627.013 211.792 599.264 230.699 564.675 231.137C530.086 231.575 501.755 213.376 501.396 190.49C501.037 167.604 528.785 148.697 563.374 148.259Z" fill="#8C3265"/>
<path d="M563.374 148.259C597.964 147.822 626.295 166.02 626.654 188.906C627.013 211.792 599.264 230.699 564.675 231.137C530.086 231.575 501.755 213.376 501.396 190.49C501.037 167.604 528.785 148.697 563.374 148.259Z" fill="#8C3265"/>
<path fill-rule="evenodd" clip-rule="evenodd" d="M621.555 188.97C621.248 169.402 596.46 152.161 563.442 152.578C530.425 152.996 506.187 170.858 506.494 190.426C506.802 209.994 531.59 227.236 564.607 226.818C597.625 226.4 621.862 208.538 621.555 188.97ZM626.654 188.906C626.295 166.02 597.964 147.822 563.374 148.259C528.785 148.697 501.037 167.604 501.396 190.49C501.755 213.376 530.086 231.575 564.675 231.137C599.264 230.699 627.013 211.792 626.654 188.906Z" fill="#521330"/>
<path d="M441.746 229.927C475.056 237.784 496.152 262.029 488.864 284.079C481.577 306.13 448.666 317.636 415.356 309.779C382.045 301.922 360.95 277.677 368.237 255.627C375.524 233.576 408.435 222.07 441.746 229.927Z" fill="#8C3265"/>
<path fill-rule="evenodd" clip-rule="evenodd" d="M483.954 282.921C490.185 264.067 472.167 241.588 440.37 234.088C408.573 226.589 379.378 237.931 373.147 256.785C366.916 275.639 384.934 298.118 416.731 305.617C448.528 313.117 477.723 301.775 483.954 282.921ZM488.864 284.079C496.152 262.029 475.056 237.784 441.746 229.927C408.435 222.07 375.524 233.576 368.237 255.627C360.95 277.677 382.045 301.922 415.356 309.779C448.666 317.636 481.577 306.13 488.864 284.079Z" fill="#521330"/>
<path d="M146.853 42.7002C168.841 20.7705 206.785 17.4606 231.603 35.3074C256.42 53.1541 258.714 85.3992 236.726 107.329C214.737 129.259 176.793 132.569 151.976 114.722C127.158 96.8751 124.864 64.6299 146.853 42.7002Z" fill="#8C3265"/>
<path fill-rule="evenodd" clip-rule="evenodd" d="M228.299 38.6023C205.774 22.4046 171.029 25.2554 150.737 45.4934C130.445 65.7315 132.755 95.2291 155.28 111.427C177.804 127.625 212.549 124.774 232.841 104.536C253.133 84.2977 250.823 54.8 228.299 38.6023ZM231.603 35.3074C206.785 17.4606 168.841 20.7705 146.853 42.7002C124.864 64.6299 127.158 96.8751 151.976 114.722C176.793 132.569 214.737 129.259 236.726 107.329C258.714 85.3992 256.42 53.1541 231.603 35.3074Z" fill="#521330"/>
<path d="M163.99 120.371C185.978 98.4414 223.922 95.1315 248.739 112.978C273.557 130.825 275.851 163.07 253.862 185C231.874 206.93 193.93 210.239 169.112 192.393C144.295 174.546 142.001 142.301 163.99 120.371Z" fill="#8C3265"/>
<path fill-rule="evenodd" clip-rule="evenodd" d="M245.436 116.273C222.911 100.076 188.166 102.926 167.874 123.164C147.582 143.402 149.892 172.9 172.416 189.098C194.941 205.295 229.686 202.445 249.978 182.207C270.27 161.969 267.96 132.471 245.436 116.273ZM248.739 112.978C223.922 95.1315 185.978 98.4414 163.99 120.371C142.001 142.301 144.295 174.546 169.112 192.393C193.93 210.239 231.874 206.93 253.862 185C275.851 163.07 273.557 130.825 248.739 112.978Z" fill="#521330"/>
<path d="M98.3082 122.049C120.296 100.119 154.806 94.3403 175.388 109.141C195.97 123.942 194.83 153.718 172.842 175.647C150.853 197.577 116.343 203.356 95.7615 188.555C75.1797 173.755 76.3198 143.979 98.3082 122.049Z" fill="url(#paint0_radial_263_79)"/>
<path fill-rule="evenodd" clip-rule="evenodd" d="M172.085 112.436C154.427 99.7383 123.098 103.992 102.192 124.842C81.2865 145.693 81.4079 172.563 99.0653 185.26C116.723 197.958 148.051 193.704 168.957 172.854C189.863 152.004 189.742 125.134 172.085 112.436ZM175.388 109.141C154.806 94.3403 120.296 100.119 98.3082 122.049C76.3198 143.979 75.1797 173.755 95.7615 188.555C116.343 203.356 150.853 197.577 172.842 175.647C194.83 153.718 195.97 123.942 175.388 109.141Z" fill="#521330"/>
<path d="M213.545 262.922C244.473 262.77 269.639 281.799 269.755 305.425C269.871 329.05 244.894 348.326 213.966 348.478C183.039 348.63 157.873 329.601 157.756 305.976C157.64 282.35 182.618 263.074 213.545 262.922Z" fill="#8C3265"/>
<path fill-rule="evenodd" clip-rule="evenodd" d="M264.664 305.45C264.562 284.608 242.186 267.09 213.566 267.231C184.947 267.372 162.745 285.109 162.847 305.951C162.95 326.792 185.326 344.31 213.945 344.169C242.564 344.029 264.767 326.291 264.664 305.45ZM269.755 305.425C269.639 281.799 244.473 262.77 213.545 262.922C182.618 263.074 157.64 282.35 157.756 305.976C157.873 329.601 183.039 348.63 213.966 348.478C244.894 348.326 269.871 329.05 269.755 305.425Z" fill="#521330"/>
<path d="M305.283 156.708C335.67 148.086 367.23 158.688 375.774 180.39C384.319 202.092 366.613 226.675 336.227 235.298C305.84 243.921 274.28 233.318 265.735 211.616C257.19 189.914 274.897 165.331 305.283 156.708Z" fill="#8C3265"/>
<path fill-rule="evenodd" clip-rule="evenodd" d="M370.937 181.763C363.529 162.948 335.414 152.711 306.896 160.804C278.377 168.897 263.165 191.429 270.573 210.243C277.981 229.058 306.095 239.295 334.614 231.203C363.133 223.11 378.345 200.578 370.937 181.763ZM375.774 180.39C367.23 158.688 335.67 148.086 305.283 156.708C274.897 165.331 257.191 189.914 265.735 211.616C274.28 233.318 305.84 243.921 336.227 235.298C366.613 226.675 384.319 202.092 375.774 180.39Z" fill="#521330"/>
<path d="M286.761 103.307C317.689 103.154 342.855 122.183 342.971 145.809C343.087 169.434 318.11 188.71 287.182 188.862C256.254 189.014 231.088 169.985 230.972 146.36C230.856 122.734 255.834 103.459 286.761 103.307Z" fill="#8C3265"/>
<path fill-rule="evenodd" clip-rule="evenodd" d="M336.425 145.841C336.327 125.795 314.748 108.709 286.788 108.846C258.829 108.984 237.419 126.282 237.518 146.328C237.616 166.373 259.195 183.46 287.155 183.323C315.115 183.185 336.524 165.887 336.425 145.841ZM342.971 145.809C342.855 122.183 317.689 103.154 286.761 103.307C255.834 103.459 230.856 122.734 230.972 146.36C231.088 169.985 256.254 189.014 287.182 188.862C318.11 188.71 343.087 169.434 342.971 145.809Z" fill="#4E1230"/>
<path d="M181.45 141.944C211.55 141.796 236.041 160.259 236.154 183.183C236.267 206.107 211.958 224.81 181.859 224.958C151.76 225.107 127.268 206.643 127.155 183.719C127.042 160.796 151.351 142.092 181.45 141.944Z" fill="url(#paint1_radial_263_79)"/>
<path fill-rule="evenodd" clip-rule="evenodd" d="M231.794 183.205C231.693 162.675 209.603 145.495 181.468 145.634C153.334 145.772 131.414 163.168 131.515 183.698C131.616 204.228 153.706 221.407 181.841 221.269C209.975 221.131 231.895 203.735 231.794 183.205ZM236.154 183.183C236.041 160.259 211.55 141.796 181.45 141.944C151.351 142.092 127.042 160.796 127.155 183.719C127.268 206.643 151.76 225.107 181.859 224.958C211.958 224.81 236.267 206.107 236.154 183.183Z" fill="#4E1230"/>
<path d="M119.43 239.667C150.357 239.514 175.524 258.733 175.642 282.592C175.759 306.452 150.782 325.917 119.855 326.069C88.9272 326.221 63.7603 307.003 63.643 283.143C63.5256 259.284 88.5022 239.819 119.43 239.667Z" fill="url(#paint2_radial_263_79)"/>
<path fill-rule="evenodd" clip-rule="evenodd" d="M170.551 282.617C170.447 261.57 148.07 243.877 119.451 244.018C90.8318 244.159 68.6303 262.071 68.7338 283.118C68.8373 304.166 91.2141 321.859 119.833 321.718C148.453 321.577 170.654 303.665 170.551 282.617ZM175.642 282.592C175.524 258.733 150.357 239.514 119.43 239.667C88.5022 239.819 63.5256 259.284 63.643 283.143C63.7603 307.003 88.9272 326.221 119.855 326.069C150.782 325.917 175.759 306.452 175.642 282.592Z" fill="#521330"/>
<path d="M193.337 220.666C224.265 220.514 249.431 239.543 249.547 263.169C249.663 286.794 224.686 306.07 193.758 306.222C162.831 306.374 137.665 287.345 137.548 263.72C137.432 240.094 162.41 220.819 193.337 220.666Z" fill="url(#paint3_radial_263_79)"/>
<path fill-rule="evenodd" clip-rule="evenodd" d="M244.456 263.194C244.354 242.353 221.978 224.834 193.358 224.975C164.739 225.116 142.537 242.853 142.639 263.695C142.742 284.536 165.118 302.054 193.737 301.914C222.356 301.773 244.559 284.035 244.456 263.194ZM249.547 263.169C249.431 239.543 224.265 220.514 193.337 220.666C162.41 220.819 137.432 240.094 137.548 263.72C137.665 287.345 162.831 306.374 193.758 306.222C224.686 306.07 249.663 286.794 249.547 263.169Z" fill="#521330"/>
<path d="M289.385 330.082C315.461 347.799 323.938 375.523 308.319 392.006C292.701 408.489 258.902 407.489 232.826 389.772C206.751 372.056 198.273 344.331 213.892 327.848C229.51 311.365 263.31 312.365 289.385 330.082Z" fill="#8C3265"/>
<path fill-rule="evenodd" clip-rule="evenodd" d="M309.551 362.596C306.426 352.376 298.457 341.788 286.191 333.453C273.924 325.119 259.991 320.826 247.531 320.457C235.071 320.088 224.436 323.615 217.866 330.549C211.297 337.482 209.535 347.038 212.66 357.258C215.785 367.479 223.754 378.066 236.021 386.401C248.287 394.736 262.22 399.029 274.68 399.397C287.14 399.766 297.775 396.239 304.345 389.306C310.914 382.372 312.676 372.816 309.551 362.596ZM308.319 392.006C323.938 375.523 315.461 347.799 289.385 330.082C263.31 312.365 229.51 311.365 213.892 327.848C198.273 344.331 206.751 372.056 232.826 389.772C258.902 407.489 292.701 408.489 308.319 392.006Z" fill="#521330"/>
<path d="M204.049 308.903C230.125 326.619 238.602 354.344 222.983 370.827C207.365 387.31 173.566 386.31 147.49 368.593C121.415 350.876 112.938 323.152 128.556 306.669C144.174 290.186 177.974 291.186 204.049 308.903Z" fill="url(#paint4_radial_263_79)"/>
<path fill-rule="evenodd" clip-rule="evenodd" d="M224.215 341.417C221.09 331.196 213.121 320.609 200.855 312.274C188.588 303.939 174.655 299.647 162.195 299.278C149.735 298.909 139.1 302.436 132.531 309.369C125.961 316.303 124.199 325.859 127.324 336.079C130.449 346.3 138.418 356.887 150.685 365.222C162.951 373.556 176.884 377.849 189.345 378.218C201.804 378.587 212.439 375.06 219.009 368.126C225.578 361.193 227.34 351.637 224.215 341.417ZM222.983 370.827C238.602 354.344 230.125 326.619 204.049 308.903C177.974 291.186 144.174 290.186 128.556 306.669C112.938 323.152 121.415 350.876 147.49 368.593C173.566 386.31 207.365 387.31 222.983 370.827Z" fill="#521330"/>
<path d="M429.167 129.172C460.857 120.18 494.21 132.353 503.664 156.363C513.117 180.372 495.091 207.126 463.401 216.119C431.71 225.111 398.357 212.938 388.904 188.928C379.45 164.919 397.477 138.165 429.167 129.172Z" fill="#8C3265"/>
<path fill-rule="evenodd" clip-rule="evenodd" d="M498.826 157.735C490.427 136.404 460.317 124.886 430.779 133.268C401.242 141.65 385.342 166.224 393.741 187.555C402.14 208.887 432.25 220.405 461.788 212.023C491.326 203.641 507.225 179.067 498.826 157.735ZM503.664 156.363C494.21 132.353 460.857 120.18 429.167 129.172C397.477 138.165 379.45 164.919 388.904 188.928C398.357 212.938 431.71 225.111 463.401 216.119C495.091 207.126 513.117 180.372 503.664 156.363Z" fill="#521330"/>
<path d="M260.15 182.218C291.077 182.066 316.243 201.095 316.36 224.721C316.476 248.346 291.498 267.622 260.571 267.774C229.643 267.926 204.477 248.897 204.361 225.272C204.245 201.646 229.222 182.37 260.15 182.218Z" fill="#8C3265"/>
<path fill-rule="evenodd" clip-rule="evenodd" d="M311.269 224.746C311.166 203.904 288.79 186.386 260.171 186.527C231.552 186.668 209.349 204.405 209.452 225.246C209.554 246.088 231.93 263.606 260.549 263.465C289.169 263.325 311.371 245.587 311.269 224.746ZM316.36 224.721C316.243 201.095 291.077 182.066 260.15 182.218C229.222 182.37 204.245 201.646 204.361 225.272C204.477 248.897 229.643 267.926 260.571 267.774C291.498 267.622 316.476 248.346 316.36 224.721Z" fill="#521330"/>
<path d="M362.477 275.823C393.32 283.098 412.416 306.871 405.129 328.921C397.841 350.972 366.93 362.95 336.087 355.675C305.244 348.4 286.148 324.627 293.435 302.576C300.723 280.526 331.634 268.548 362.477 275.823Z" fill="#8C3265"/>
<path fill-rule="evenodd" clip-rule="evenodd" d="M400.219 327.763C406.536 308.646 390.049 286.812 361.102 279.984C332.154 273.156 304.663 284.617 298.346 303.734C292.028 322.851 308.515 344.685 337.462 351.513C366.41 358.341 393.901 346.88 400.219 327.763ZM405.129 328.921C412.416 306.871 393.32 283.098 362.477 275.823C331.634 268.548 300.723 280.526 293.435 302.576C286.148 324.627 305.244 348.4 336.087 355.675C366.93 362.95 397.841 350.972 405.129 328.921Z" fill="#521330"/>
<path d="M372.376 215.299C403.22 222.574 422.316 246.347 415.028 268.398C407.741 290.448 376.83 302.426 345.986 295.151C315.143 287.876 296.047 264.103 303.335 242.053C310.622 220.002 341.533 208.024 372.376 215.299Z" fill="#8C3265"/>
<path d="M372.376 215.299C403.22 222.574 422.316 246.347 415.028 268.398C407.741 290.448 376.83 302.426 345.986 295.151C315.143 287.876 296.047 264.103 303.335 242.053C310.622 220.002 341.533 208.024 372.376 215.299Z" fill="url(#paint5_linear_263_79)" fill-opacity="0.2"/>
<path fill-rule="evenodd" clip-rule="evenodd" d="M410.118 267.24C416.436 248.123 399.949 226.289 371.001 219.461C342.054 212.633 314.563 224.094 308.245 243.211C301.927 262.328 318.414 284.162 347.362 290.99C376.309 297.818 403.8 286.356 410.118 267.24ZM415.028 268.398C422.316 246.347 403.22 222.574 372.376 215.299C341.533 208.024 310.622 220.002 303.335 242.053C296.047 264.103 315.143 287.876 345.986 295.151C376.83 302.426 407.741 290.448 415.028 268.398Z" fill="#521330"/>
<path d="M367.903 150.847C398.29 142.224 429.85 152.827 438.394 174.529C446.939 196.231 429.233 220.814 398.847 229.436C368.46 238.059 336.9 227.456 328.355 205.754C319.811 184.052 337.517 159.469 367.903 150.847Z" fill="#8C3265"/>
<path fill-rule="evenodd" clip-rule="evenodd" d="M433.557 175.901C426.149 157.087 398.034 146.849 369.516 154.942C340.997 163.035 325.785 185.567 333.193 204.382C340.601 223.196 368.715 233.433 397.234 225.341C425.753 217.248 440.965 194.716 433.557 175.901ZM438.394 174.529C429.85 152.827 398.29 142.224 367.903 150.847C337.517 159.469 319.811 184.052 328.355 205.754C336.9 227.456 368.46 238.059 398.847 229.436C429.233 220.814 446.939 196.231 438.394 174.529Z" fill="#521330"/>
<path d="M309.213 246.046C340.93 249.786 363.374 272.482 359.342 296.738C355.31 320.995 326.329 337.626 294.612 333.886C262.895 330.146 240.451 307.451 244.483 283.194C248.515 258.938 277.496 242.306 309.213 246.046Z" fill="#8C3265"/>
<path fill-rule="evenodd" clip-rule="evenodd" d="M354.292 296.143C357.865 274.651 337.93 253.795 308.502 250.325C279.074 246.855 253.105 262.298 249.533 283.79C245.96 305.281 265.895 326.138 295.323 329.608C324.751 333.078 350.72 317.635 354.292 296.143ZM359.342 296.738C363.374 272.482 340.93 249.786 309.213 246.046C277.496 242.306 248.515 258.938 244.483 283.194C240.451 307.451 262.895 330.146 294.612 333.886C326.329 337.626 355.31 320.995 359.342 296.738Z" fill="#521330"/>
<path d="M520.629 381.792C555.218 381.355 583.55 399.553 583.909 422.439C584.268 445.325 556.519 464.232 521.93 464.67C487.341 465.107 459.01 446.909 458.651 424.023C458.291 401.137 486.04 382.23 520.629 381.792Z" fill="#8C3265"/>
<path fill-rule="evenodd" clip-rule="evenodd" d="M578.81 422.503C578.503 402.935 553.715 385.694 520.697 386.111C487.679 386.529 463.442 404.391 463.749 423.959C464.056 443.527 488.844 460.768 521.862 460.351C554.88 459.933 579.117 442.071 578.81 422.503ZM583.909 422.439C583.55 399.553 555.218 381.355 520.629 381.792C486.04 382.23 458.291 401.137 458.651 424.023C459.01 446.909 487.341 465.107 521.93 464.67C556.519 464.232 584.268 445.325 583.909 422.439Z" fill="#521330"/>
<path d="M888.629 360.792C923.218 360.355 951.55 378.553 951.909 401.439C952.268 424.325 924.519 443.232 889.93 443.67C855.341 444.107 827.01 425.909 826.651 403.023C826.291 380.137 854.04 361.23 888.629 360.792Z" fill="#8C3265"/>
<path fill-rule="evenodd" clip-rule="evenodd" d="M946.81 401.503C946.503 381.935 921.715 364.694 888.697 365.111C855.679 365.529 831.442 383.391 831.749 402.959C832.056 422.527 856.844 439.768 889.862 439.351C922.88 438.933 947.117 421.071 946.81 401.503ZM951.909 401.439C951.55 378.553 923.218 360.355 888.629 360.792C854.04 361.23 826.291 380.137 826.651 403.023C827.01 425.909 855.341 444.107 889.93 443.67C924.519 443.232 952.268 424.325 951.909 401.439Z" fill="#521330"/>
<path d="M752.629 308.792C787.218 308.355 815.55 326.553 815.909 349.439C816.268 372.325 788.519 391.232 753.93 391.67C719.341 392.107 691.01 373.909 690.651 351.023C690.291 328.137 718.04 309.23 752.629 308.792Z" fill="#8C3265"/>
<path fill-rule="evenodd" clip-rule="evenodd" d="M810.81 349.503C810.503 329.935 785.715 312.694 752.697 313.111C719.679 313.529 695.442 331.391 695.749 350.959C696.056 370.527 720.844 387.768 753.862 387.351C786.88 386.933 811.117 369.071 810.81 349.503ZM815.909 349.439C815.55 326.553 787.218 308.355 752.629 308.792C718.04 309.23 690.291 328.137 690.651 351.023C691.01 373.909 719.341 392.107 753.93 391.67C788.519 391.232 816.268 372.325 815.909 349.439Z" fill="#521330"/>
<path d="M656.629 338.792C691.218 338.355 719.55 356.553 719.909 379.439C720.268 402.325 692.519 421.232 657.93 421.67C623.341 422.107 595.01 403.909 594.651 381.023C594.291 358.137 622.04 339.23 656.629 338.792Z" fill="#8C3265"/>
<path fill-rule="evenodd" clip-rule="evenodd" d="M714.81 379.503C714.503 359.935 689.715 342.694 656.697 343.111C623.679 343.529 599.442 361.391 599.749 380.959C600.056 400.527 624.844 417.768 657.862 417.351C690.88 416.933 715.117 399.071 714.81 379.503ZM719.909 379.439C719.55 356.553 691.218 338.355 656.629 338.792C622.04 339.23 594.291 358.137 594.651 381.023C595.01 403.909 623.341 422.107 657.93 421.67C692.519 421.232 720.268 402.325 719.909 379.439Z" fill="#521330"/>
<defs>
<radialGradient id="paint0_radial_263_79" cx="0" cy="0" r="1" gradientUnits="userSpaceOnUse" gradientTransform="translate(111.737 148.691) rotate(25.3601) scale(48.4829 55.3877)">
<stop offset="0.105" stop-color="#FFFCFE"/>
<stop offset="0.355" stop-color="#8C3265"/>
</radialGradient>
<radialGradient id="paint1_radial_263_79" cx="0" cy="0" r="1" gradientUnits="userSpaceOnUse" gradientTransform="translate(171.516 190.573) rotate(14.6262) scale(66.9261 52.3089)">
<stop offset="0.251" stop-color="#8C3265"/>
</radialGradient>
<radialGradient id="paint2_radial_263_79" cx="0" cy="0" r="1" gradientUnits="userSpaceOnUse" gradientTransform="translate(103.693 293.203) rotate(-8.38921) scale(72.7269 56.5176)">
<stop stop-color="white"/>
<stop offset="0.315" stop-color="#8C3265"/>
</radialGradient>
<radialGradient id="paint3_radial_263_79" cx="0" cy="0" r="1" gradientUnits="userSpaceOnUse" gradientTransform="translate(174.668 269.385) rotate(29.7051) scale(73.8911 62.0304)">
<stop offset="0.01" stop-color="#FFFAFD"/>
<stop offset="0.24" stop-color="#8C3265"/>
</radialGradient>
<radialGradient id="paint4_radial_263_79" cx="0" cy="0" r="1" gradientUnits="userSpaceOnUse" gradientTransform="translate(159.329 345.925) rotate(34.3646) scale(67.297 47.8886)">
<stop offset="0.12" stop-color="#FBFBFB"/>
<stop offset="0.32" stop-color="#8C3265"/>
</radialGradient>
<linearGradient id="paint5_linear_263_79" x1="372.376" y1="215.299" x2="353.144" y2="296.839" gradientUnits="userSpaceOnUse">
<stop stop-opacity="0"/>
<stop offset="0.09" stop-color="white"/>
<stop offset="0.765"/>
</linearGradient>
</defs>
</svg>
