<svg width="514" height="500" viewBox="0 0 514 500" fill="none" xmlns="http://www.w3.org/2000/svg">
<path d="M3.5 250C3.5 386.048 116.904 496.5 257 496.5C397.096 496.5 510.5 386.048 510.5 250C510.5 113.952 397.096 3.5 257 3.5C116.904 3.5 3.5 113.952 3.5 250Z" fill="#DF9942" stroke="#645F5C" stroke-width="7"/>
<path d="M41.4691 250.5C41.4691 365.95 137.708 460 257 460C376.291 460 472.53 365.95 472.53 250.5C472.53 135.05 376.291 41 257 41C137.708 41 41.4691 135.05 41.4691 250.5Z" fill="#E09844" stroke="#854C19" stroke-width="20"/>
<path fill-rule="evenodd" clip-rule="evenodd" d="M417.584 436.501L422.827 67.5007L408.668 57.0007L403.333 447.5L417.584 436.501Z" fill="#965C2C" fill-opacity="0.4"/>
<path fill-rule="evenodd" clip-rule="evenodd" d="M330.31 481.5L332.002 17.9999L317.841 13.9999L313.118 486.5L330.31 481.5Z" fill="#965C2C" fill-opacity="0.4"/>
<path fill-rule="evenodd" clip-rule="evenodd" d="M240.216 492.5L242.293 6.99982L227.608 8.49989L222.903 491L240.216 492.5Z" fill="#965C2C" fill-opacity="0.4"/>
<path fill-rule="evenodd" clip-rule="evenodd" d="M147.913 468.999L154.2 28L137.94 36.9994L133.752 461L147.913 468.999Z" fill="#965C2C" fill-opacity="0.4"/>
<path fill-rule="evenodd" clip-rule="evenodd" d="M79.675 420.999L81.2485 76.9994L70.7587 87.9994L66.0812 407L79.675 420.999Z" fill="#965C2C" fill-opacity="0.4"/>
<path d="M91.6142 326C91.6142 347.107 109.613 364.5 132.171 364.5C154.73 364.5 172.729 347.107 172.729 326C172.729 304.893 154.73 287.5 132.171 287.5C109.613 287.5 91.6142 304.893 91.6142 326Z" fill="#C3883C" stroke="#955517" stroke-width="7"/>
<path d="M350.47 393C331.613 393 316.604 388.197 305.444 378.592C294.284 368.603 288.704 354.195 288.704 335.369V289.841C288.704 279.084 286.202 270.631 281.2 264.484C276.197 257.952 269.847 254.687 262.15 254.687H232.133V363.032C232.133 366.49 232.71 368.987 233.865 370.524C235.404 371.677 237.906 372.253 241.369 372.253H259.841V386.084H134V372.253H155.936C159.399 372.253 161.708 371.677 162.863 370.524C164.402 368.987 165.172 366.49 165.172 363.032V135.968C165.172 132.51 164.402 130.205 162.863 129.052C161.708 127.515 159.399 126.747 155.936 126.747H134V112.916H259.841V126.747H241.369C237.906 126.747 235.404 127.515 233.865 129.052C232.71 130.205 232.133 132.51 232.133 135.968V238.55H268.5C276.582 238.55 282.546 235.477 286.395 229.329C290.243 223.182 292.167 215.114 292.167 205.124V165.936C292.167 146.726 297.17 131.934 307.176 121.56C317.567 111.187 329.881 106 344.12 106C357.974 106 368.942 110.034 377.024 118.102C385.105 126.171 389.146 136.928 389.146 150.376C389.146 161.133 385.298 170.162 377.601 177.462C370.289 184.378 362.207 187.835 353.356 187.835C344.89 187.835 337.77 185.53 331.998 180.92C326.225 175.925 323.339 169.201 323.339 160.749C323.339 155.754 325.263 150.375 329.112 144.612C332.19 140.386 333.73 136.928 333.73 134.239C333.73 130.781 331.805 129.052 327.957 129.052C322.569 129.052 317.951 132.126 314.103 138.273C310.255 144.036 308.33 153.065 308.33 165.359V205.124C308.33 213.961 307.176 221.261 304.867 227.024C302.558 232.403 298.517 237.013 292.745 240.855V243.737C312.756 246.426 328.149 253.342 338.925 264.484C350.085 275.626 355.665 292.723 355.665 315.775V353.235C355.665 363.608 359.898 368.795 368.365 368.795C375.292 368.795 380.295 363.608 383.373 353.235C386.452 342.477 387.991 329.222 387.991 313.47H403C403 338.827 399.152 358.422 391.455 372.253C384.143 386.084 370.481 393 350.47 393Z" fill="#FFFDFD"/>
<path d="M419 156C419 189.417 393.882 216 363.5 216C333.118 216 308 189.417 308 156C308 122.583 333.118 96 363.5 96C393.882 96 419 122.583 419 156Z" stroke="#AE0606" stroke-width="8"/>
</svg>
