<svg width="514" height="500" viewBox="0 0 514 500" fill="none" xmlns="http://www.w3.org/2000/svg">
<path d="M510.5 250C510.5 113.952 397.096 3.5 257 3.5C116.904 3.5 3.5 113.952 3.5 250C3.5 386.048 116.904 496.5 257 496.5C397.096 496.5 510.5 386.048 510.5 250Z" fill="#DF9942" stroke="#645F5C" stroke-width="7"/>
<path d="M472.531 249.5C472.531 134.05 376.292 40 257 40C137.709 40 41.4697 134.05 41.4697 249.5C41.4697 364.95 137.709 459 257 459C376.292 459 472.531 364.95 472.531 249.5Z" fill="#E09844" stroke="#854C19" stroke-width="20"/>
<path fill-rule="evenodd" clip-rule="evenodd" d="M96.4161 63.4992L91.1728 432.499L105.332 442.999L110.667 52.5L96.4161 63.4992Z" fill="#965C2C" fill-opacity="0.4"/>
<path fill-rule="evenodd" clip-rule="evenodd" d="M183.69 18.5001L181.998 482L196.159 486L200.882 13.5002L183.69 18.5001Z" fill="#965C2C" fill-opacity="0.4"/>
<path fill-rule="evenodd" clip-rule="evenodd" d="M273.784 7.5L271.707 493L286.392 491.5L291.097 9.00001L273.784 7.5Z" fill="#965C2C" fill-opacity="0.4"/>
<path fill-rule="evenodd" clip-rule="evenodd" d="M366.087 31.0005L359.8 472L376.06 463.001L380.248 39.0005L366.087 31.0005Z" fill="#965C2C" fill-opacity="0.4"/>
<path fill-rule="evenodd" clip-rule="evenodd" d="M434.325 79.0006L432.751 423.001L443.241 412.001L447.919 93.0001L434.325 79.0006Z" fill="#965C2C" fill-opacity="0.4"/>
<path d="M422.386 174C422.386 152.893 404.387 135.5 381.829 135.5C359.27 135.5 341.271 152.893 341.271 174C341.271 195.107 359.27 212.5 381.829 212.5C404.387 212.5 422.386 195.107 422.386 174Z" fill="#C3883C" stroke="#955517" stroke-width="7"/>
<path d="M217.756 409.177C224.062 404.325 228.549 399.108 231.216 393.528C234.127 387.948 235.824 382.125 236.309 376.059C237.037 370.237 237.401 362.23 237.401 352.04V310.552H236.673C234.49 317.103 230.489 322.44 224.668 326.565C219.09 330.689 212.421 332.752 204.66 332.752C192.534 332.752 181.863 328.627 172.647 320.378C163.674 312.129 156.762 301.09 151.912 287.26C147.304 273.431 145 258.388 145 242.133C145 225.877 147.304 210.835 151.912 197.005C156.762 183.176 163.674 172.137 172.647 163.888C181.863 155.639 192.534 151.514 204.66 151.514C211.693 151.514 217.999 154.183 223.577 159.521C229.397 164.616 233.763 170.802 236.673 178.081H237.401V140.596C237.401 130.406 237.037 122.4 236.309 116.577C235.824 110.754 234.127 105.052 231.216 99.4719C228.549 93.8917 224.062 88.6753 217.756 83.8229L221.758 78C231.216 82.8524 239.341 90.131 246.131 99.8359C252.922 109.541 257.045 119.246 258.5 128.95C259.955 119.246 264.078 109.541 270.869 99.8359C277.659 90.131 285.784 82.8524 295.242 78L299.244 83.8229C293.181 88.6753 288.694 93.8917 285.784 99.4719C282.873 105.052 281.055 110.754 280.327 116.577C279.842 122.4 279.599 130.406 279.599 140.596V178.081H280.327C283.237 170.802 287.481 164.616 293.059 159.521C298.88 154.183 305.307 151.514 312.34 151.514C324.466 151.514 335.016 155.639 343.989 163.888C353.205 172.137 360.116 183.176 364.724 197.005C369.575 210.835 372 225.877 372 242.133C372 258.388 369.575 273.431 364.724 287.26C360.116 301.09 353.205 312.129 343.989 320.378C335.016 328.627 324.466 332.752 312.34 332.752C304.579 332.752 297.788 330.689 291.968 326.565C286.39 322.44 282.51 317.103 280.327 310.552H279.599V352.404C279.599 362.594 279.842 370.6 280.327 376.423C281.055 382.246 282.873 387.948 285.784 393.528C288.694 399.108 293.181 404.325 299.244 409.177L295.242 415C285.784 410.148 277.659 402.869 270.869 393.164C264.078 383.459 259.955 373.755 258.5 364.05C257.045 373.755 252.922 383.459 246.131 393.164C239.341 402.869 231.216 410.148 221.758 415L217.756 409.177ZM209.753 322.562C218.969 322.562 225.881 316.739 230.489 305.093C235.097 293.447 237.401 279.618 237.401 263.605V220.297C237.401 210.592 236.067 201.251 233.399 192.274C230.731 183.055 227.215 175.655 222.849 170.075C218.726 164.494 214.361 161.704 209.753 161.704C201.993 161.704 197.021 169.225 194.838 184.268C192.655 199.068 191.564 218.356 191.564 242.133C191.564 265.91 192.655 285.319 194.838 300.362C197.021 315.162 201.993 322.562 209.753 322.562ZM307.247 322.562C315.007 322.562 319.979 315.162 322.162 300.362C324.345 285.319 325.436 265.91 325.436 242.133C325.436 218.356 324.345 199.068 322.162 184.268C319.979 169.225 315.007 161.704 307.247 161.704C302.639 161.704 298.152 164.494 293.787 170.075C289.664 175.655 286.269 183.055 283.601 192.274C280.933 201.251 279.599 210.592 279.599 220.297V263.605C279.599 279.618 281.903 293.447 286.511 305.093C291.119 316.739 298.031 322.562 307.247 322.562Z" fill="white"/>
<path d="M316 79C316 112.417 290.882 139 260.5 139C230.118 139 205 112.417 205 79C205 45.5833 230.118 19 260.5 19C290.882 19 316 45.5833 316 79Z" stroke="#AE0606" stroke-width="8"/>
</svg>
