<svg width="514" height="500" viewBox="0 0 514 500" fill="none" xmlns="http://www.w3.org/2000/svg">
<path d="M510.5 250C510.5 386.048 397.096 496.5 257 496.5C116.904 496.5 3.5 386.048 3.5 250C3.5 113.952 116.904 3.5 257 3.5C397.096 3.5 510.5 113.952 510.5 250Z" fill="#DF9942" stroke="#645F5C" stroke-width="7"/>
<path d="M472.531 250.5C472.531 365.95 376.292 460 257 460C137.709 460 41.4697 365.95 41.4697 250.5C41.4697 135.05 137.709 41 257 41C376.292 41 472.531 135.05 472.531 250.5Z" fill="#E09844" stroke="#854C19" stroke-width="20"/>
<path fill-rule="evenodd" clip-rule="evenodd" d="M96.4161 436.501L91.1728 67.5007L105.332 57.0007L110.667 447.5L96.4161 436.501Z" fill="#965C2C" fill-opacity="0.4"/>
<path fill-rule="evenodd" clip-rule="evenodd" d="M183.69 481.5L181.998 17.9999L196.159 13.9999L200.882 486.5L183.69 481.5Z" fill="#965C2C" fill-opacity="0.4"/>
<path fill-rule="evenodd" clip-rule="evenodd" d="M273.784 492.5L271.707 6.99982L286.392 8.49989L291.097 491L273.784 492.5Z" fill="#965C2C" fill-opacity="0.4"/>
<path fill-rule="evenodd" clip-rule="evenodd" d="M366.087 468.999L359.8 28L376.06 36.9994L380.248 461L366.087 468.999Z" fill="#965C2C" fill-opacity="0.4"/>
<path fill-rule="evenodd" clip-rule="evenodd" d="M434.325 420.999L432.751 76.9994L443.241 87.9994L447.919 407L434.325 420.999Z" fill="#965C2C" fill-opacity="0.4"/>
<path d="M422.386 326C422.386 347.107 404.387 364.5 381.829 364.5C359.27 364.5 341.271 347.107 341.271 326C341.271 304.893 359.27 287.5 381.829 287.5C404.387 287.5 422.386 304.893 422.386 326Z" fill="#C3883C" stroke="#955517" stroke-width="7"/>
<path d="M258.406 407C232.324 407 208.977 400.042 188.364 386.127C168.171 371.789 152.396 352.602 141.037 328.566C129.679 304.53 124 278.175 124 249.5C124 220.825 129.469 194.47 140.406 170.434C151.765 146.398 167.54 127.422 187.733 113.506C208.346 99.1687 231.483 92 257.144 92C277.337 92 294.164 96.2169 307.626 104.651C321.508 113.084 331.815 123.837 338.545 136.91C345.276 149.982 348.642 163.476 348.642 177.392C348.642 192.572 344.014 205.855 334.759 217.241C325.504 228.205 314.357 233.687 301.316 233.687C291.64 233.687 283.647 230.946 277.337 225.464C271.027 219.56 267.872 211.759 267.872 202.06C267.872 190.675 274.603 179.5 288.064 168.536C298.16 160.102 303.209 151.458 303.209 142.602C303.209 133.747 299.843 125.735 293.112 118.566C286.802 110.976 276.496 107.181 262.193 107.181C242.421 107.181 227.907 119.831 218.652 145.133C209.398 170.012 204.77 204.801 204.77 249.5C204.77 271.849 205.191 289.349 206.032 302C206.873 314.229 208.766 325.825 211.711 336.789C215.497 352.392 222.649 364.831 233.166 374.108C244.103 383.386 256.724 388.024 271.027 388.024C291.64 388.024 308.257 378.958 320.877 360.825C333.497 342.693 341.07 321.398 343.594 296.94H360C357.476 326.036 348.011 351.759 331.604 374.108C315.198 396.036 290.799 407 258.406 407Z" fill="white"/>
<path d="M356 220C356 253.417 330.882 280 300.5 280C270.118 280 245 253.417 245 220C245 186.583 270.118 160 300.5 160C330.882 160 356 186.583 356 220Z" stroke="#AE0606" stroke-width="8"/>
</svg>
