<svg width="922" height="501" viewBox="0 0 922 501" fill="none" xmlns="http://www.w3.org/2000/svg">
<path d="M117.437 308.074C113.949 269.791 145.897 237.658 184.182 240.941L251.708 246.732C272.98 248.556 292.007 233.529 295.17 212.406L299.896 180.843C304.863 147.672 350.791 143.046 362.267 174.562C371.884 200.972 408.274 203.396 421.306 178.494L435.372 151.615C452.582 118.728 499.716 118.956 516.607 152.009L529.61 177.454C545.464 208.476 584.155 219.741 614.173 202.074L645.681 183.53L673.787 171.193C701.124 159.194 728.028 188.853 713.444 214.911L697.494 243.409C687.819 260.694 705.875 280.279 723.878 272.028C743.196 263.173 761.539 285.992 748.748 302.968L735.119 321.057C730.269 327.494 732.201 336.732 739.224 340.684C752.864 348.361 744.38 369.203 729.259 365.163L718.642 362.325C715.35 361.446 711.856 361.737 708.755 363.149L687.657 372.758C672.862 379.496 666.547 397.124 673.698 411.729C686.069 436.997 658.683 463.236 633.983 449.78L612.489 438.069C594.024 428.01 571.219 439.623 568.483 460.478C564.979 487.191 530.752 496.056 514.73 474.399L468.054 411.306C455.909 394.889 436.426 385.555 416.027 386.381L349.123 389.09C333.715 389.713 321.04 401.436 319.211 416.754L317.7 429.41C314.091 459.632 272.021 463.971 262.324 435.121C255.471 414.73 229.388 408.964 214.585 424.568L162.384 479.59C135.032 508.421 88.5641 506.577 63.5796 475.671L44.9627 452.641C20.9586 422.947 38.5814 378.411 76.3976 373.2C102.356 369.622 120.916 346.258 118.538 320.152L117.437 308.074Z" fill="#781313"/>
<path d="M104.195 179.385C100.778 141.93 132.069 110.492 169.568 113.704L238.626 119.62C259.902 121.443 278.932 106.429 282.095 85.3257L286.822 53.7929C291.79 20.6525 337.725 16.0313 349.203 47.5172C358.822 73.9029 395.218 76.3242 408.251 51.4455L422.32 24.592C439.533 -8.26439 486.675 -8.03603 503.568 24.9856L516.574 50.4071C532.43 81.4002 571.128 92.6546 601.15 75.0042L632.663 56.4776L660.774 44.1518C688.116 32.1635 715.024 61.7954 700.437 87.8291L684.485 116.3C674.808 133.569 692.867 153.136 710.873 144.892C730.195 136.046 748.54 158.844 735.748 175.804L722.116 193.876C717.266 200.307 719.198 209.536 726.221 213.484C739.864 221.154 731.378 241.976 716.255 237.94L705.636 235.105C702.344 234.226 698.849 234.517 695.748 235.928L674.646 245.528C659.849 252.259 653.533 269.871 660.685 284.463C673.058 309.707 645.667 335.921 620.964 322.477L599.466 310.778C580.998 300.729 558.189 312.331 555.453 333.165C551.948 359.854 517.715 368.711 501.691 347.074L455.008 284.04C442.861 267.639 423.374 258.313 402.972 259.138L336.057 261.844C320.647 262.468 307.969 274.179 306.14 289.483L304.629 302.127C301.019 332.321 258.942 336.656 249.244 307.833C242.389 287.461 216.303 281.7 201.497 297.29L141.752 360.194C116.757 386.51 75.8206 389.477 47.2889 367.038L22.017 347.164C-18.8609 315.016 0.581741 249.468 52.3875 244.774C84.0277 241.907 107.347 213.943 104.463 182.326L104.195 179.385Z" fill="#AE0606"/>
<path d="M404.518 144.698C391.131 102.578 434.913 65.0438 474.493 84.7089L572.727 133.516C592.309 143.245 612.056 120.631 599.778 102.538C586.519 83.0005 610.229 59.6405 629.568 73.1877L695.621 119.459C712.855 131.532 736.721 126.356 747.405 108.229L767.41 74.2924C799.412 20.0003 880.669 29.5776 899.171 89.8223L917.434 149.286C920.354 158.792 921.838 168.681 921.838 178.625L921.838 256.008C924.329 307.61 885.626 351.97 834.163 356.498L744.648 364.375C722.115 366.358 705.473 386.258 707.508 408.787C711.426 452.165 653.84 470.788 631.617 433.329L616.651 408.103C603.748 386.355 576.078 378.517 553.686 390.266L543.351 395.689C503.422 416.641 455.783 386.516 457.594 341.46L458.142 327.833C458.944 307.876 445.559 290.123 426.151 285.404L391.715 277.03C358.895 269.049 358.188 222.63 390.749 213.653C408.66 208.715 418.878 189.88 413.25 172.173L404.518 144.698Z" fill="#881010"/>
</svg>
