<svg width="1360" height="694" viewBox="0 0 1360 694" fill="none" xmlns="http://www.w3.org/2000/svg">
<path d="M83.5025 305.241C49.991 295.713 42.5002 251.586 70.9901 231.533L119.234 197.577C130.955 189.326 144.939 184.898 159.273 184.898H206.182C242.741 184.898 277.011 167.096 298.032 137.185C324.851 99.023 372.473 81.42 417.665 92.9635L437.708 98.083L510 122.836C516.531 125.072 523.608 125.148 530.185 123.053L619.046 94.749C648.032 85.516 664.844 126.632 637.693 140.354C620.15 149.22 619.477 174.026 636.514 183.83L738.136 242.31C746.978 247.398 756.637 250.91 766.682 252.69L1294.75 346.247C1297.55 346.744 1300.23 347.795 1302.63 349.339C1320.22 360.682 1312.81 387.931 1291.89 388.796L883.686 405.679C849.685 407.085 838.475 451.949 867.82 469.182C895.824 485.628 887.181 528.201 854.982 532.425L629.487 562.009C612.617 564.223 602.008 581.341 607.533 597.434C615.301 620.057 591.904 640.813 570.368 630.405L471.026 582.395C450.086 572.274 425.573 572.752 405.043 583.681L332.856 622.111C295.131 642.193 248.269 627.829 228.279 590.055C213.344 561.834 182.585 545.709 150.879 549.48L145.134 550.163C94.1614 556.225 49.3334 516.413 49.3334 465.08V439.124C49.3334 421.208 58.2332 404.462 73.0826 394.438L95.3488 379.408C124.538 359.703 117.378 314.872 83.5025 305.241Z" fill="#AE0606"/>
<ellipse cx="1005" cy="516.5" rx="29" ry="20.5" fill="#AE0606"/>
<ellipse cx="735.002" cy="659.002" rx="29" ry="20.5" transform="rotate(45 735.002 659.002)" fill="#AE0606"/>
<ellipse cx="187.277" cy="112.622" rx="29" ry="20.5" transform="rotate(41.8722 187.277 112.622)" fill="#AE0606"/>
</svg>
