<svg width="386" height="366" viewBox="0 0 386 366" fill="none" xmlns="http://www.w3.org/2000/svg">
<path d="M28.9258 297.024C45.5759 329.133 91.3311 362 91.3311 362L383.397 161.004C383.397 161.004 380.145 106.582 365.043 73.0212C349.941 39.4607 295.525 3.99997 295.525 3.99997L3 207.271C3 207.271 12.2756 264.915 28.9258 297.024Z" fill="#A79356" stroke="black" stroke-width="5"/>
<path d="M273.04 56.3348L45.6738 215.867L55.31 220.671L45.6738 224.716L100.279 323.318L103.72 307.137L108.767 320.284L333.152 164.797V151.144L343.017 153.925L283.365 52.2896V62.9083L273.04 56.3348Z" stroke="black" stroke-width="5"/>
<path d="M121.715 194.64L121.485 194.799L129.673 209.239C130.265 210.283 131.042 210.845 132.003 210.924C132.973 210.966 133.931 210.661 134.875 210.011L135.506 211.125L127.336 216.751L126.705 215.637C127.649 214.987 128.306 214.18 128.676 213.216C129.054 212.213 128.947 211.19 128.355 210.146L117.819 191.566C117.635 191.241 117.455 191.058 117.279 191.018C117.104 190.978 116.862 191.063 116.555 191.275L113.919 193.09L113.288 191.976L121.162 186.555L136.898 199.522L131.605 179.363L139.973 173.601L140.605 174.715L138.298 176.303C138.013 176.499 137.837 176.701 137.771 176.908C137.727 177.099 137.797 177.358 137.981 177.682L149.82 198.559C149.991 198.861 150.171 199.043 150.359 199.107C150.557 199.132 150.798 199.047 151.084 198.85L153.39 197.262L154.021 198.375L142.952 205.998L142.321 204.884L144.627 203.296C144.934 203.085 145.11 202.883 145.154 202.691C145.185 202.477 145.115 202.218 144.944 201.917L133.717 182.118L140.553 208.23L139.268 209.115L121.715 194.64ZM156.475 195.138L158.781 193.55C159.089 193.338 159.265 193.136 159.309 192.945C159.34 192.73 159.27 192.472 159.099 192.17L147.26 171.293C147.076 170.968 146.896 170.786 146.721 170.745C146.545 170.705 146.304 170.791 145.996 171.002L143.69 172.59L143.058 171.477L154.128 163.855L154.759 164.968L152.453 166.556C152.168 166.753 151.992 166.954 151.926 167.161C151.882 167.353 151.952 167.611 152.136 167.936L163.974 188.813C164.145 189.114 164.325 189.297 164.514 189.36C164.712 189.386 164.953 189.3 165.239 189.103L167.545 187.515L168.176 188.629L157.107 196.251L156.475 195.138ZM181.361 180.421C180.395 181.086 179.442 181.533 178.502 181.76C177.575 182.011 176.735 182.09 175.98 181.998C175.251 181.951 174.737 181.934 174.439 181.946C174.127 181.935 173.872 181.997 173.674 182.133C173.213 182.451 173.151 183.042 173.489 183.906L173.955 185.133L172.934 185.836L166.502 174.977L167.556 174.251C168.863 175.802 170.32 177.106 171.926 178.161C173.554 179.201 175.154 179.841 176.725 180.081C178.319 180.306 179.719 180.003 180.927 179.171C182.663 177.976 183.618 176.754 183.795 175.503C183.971 174.253 183.77 173.117 183.192 172.097C182.85 171.493 182.338 171.104 181.658 170.927C180.986 170.712 180.115 170.603 179.044 170.598L169.271 170.651C167.844 170.666 166.472 170.401 165.155 169.856C163.861 169.297 162.805 168.298 161.99 166.859C160.714 164.609 160.382 162.516 160.994 160.578C161.614 158.603 162.836 156.988 164.659 155.732C166.218 154.659 168.107 154.165 170.324 154.251C171.066 154.32 171.579 154.257 171.865 154.06C172.26 153.788 172.35 153.355 172.136 152.761L171.801 151.685L172.855 150.96L178.314 159.779L177.26 160.505C175.935 159.192 174.531 158.143 173.048 157.358C171.564 156.573 170.118 156.15 168.709 156.088C167.308 155.988 166.081 156.301 165.027 157.027C163.863 157.829 163.133 158.67 162.838 159.55C162.566 160.415 162.705 161.335 163.258 162.309C164.008 163.632 165.741 164.292 168.459 164.292L178.285 164.251C179.54 164.257 180.741 164.624 181.886 165.351C183.053 166.063 183.973 167.011 184.643 168.194C185.327 169.4 185.704 170.738 185.773 172.206C185.842 173.674 185.525 175.134 184.821 176.587C184.118 178.039 182.964 179.317 181.361 180.421ZM200.649 164.721L202.955 163.133C203.262 162.921 203.438 162.719 203.482 162.528C203.513 162.313 203.443 162.055 203.272 161.753L191.434 140.876C191.249 140.551 191.07 140.369 190.894 140.328C190.718 140.288 190.477 140.374 190.169 140.585L187.863 142.173L187.232 141.06L205.747 128.311L210.522 136.247L209.468 136.973C209.376 136.811 208.959 136.372 208.218 135.657C207.498 134.926 206.726 134.345 205.901 133.914C204.869 133.334 203.873 133.004 202.912 132.924C201.95 132.844 201.063 133.084 200.251 133.644L196.627 136.139C196.341 136.336 196.165 136.537 196.099 136.744C196.055 136.936 196.125 137.194 196.309 137.519L201.755 147.122L203.435 145.965C204.028 145.557 204.433 144.923 204.648 144.065C204.864 143.207 204.904 142.309 204.769 141.37C204.642 140.392 204.388 139.567 204.007 138.895L205.061 138.169L211.237 149.06L210.183 149.786C209.788 149.09 209.227 148.477 208.498 147.946C207.779 147.377 207.021 147.011 206.227 146.849C205.432 146.686 204.739 146.809 204.146 147.218L202.465 148.375L208.148 158.396C208.319 158.697 208.499 158.88 208.687 158.943C208.885 158.969 209.127 158.883 209.412 158.686L213.003 156.214C214.211 155.382 214.932 154.176 215.166 152.596C215.4 151.015 215.37 149.455 215.077 147.915C214.95 147.261 214.729 146.494 214.414 145.614C214.098 144.735 213.879 144.16 213.757 143.89L214.811 143.164L220.059 152.903L201.28 165.834L200.649 164.721ZM218.965 128.643L218.833 128.734L226.351 141.991C226.956 143.058 227.833 143.663 228.983 143.807C230.156 143.935 231.346 143.583 232.554 142.751L233.185 143.865L223.565 150.489L222.934 149.376C224.142 148.544 224.939 147.527 225.327 146.325C225.736 145.108 225.638 143.966 225.033 142.898L216.608 128.041C216.463 127.786 216.336 127.615 216.226 127.53C216.117 127.444 215.919 127.338 215.634 127.212L213.132 126.032C212.715 125.835 212.342 125.769 212.013 125.835C211.67 125.877 211.246 126.072 210.741 126.42L210.148 126.828L209.517 125.715L216.831 120.679L236.39 129.321L230.056 118.151C229.451 117.084 228.563 116.487 227.391 116.359C226.24 116.215 225.061 116.559 223.853 117.391L223.222 116.278L232.842 109.654L233.473 110.767C232.265 111.599 231.457 112.623 231.047 113.84C230.66 115.042 230.769 116.177 231.374 117.244L243.094 137.912L241.842 138.774L218.965 128.643ZM115.254 282.789L117.56 281.201C117.868 280.989 118.043 280.788 118.087 280.596C118.118 280.381 118.048 280.123 117.877 279.821L106.039 258.944C105.855 258.62 105.675 258.437 105.499 258.397C105.324 258.356 105.082 258.442 104.775 258.654L102.469 260.242L101.837 259.128L113.434 251.143C114.73 250.251 116.082 249.674 117.492 249.413C118.923 249.137 120.236 249.217 121.43 249.653C122.611 250.065 123.523 250.84 124.168 251.977C125.036 253.508 125.201 255.119 124.665 256.811C124.128 258.503 123.204 260.107 121.895 261.621L122.013 261.83C123.116 261.297 124.301 260.964 125.57 260.832C126.848 260.662 128.049 260.787 129.172 261.206C130.296 261.626 131.18 262.404 131.825 263.541C132.627 264.956 132.966 266.416 132.842 267.92C132.718 269.425 132.214 270.852 131.331 272.203C130.456 273.514 129.316 274.654 127.91 275.622L115.885 283.902L115.254 282.789ZM119.234 262.825C120.42 262.008 120.971 261.016 120.889 259.847C120.793 258.655 120.239 257.166 119.226 255.379C118.371 253.872 117.454 252.874 116.475 252.387C115.484 251.876 114.548 251.924 113.67 252.529L111.232 254.207C110.946 254.404 110.771 254.606 110.705 254.812C110.661 255.004 110.731 255.262 110.915 255.587L116.203 264.912L119.234 262.825ZM126.258 275.212C127.422 274.411 128.059 273.407 128.17 272.202C128.289 270.959 127.75 269.281 126.553 267.171C125.356 265.06 124.231 263.802 123.178 263.399C122.133 262.957 121.029 263.137 119.865 263.938L116.834 266.025L122.753 276.464C122.924 276.766 123.104 276.948 123.293 277.012C123.49 277.037 123.732 276.951 124.017 276.755L126.258 275.212ZM149.645 261.527C147.954 262.691 146.002 263.18 143.79 262.995C141.599 262.794 139.488 262.006 137.456 260.631C135.411 259.233 133.764 257.432 132.514 255.228C131.265 253.024 130.525 250.615 130.294 248C130.05 245.362 130.326 242.914 131.123 240.656C131.941 238.383 133.196 236.664 134.887 235.5C136.578 234.335 138.519 233.854 140.71 234.055C142.922 234.241 145.051 235.033 147.096 236.431C149.128 237.805 150.768 239.595 152.018 241.798C153.268 244.002 154.014 246.423 154.258 249.061C154.489 251.676 154.195 254.12 153.377 256.393C152.58 258.651 151.337 260.362 149.645 261.527ZM149.014 260.413C150.354 259.491 151.086 258.277 151.21 256.772C151.343 255.23 150.732 253.263 149.377 250.874L143.458 240.436C142.103 238.046 140.774 236.591 139.47 236.069C138.175 235.509 136.858 235.691 135.518 236.613C134.179 237.536 133.442 238.769 133.309 240.312C133.185 241.816 133.801 243.763 135.156 246.152L141.075 256.591C142.43 258.98 143.754 260.455 145.049 261.015C146.353 261.536 147.674 261.336 149.014 260.413ZM173.913 244.817C171.936 246.178 170.069 246.899 168.313 246.979C166.544 247.036 164.977 246.615 163.612 245.717C162.256 244.78 161.124 243.511 160.217 241.91L151.95 227.331C151.765 227.006 151.586 226.824 151.41 226.783C151.234 226.743 150.993 226.829 150.685 227.04L148.577 228.492L147.946 227.379L158.62 220.029L159.251 221.142L157.143 222.594C156.857 222.791 156.681 222.992 156.615 223.199C156.571 223.391 156.641 223.649 156.825 223.974L165.862 239.91C167.072 242.044 168.338 243.333 169.659 243.778C170.98 244.223 172.442 243.894 174.046 242.79C175.122 242.049 175.931 241.105 176.471 239.958C177.012 238.812 177.261 237.608 177.218 236.348C177.175 235.087 176.838 233.9 176.207 232.787L168.472 219.147C167.88 218.103 167.099 217.56 166.129 217.519C165.168 217.439 164.215 217.724 163.27 218.375L162.639 217.261L170.809 211.635L171.441 212.749C170.496 213.399 169.835 214.225 169.457 215.228C169.087 216.192 169.198 217.196 169.79 218.239L177.327 231.531C178.156 232.993 178.594 234.546 178.641 236.191C178.697 237.797 178.318 239.364 177.505 240.892C176.713 242.404 175.516 243.713 173.913 244.817ZM191.538 230.261L194.174 228.446C194.481 228.234 194.657 228.033 194.701 227.841C194.732 227.626 194.662 227.368 194.491 227.067L182.85 206.538C182.639 206.166 182.365 205.952 182.027 205.894C181.689 205.837 181.333 205.937 180.96 206.194C179.928 206.905 179.325 208.158 179.153 209.954C178.967 211.727 179.119 213.557 179.61 215.445C179.855 216.47 180.093 217.322 180.326 218C180.567 218.641 180.716 219.038 180.772 219.192L179.718 219.918L174.102 209.368L193.869 195.757L200.012 205.944L198.958 206.67C198.857 206.546 198.587 206.232 198.149 205.728C197.719 205.185 197.14 204.568 196.412 203.876C195.087 202.563 193.661 201.609 192.133 201.016C190.593 200.4 189.306 200.447 188.274 201.158C187.9 201.415 187.663 201.723 187.562 202.083C187.461 202.443 187.515 202.809 187.726 203.18L199.367 223.709C199.538 224.011 199.718 224.193 199.906 224.257C200.104 224.282 200.345 224.196 200.631 224L203.267 222.185L203.898 223.298L192.17 231.374L191.538 230.261ZM210.904 216.926L213.21 215.338C213.518 215.126 213.693 214.925 213.737 214.733C213.768 214.518 213.698 214.26 213.527 213.959L201.689 193.081C201.505 192.757 201.325 192.574 201.149 192.534C200.974 192.493 200.732 192.579 200.425 192.791L198.118 194.379L197.487 193.265L208.557 185.643L209.188 186.757L206.882 188.345C206.596 188.541 206.421 188.743 206.355 188.95C206.311 189.141 206.381 189.399 206.565 189.724L218.403 210.601C218.574 210.903 218.754 211.085 218.943 211.149C219.14 211.174 219.382 211.088 219.667 210.892L221.973 209.304L222.605 210.417L211.535 218.04L210.904 216.926ZM225.414 206.935L227.72 205.347C228.006 205.15 228.164 204.944 228.195 204.73C228.234 204.477 228.162 204.188 227.978 203.863L216.199 183.09C216.015 182.765 215.835 182.583 215.659 182.542C215.484 182.502 215.242 182.588 214.935 182.8L212.628 184.388L211.997 183.274L223.067 175.652L223.698 176.765L221.392 178.353C221.106 178.55 220.931 178.751 220.865 178.958C220.82 179.15 220.891 179.408 221.075 179.733L232.854 200.505C233.038 200.83 233.231 201.036 233.433 201.123C233.644 201.171 233.892 201.097 234.177 200.9L237.505 198.609C238.691 197.793 239.333 196.447 239.431 194.574C239.551 192.685 239.412 190.878 239.013 189.152C238.865 188.513 238.654 187.738 238.383 186.828C238.111 185.919 237.925 185.321 237.824 185.036L238.879 184.31L244.692 195.208L226.045 208.048L225.414 206.935ZM247.485 191.737L249.791 190.149C250.098 189.938 250.274 189.736 250.318 189.544C250.349 189.33 250.279 189.071 250.108 188.77L238.269 167.893C238.085 167.568 237.905 167.385 237.73 167.345C237.554 167.305 237.313 167.39 237.005 167.602L234.699 169.19L234.068 168.077L245.137 160.454L245.769 161.568L243.462 163.156C243.177 163.352 243.001 163.554 242.935 163.761C242.891 163.952 242.961 164.211 243.145 164.535L254.984 185.412C255.155 185.714 255.335 185.897 255.523 185.96C255.721 185.985 255.962 185.9 256.248 185.703L258.554 184.115L259.185 185.229L248.116 192.851L247.485 191.737ZM261.994 181.746L264.301 180.158C264.608 179.946 264.784 179.745 264.828 179.553C264.859 179.338 264.789 179.08 264.618 178.779L252.779 157.901C252.595 157.577 252.415 157.394 252.24 157.354C252.064 157.313 251.823 157.399 251.515 157.611L249.209 159.199L248.578 158.085L267.093 145.336L271.868 153.273L270.814 153.998C270.722 153.836 270.305 153.397 269.563 152.682C268.844 151.952 268.072 151.371 267.247 150.939C266.215 150.359 265.219 150.029 264.257 149.949C263.296 149.87 262.409 150.11 261.596 150.669L257.972 153.164C257.687 153.361 257.511 153.563 257.445 153.769C257.401 153.961 257.471 154.219 257.655 154.544L263.101 164.147L264.781 162.991C265.374 162.582 265.779 161.949 265.994 161.091C266.21 160.233 266.25 159.334 266.115 158.395C265.988 157.418 265.734 156.593 265.353 155.92L266.407 155.194L272.583 166.085L271.528 166.811C271.134 166.115 270.572 165.502 269.844 164.971C269.124 164.403 268.367 164.037 267.573 163.874C266.778 163.712 266.084 163.835 265.491 164.243L263.811 165.4L269.494 175.421C269.665 175.723 269.845 175.905 270.033 175.969C270.231 175.994 270.472 175.908 270.758 175.712L274.349 173.239C275.557 172.407 276.278 171.201 276.512 169.621C276.746 168.041 276.716 166.481 276.423 164.941C276.296 164.286 276.075 163.519 275.76 162.64C275.444 161.76 275.225 161.185 275.102 160.915L276.157 160.189L281.405 169.929L262.626 182.859L261.994 181.746ZM303.405 155.941C302 156.909 300.63 157.239 299.295 156.932C297.983 156.61 296.84 155.591 295.866 153.875L293.42 149.56C292.788 148.447 291.992 147.689 291.031 147.286C290.092 146.868 289.084 147.03 288.008 147.771L286.163 149.042L292.24 159.758C292.411 160.06 292.591 160.243 292.779 160.306C292.977 160.331 293.219 160.246 293.504 160.049L296.403 158.053L297.035 159.166L285.372 167.197L284.741 166.083L287.047 164.495C287.354 164.284 287.53 164.082 287.574 163.89C287.605 163.676 287.535 163.417 287.364 163.116L275.526 142.239C275.341 141.914 275.162 141.731 274.986 141.691C274.81 141.651 274.569 141.736 274.261 141.948L271.955 143.536L271.324 142.423L281.998 135.073C284.37 133.439 286.597 132.68 288.678 132.796C290.745 132.888 292.312 133.873 293.377 135.752C294.285 137.353 294.442 139.003 293.848 140.702C293.276 142.386 292.144 143.971 290.453 145.459L290.591 145.702C292.488 144.847 294.174 144.589 295.649 144.928C297.111 145.244 298.421 146.423 299.578 148.464L301.768 152.327C302.321 153.301 302.904 153.576 303.519 153.153C304.09 152.76 304.225 151.973 303.923 150.795C303.621 149.616 303.062 148.307 302.246 146.869L303.301 146.143C304.577 148.393 305.284 150.341 305.423 151.987C305.55 153.609 304.877 154.927 303.405 155.941ZM287.739 146.408C288.903 145.607 289.459 144.595 289.407 143.372C289.355 142.15 288.869 140.727 287.948 139.103C287.054 137.526 286.153 136.502 285.244 136.031C284.336 135.56 283.299 135.725 282.135 136.526L280.719 137.502C280.433 137.698 280.257 137.9 280.191 138.107C280.147 138.298 280.217 138.557 280.401 138.881L285.531 147.928L287.739 146.408Z" fill="black"/>
<path d="M92.0195 360.989C92.0195 360.989 67.4704 282.866 61.0463 269.972C54.6222 257.078 3.45898 207.019 3.45898 207.019" stroke="black" stroke-width="5"/>
<path d="M296.214 4.25293C296.214 4.25293 322.37 71.7572 328.794 84.6512C335.218 97.5453 383.398 160.752 383.398 160.752" stroke="black" stroke-width="5"/>
</svg>
