<svg width="1003" height="301" viewBox="0 0 1003 301" fill="none" xmlns="http://www.w3.org/2000/svg">
<path d="M175.018 229.582L117.678 298.128H51.1647L2.99951 229.582V92.4904L51.1647 3L117.678 3L175.018 73.4499L165.844 81.0661C165.844 81.0661 140.614 143.9 140.614 149.612C140.614 155.324 168.137 225.774 168.137 225.774L175.018 229.582Z" fill="black"/>
<path d="M175.018 229.582L117.678 298.128H51.1647L2.99953 229.582V92.4904L51.1647 3L117.678 3L175.018 73.4499M175.018 229.582L975.477 229.582M175.018 229.582L168.137 225.774M175.018 73.4499L975.477 73.4499M175.018 73.4499L165.844 81.0661M165.844 81.0661L113.091 12.5203L60.339 12.5203L16.761 92.4904V227.678L55.7518 288.608H113.091L168.137 225.774M165.844 81.0661C165.844 81.0661 140.614 143.9 140.614 149.612C140.614 155.324 168.137 225.774 168.137 225.774" stroke="black" stroke-width="5"/>
<path d="M977.771 228.986C975.442 228.986 972.774 227.486 969.954 223.707C967.169 219.972 964.554 214.409 962.315 207.311C957.845 193.143 955.041 173.416 955.041 151.516C955.041 129.615 957.845 109.888 962.315 95.7203C964.554 88.6217 967.169 83.0589 969.954 79.3246C972.774 75.5447 975.442 74.0454 977.771 74.0454C980.099 74.0454 982.768 75.5447 985.587 79.3246C988.372 83.0589 990.987 88.6217 993.226 95.7203C997.696 109.888 1000.5 129.615 1000.5 151.516C1000.5 173.416 997.696 193.143 993.226 207.311C990.987 214.409 988.372 219.972 985.587 223.707C982.768 227.486 980.099 228.986 977.771 228.986Z" stroke="black" stroke-width="5"/>
<path d="M172.725 71.5454C172.725 71.5454 142.298 110.32 142.908 153.42C143.511 196.021 172.725 231.486 172.725 231.486" stroke="black"/>
<path d="M847.036 94.394C838.538 80.0721 803.457 77.2576 803.457 77.2576C803.457 77.2576 177.31 75.3535 175.016 75.3535C172.723 75.3535 145.741 119.047 145.2 149.612C144.633 181.591 168.136 227.678 175.016 227.678C181.897 227.678 966.303 227.678 853.915 225.774C741.528 223.869 772.114 206.733 796.578 206.733C798.872 206.733 836.642 209.634 837.862 195.309C839.054 181.314 806.658 189.536 801.165 176.268C792.478 155.29 852.706 181.313 867.678 162.94C889.492 136.172 772.165 162.737 775.935 130.571C779.089 103.662 861.428 118.647 847.036 94.394Z" fill="#7E0808" stroke="#7E0808"/>
</svg>
